<svg width="562" height="419" viewBox="0 0 562 419" fill="none" xmlns="http://www.w3.org/2000/svg">
<path fill-rule="evenodd" clip-rule="evenodd" d="M156.528 248.293C159.09 246.558 164.33 240.343 167.075 238.907C173.18 235.714 200.375 229.437 201.26 229.066C202.606 228.501 211.355 226.527 216.453 225.28C228.422 222.352 271.317 203.438 282.622 198.589C284.066 202.364 295.981 219.03 293.937 220.738C287.207 226.362 275.144 233.363 267.349 237.393C261.044 240.652 254.366 243.349 247.624 245.552C239.97 248.052 234.716 250.733 227.088 253.291C219.582 255.808 228.551 263.679 232.406 265.305C236.729 267.129 243.425 268.055 247.843 269.637C240.065 281.652 233.534 296.236 232.227 310.63C231.913 314.094 229.256 317.27 224.936 316.233C222.706 315.698 202.134 312.974 198.779 312.214C176.386 307.137 136.185 280.552 146.537 253.291C148.909 254.38 154.323 249.787 156.528 248.293Z" fill="#569AD8"/>
<path fill-rule="evenodd" clip-rule="evenodd" d="M169.056 103.659C170.729 103.519 175.055 100.197 172.785 98.5165C170.495 96.8212 168.85 102.502 169.056 103.659ZM81.9102 116.399C82.3474 116.323 82.1565 113.944 81.468 113.64C79.2949 112.681 79.1114 116.285 79.0584 117.25C78.9923 118.467 78.839 121.896 81.4811 120.956C82.9812 120.423 82.0505 117.312 81.9102 116.399ZM210.202 127.513C210.142 129.636 214.458 133.72 216.067 131.27C217.42 129.212 210.312 123.286 210.202 127.513ZM57.6271 79.6233C58.8775 82.7937 65.0609 78.4728 65.2907 76.1471C65.7626 71.3844 57.5625 76.4544 57.6271 79.6233ZM109.217 93.293C112.096 93.0577 115.885 89.4184 118.662 88.0587C120.541 87.1387 125.655 86.0421 126.211 83.9534C126.695 82.1382 118.019 86.0233 117.278 86.3683C113.875 87.9535 110.806 89.7604 109.217 93.293ZM325.398 68.1966C327.694 66.4324 330.484 65.2943 333.426 65.3689C334.896 65.4061 337.961 66.3199 338.076 63.794C338.264 59.6866 325.287 64.6958 323.26 65.5015C323.973 66.4004 324.686 67.2985 325.398 68.1966ZM182.211 228.261C180.527 225.481 177.498 223.874 175.221 221.503C176.055 225.396 174.174 228.859 172.881 232.414C175.991 231.03 179.1 229.645 182.211 228.261ZM474.629 287.517C475.557 284.43 476.487 281.36 477.572 278.32C478.786 274.916 479.389 274.621 476.483 272.241C474.072 276.772 471.66 281.303 469.248 285.835C470.965 286.561 472.757 287.267 474.629 287.517ZM225.019 64.031C221.826 60.4531 206.86 60.2284 208.713 68.1252C209.359 70.8827 213.038 67.9534 215.343 67.3107C217.63 66.6725 224.108 66.5877 225.019 64.031ZM224.47 114.688C224.083 113.774 223.311 110.479 222.163 110.219C221.046 109.966 216.637 113.423 215.808 113.95C211.674 116.584 207.644 119.417 203.615 122.208C205.158 122.208 206.558 121.662 208.092 121.651C209.913 121.635 211.221 122.379 212.997 121.954C216.814 121.044 221.244 116.839 224.47 114.688ZM228.607 33.0455C228.965 31.4089 247.676 36.3217 249.925 37.2213C251.15 37.7106 257.471 40.9768 256.112 36.0541C255.339 33.2502 248.035 31.1129 245.694 30.3444C239.743 28.3919 233.469 27.003 227.132 27.3251C225.902 27.3872 216.584 27.9218 220.475 31.6451C221.816 32.9274 226.622 32.5232 228.607 33.0455ZM232.703 257.899C236.189 259.604 239.748 260.908 243.392 262.242C245.01 262.834 247.532 264.385 249.317 263.995C250.78 263.675 251.249 261.462 252.017 259.979C254.826 254.558 258.18 250.184 262.34 245.713C260.408 244.313 250.605 250.489 248.179 251.401C245.751 252.314 243.46 253.233 241.083 254.324C238.845 255.351 234.43 256.268 232.703 257.899ZM294.426 211.682C299.506 209.397 304.322 205.344 308.489 201.716C313.273 197.55 317.562 193.183 321.064 187.792C318.956 187.899 314.303 194.638 314.251 187.301C314.225 183.558 319.384 179.872 320.986 176.401C317.002 174.165 313.351 187.524 308.78 184.286C304.377 181.165 311.325 170.438 312.663 167.053C310.08 165.345 295.365 184.465 293.235 186.912C291.903 188.443 288.753 190.482 288.001 192.268C287.553 193.332 287.489 196.706 287.706 197.684C288.156 199.73 290.439 202.18 291.455 204.084C292.742 206.495 293.862 209.001 294.426 211.682ZM504.458 280.617C500.065 274.452 504.603 271.764 508.175 266.647C511.033 262.554 513.661 258.043 515.472 253.472C520.002 242.041 524.089 231.413 526.326 219.32C523.247 220.717 521.322 226.034 519.782 228.836C517.711 232.602 515.89 236.555 513.588 240.205C509.281 247.033 505.052 254.318 499.573 260.237C497.091 262.919 494.989 265.937 492.125 268.354C490.816 269.458 488.313 270.364 487.349 271.745C486.439 273.048 487.457 273.881 487.112 275.439C486.757 277.036 485.131 278.739 484.434 280.277C483.517 282.298 482.664 284.323 481.642 286.298C480.526 288.452 480.222 289.579 479.921 291.685C479.593 293.987 480.6 294.226 478.578 296.347C482.243 297.954 485.908 299.56 489.572 301.166C490.809 301.709 492.046 302.25 493.283 302.793C493.544 302.307 493.804 301.821 494.065 301.335C495.072 300.363 495.998 297.965 496.575 296.681C498.982 291.321 501.702 285.939 504.458 280.617ZM150.555 254.739C140.148 281.973 176.716 304.904 199.226 309.976C202.344 310.678 205.387 311.598 208.491 312.352C211.874 313.174 214.88 313.011 218.257 313.355C220.945 313.628 222.226 315.692 224.758 316.261C228.99 317.211 228.731 314.05 229.034 310.663C230.318 296.301 237.692 282.444 245.496 270.459C241.931 269.192 238.399 267.808 234.88 266.42C231.869 265.232 227.258 261.892 224.02 261.715C221.626 261.585 217.978 263.618 215.652 264.509C211.78 265.995 207.896 267.261 203.86 268.273C196.801 270.045 188.948 272.459 181.644 272.643C179.539 272.695 173.763 273.67 172.248 272.377C169.359 269.91 173.369 267.854 175.788 266.974C190.202 261.727 205.508 259.496 219.963 254.116C227.402 251.347 234.764 248.255 242.25 245.528C248.702 243.177 255.461 241.095 261.696 238.203C269.931 234.385 278.202 229.629 285.332 224.025C286.76 222.904 289.75 221.239 290.729 219.614C291.59 218.184 291.482 219.61 291.304 217.876C291.175 216.63 289.642 214.942 289.011 213.765C286.661 209.376 284.537 204.869 282.752 200.225C271.377 205.075 260.555 211.677 249.347 216.86C238.067 222.077 225.342 225.758 213.274 228.693C208.138 229.942 202.233 230.337 197.522 232.806C195.521 233.854 193.542 235.068 191.398 235.674C190.765 236.882 190.142 237.118 189.528 236.384C189.143 235.955 188.646 235.774 188.036 235.84C186.725 236.061 185.387 236.677 184.161 237.149C177.954 239.541 172.011 242.537 166.119 245.593C163.326 247.04 160.461 248.466 157.788 250.12C156.356 251.006 155.072 251.901 153.9 253.118C152.494 254.577 152.829 255.776 150.555 254.739ZM384.717 93.0366C387.347 93.0789 389.744 91.6631 392.486 91.7417C396.799 91.8657 400.212 95.1894 402.715 98.3945C407.668 104.737 406.405 112.387 403.917 119.484C402.726 122.876 401.092 126.132 399.05 129.101C397.242 131.729 394.011 134.216 392.749 137.143C390.668 141.969 394.866 139.917 397.436 138.886C400.668 137.589 403.698 135.976 406.441 133.804C418.667 124.125 427.968 110.671 431.084 95.2189C432.604 87.6802 432.486 78.867 427.203 72.7139C422.374 67.0876 414.037 65.2492 406.909 66.2924C399.205 67.421 392.224 70.6646 385.95 74.8402C384.128 76.0535 382.46 77.3778 380.749 78.7347C378.504 80.5149 377.159 80.5617 377.721 83.3518C378.138 85.426 379.274 87.5751 380.007 89.5654C381.377 93.2936 380.877 94.2581 384.717 93.0366ZM393.101 157.306L392.569 158.209C396.237 158.383 399.654 155.167 402.78 153.596C406.84 151.555 410.445 148.771 414.003 145.96C420.277 141.001 426.634 135.413 431.304 128.903C441.774 114.31 451.284 95.8098 448.427 77.3083C445.348 57.368 427.803 49.6923 409.108 52.332C400.683 53.5215 393.161 57.2606 385.621 61.0565C381.821 62.9703 378.613 65.4527 375.132 67.8557C373.325 69.1034 371.676 69.2652 371.558 71.4467C371.469 73.0906 374.328 76.8078 375.101 78.2974C384.568 68.6973 394.77 60.7555 409.066 60.2648C426.074 59.681 436.132 75.7121 436.057 91.0634C435.984 106.118 429.452 120.6 419.039 131.42C414.307 136.337 409.795 140.283 403.984 143.871C401.088 145.66 398.951 147.266 395.712 148.454C393.421 149.295 393.66 148.852 393.076 150.96C392.579 152.749 393.086 155.448 393.101 157.306ZM300.684 361.846C300.462 364.56 299.908 367.23 299.29 369.877C299.068 370.827 297.82 373.827 298.039 374.895C298.401 376.661 297.919 375.526 299.476 376.447C301.099 377.409 302.989 377.351 304.767 377.643C305.864 377.823 309.885 379.704 310.561 379.407C311.743 378.888 311.705 377.057 313.002 376.331C314.769 375.342 317.373 376.189 319.041 376.963C323.497 379.03 326.559 383.308 330.872 385.649C338.53 389.807 347.617 392.109 356.161 393.058C360.79 393.573 365.526 394.476 370.097 393.398C373.699 392.548 378.38 392.626 380.338 388.785C362.939 384.029 336.384 378.208 329.504 358.36C325.765 361.731 319.515 359.916 314.996 359.45C310.024 358.939 305.581 359.057 301.035 356.805C300.702 358.576 300.6 360.045 300.684 361.846ZM146.638 238.919C154.829 239.411 162.593 235.558 167.633 229.057C168.874 227.456 170.146 225.822 170.891 223.925C171.053 223.444 171.213 222.963 171.375 222.483C172.157 221.155 171.815 220.529 170.348 220.603C169.523 219.477 167.429 219.099 168.024 217.058C168.473 215.518 170.128 215.493 171.568 215.009C170.851 213.812 170.422 213.211 169.396 212.146C166.731 214.53 161.893 219.209 160.02 213.732C159.12 211.104 160.704 208.59 160.311 206.055C160.15 205.006 158.812 202.326 158.037 201.699C153.908 198.358 147.961 199.741 143.581 201.708C140.562 203.063 139.912 203.699 139.419 206.807C138.919 209.967 138.455 213.126 137.9 216.277C139.712 215.338 140.042 213.311 141.223 211.851C141.666 212.652 142.108 213.454 142.553 214.255C143.176 213.907 143.759 213.925 144.299 214.311C145.173 215.646 144.623 217.628 144.354 219.029C147.269 218.758 148.502 221.991 145.562 223.301C142.518 224.657 141.145 220.959 141.042 218.564C139.906 219.913 138.739 219.191 137.947 219.884C137.156 220.577 136.844 222.021 136.563 223.602C136.1 226.201 134.917 229.95 136.012 232.557C137.638 236.429 142.823 238.444 146.638 238.919ZM383.966 114.557C381.256 118.303 376.635 123.207 375.669 127.734C378.654 125.992 384.965 117.614 386.591 124.288C387.524 128.119 382.737 132.684 381.561 136.393C386.269 134.854 389.622 130.032 392.559 126.31C396.304 121.566 400.128 115.311 401.084 109.278C401.857 104.395 398.45 99.845 393.387 99.3666C390.801 99.1217 388.101 99.5298 385.603 100.126C384.464 100.397 382.764 100.734 381.748 101.341C380.471 102.103 380.296 103.888 379.093 102.403C377.496 105.397 375.898 108.39 374.301 111.383C375.891 110.81 379.135 108.375 380.873 108.627C383.41 108.995 383.932 112.659 383.966 114.557ZM130.226 41.2695C123.121 41.4777 115.695 42.9817 108.97 45.2173C107.299 45.773 100.253 47.7491 101.737 50.6139C102.718 52.5074 108.006 49.8317 109.604 49.3855C116.456 47.4728 123.511 46.2115 130.528 45.0604C132.228 44.7818 137.992 44.8094 138.29 42.5951C138.654 39.8934 132.232 41.2665 130.226 41.2695ZM323.585 349.421C319.734 349.889 316.037 349.714 312.182 349.245C308.938 348.85 305.635 347.53 302.407 347.53C302.407 350.965 302.173 350.986 305.818 351.721C308.362 352.234 310.943 352.523 313.514 352.88C318.041 353.51 323.067 355.276 327.65 354.368C327.539 353.772 327.188 349.747 326.713 349.349C326.446 349.126 323.974 349.425 323.585 349.421ZM261.347 95.2992C262.423 95.9812 264.898 98.7007 266.181 98.7487C265.723 95.6001 262.189 90.1181 258.132 92.0639C257.137 92.541 255.048 94.9166 255.993 95.9647C256.498 96.525 260.027 95.3028 261.347 95.2992ZM223.802 123.309C223.841 122.76 223.881 122.211 223.922 121.663C222.433 122.533 220.589 122.945 219.531 124.347C220.801 124.907 222.071 125.467 223.342 126.027C223.495 125.121 223.648 124.215 223.802 123.309ZM341.073 206.901C348.109 209.35 354.559 212.621 359.737 218.173C364.213 222.974 366.317 231.434 367.41 237.728C370.113 253.302 364.896 267.737 361.456 282.636C359.711 290.194 357.105 297.467 354.666 304.829C352.536 311.258 350.71 317.991 347.769 324.104C345.277 329.288 342.092 334.398 339.899 339.775C338.718 342.669 336.806 352.6 332.327 349.481C331.105 352.658 330.807 352.387 332.114 354.594C333.06 356.192 336.268 358.41 337.782 359.71C341.816 363.178 346.926 366.036 351.658 368.463C360.326 372.911 369.618 376.238 378.545 380.292C382.491 382.086 386.771 384.205 385.885 389.337C385.143 393.639 382.639 396.901 378.733 398.816C375.066 400.613 369.821 402.001 365.787 402.565C363.393 402.9 362.844 401.909 360.893 401.567C358.721 401.187 356.186 401.922 353.946 401.903C343.888 401.816 335.081 399.301 326.954 393.502C324.049 391.431 319.774 385.81 315.973 385.811C314.03 385.811 314.44 386.984 312.731 387.673C310.621 388.522 306.987 386.919 304.914 386.542C300.496 385.741 296.004 384.927 293.062 381.144C289.882 377.057 291.012 371.993 292.379 367.454C293.92 362.337 296.512 357.146 297.613 351.952C297.882 350.688 298.128 348.333 297.856 347.048C297.432 345.053 295.407 343.863 295.346 341.703C295.327 341.047 296.273 340.18 296.438 339.502C296.804 338.013 296.747 336.467 296.897 334.952C297.166 332.248 297.786 329.657 298.214 326.986C299.187 320.905 301.105 315.481 302.962 309.622C304.763 303.937 306.477 299.705 309.96 294.782C311.763 292.232 317.795 283.148 314.849 280.534C310.818 288.405 306.104 294.544 299.934 300.81C295.216 305.604 290.602 312.047 284.697 315.461C278.203 319.214 270.268 321.422 263.098 323.407C259.687 324.35 256.858 326.443 253.181 326.83C249.197 327.249 245.141 326.755 241.239 325.872C240.14 325.623 236.972 323.946 235.978 324.052C234.514 324.211 232.407 326.805 230.8 327.282C226.889 328.441 224.218 326.226 221.251 324.178C218.031 321.956 217.057 321.403 213.341 321.136C208.79 320.809 204.364 319.214 199.888 318.238C192.018 316.521 185.329 313.043 178.175 309.401C169.975 305.228 162.961 299.472 156.78 292.674C147.694 282.678 135.041 254.981 149.883 245.283C141.145 244.104 133.142 240.311 132.077 230.48C131.521 225.336 132.568 219.638 133.87 214.679C134.463 212.415 135.172 210.165 135.85 207.924C136.361 207.167 136.631 206.339 136.66 205.439C136.973 204.274 136.521 203.693 135.304 203.698C133.002 201.023 131.272 198.662 130.807 194.864C130.66 193.66 130.529 191.815 131.391 190.791C131.789 190.38 132.27 190.105 132.832 189.967C134.181 190.044 134.562 189.383 133.976 187.986C134.63 186.007 133.659 184.464 136.127 183.638C136.918 183.805 137.706 183.989 138.49 184.186C139.491 184.64 140.142 184.311 140.445 183.203C142.77 182.299 141.697 180.962 144.856 182.125C146.768 182.83 148.587 184.042 149.979 185.52C151.725 184.405 147.754 177.517 147.621 175.32C147.307 170.14 149.461 165.857 152.264 161.602C157.712 153.333 165.317 146.223 172.816 139.826C187.18 127.575 202.27 115.911 218.489 106.151C211.798 101.531 203.982 100.279 196.02 102.426C188.681 104.405 182.731 108 175.975 111.144C169.716 114.056 163.073 115.252 161.077 107.306C158.841 98.405 165.975 95.1007 172.374 91.1093C170.776 89.9246 165.516 90.7715 163.527 90.9116C159.095 91.223 154.858 92.2176 150.551 93.0971C148.486 93.5182 146.589 93.4235 144.543 93.8364C141.501 94.45 138.325 95.1378 135.248 96.012C127.927 98.0936 120.66 101.253 114.333 105.509C108.865 109.186 105.072 114.378 100.666 119.16C95.642 124.613 90.828 129.978 83.3795 131.974C79.8919 132.908 75.8006 133.757 73.3277 130.66C71.027 127.781 70.8989 124.311 70.9744 120.79C71.1406 113.013 74.9201 104.609 79.3164 98.2542C84.0884 91.3563 90.4797 87.4058 96.5187 81.8532C87.7902 82.4736 79.3545 87.0475 71.3274 90.2086C69.6381 90.8745 67.9328 91.6222 66.2344 92.238C64.4231 92.8948 63.2232 92.4926 61.4882 92.7933C57.528 93.4804 54.1266 95.1393 50.2746 92.4941C42.9869 87.4907 50.2883 77.3119 55.3059 74.1886C62.2947 69.839 69.4048 66.1763 77.1042 63.0736C72.9358 58.5792 76.4958 52.1653 80.3379 48.9769C85.1991 44.9423 91.3891 42.6304 97.2467 40.4707C101.879 38.7625 106.429 37.1225 111.241 36.0945C116.3 35.0143 122.215 33.3637 127.349 33.522C132.163 33.6705 136.432 32.8273 141.307 32.6925C145.364 32.5804 149.431 32.6774 153.487 32.5728C164.401 32.2925 175.355 33.0243 186.022 33.8045C177.571 9.23821 233.237 16.8248 245.113 20.0336C255.906 22.9501 268.272 26.3331 277.337 33.2531C281.178 36.1839 284.825 39.5162 288.233 42.9357C293.26 47.9807 296.044 54.5878 298.703 61.1093C305.447 57.8247 311.897 54.2454 319.277 52.6168C326.299 51.0676 333.492 48.9678 340.556 47.7974C345.926 46.9073 353.721 46.3036 358.24 50.073C363.149 54.1674 365.707 60.5389 368.637 65.9953C382.709 52.7221 398.405 43.0387 418.468 43.6826C438.101 44.3128 451.011 61.1661 453.391 79.4291C456.013 99.5526 446.996 120.581 434.772 136.164C429.291 143.153 423.619 149.903 416.242 155.117C412.583 157.701 408.724 160.533 404.712 162.551C402.712 163.557 400.525 164.466 398.425 165.24C397.477 165.589 396.502 165.94 395.516 166.177C392.701 166.856 393.248 165.95 392.201 168.399C391.352 170.387 391.457 173.808 391.093 175.991C390.678 178.485 390.431 181.014 389.824 183.474C388.773 187.739 387.678 191.899 386.361 196.064C383.869 203.946 380.514 211.89 376.406 219.08C379.89 220.584 384.77 220.736 388.494 221.192C392.524 221.685 396.56 222.721 400.746 223.885C409.135 226.217 416.63 228.185 424.607 231.675C432.888 235.299 440.269 240.71 448.243 245.017C455.575 248.977 462.987 253.937 469.797 258.691C471.417 259.822 472.42 260.806 473.71 262.238C475.03 263.702 475.45 263.988 477.026 265.256C477.737 265.827 479.805 268.71 480.616 268.816C482.07 269.008 481.847 267.929 482.988 266.423C485.371 263.28 488.695 260.844 491.061 257.621C493.035 254.933 495.093 252.212 497.202 249.9C502.307 244.307 506.537 238.107 510.167 231.402C512.056 227.911 514.045 224.589 516.096 221.294C518.138 218.014 521.769 213.685 525.836 213.879C525.509 212.209 524.47 211.931 526.263 210.909C527.418 210.251 529.666 211.312 530.556 211.98C532.912 213.749 533.016 217.182 532.868 219.761C532.485 226.407 531.086 232.967 529.136 239.25C526.793 246.804 523.856 253.469 520.65 260.678C518.098 266.422 514.929 274.017 508.578 276.638C512.843 282.691 510.795 287.624 507.945 294.051C505.861 298.749 503.109 303.604 498.918 306.713C494.193 310.218 489.069 307.245 484.128 304.928C481.143 303.528 472.017 300.226 473.873 295.92C471.593 295.617 470.159 293.971 468.084 293.465C465.887 292.928 466.264 293.815 463.94 294.148C462.158 294.402 459.492 292.816 457.814 292.248C455.011 291.3 452.217 290.328 449.417 289.37C441.539 286.673 433.793 284.017 425.837 281.856C411.034 277.835 396.047 275.554 381.296 271.963C378.339 271.243 375.399 270.549 372.32 269.972C371.684 269.853 368.385 269.671 367.984 268.994C367.282 267.809 369.44 261.175 369.626 259.822C370.841 250.947 370.444 241.231 368.731 232.457C368.02 228.81 364.843 224.086 364.87 220.526C364.889 218.138 367.018 215.529 368.269 213.366C371.361 208.016 374.6 202.237 376.891 196.67C380.398 188.154 382.546 178.541 384.095 169.419C384.902 164.664 385.841 159.509 386.06 154.699C386.228 151.033 385.925 147.187 386.46 143.432C384.419 143.624 381.531 144.676 379.692 143.55C377.37 142.13 376.746 138.075 377.043 135.653C369.093 137.032 369.356 129.537 369.849 123.677C355.48 123.677 373.882 102.452 376.181 97.8937C377.237 95.7984 377.206 98.152 376.739 94.9113C376.534 93.4864 375.555 91.9077 375.001 90.598C373.793 87.7384 372.487 84.9227 371.093 82.1486C368.147 76.2892 364.809 70.6275 361.167 65.1688C357.888 67.4399 354.933 70.1283 352.195 73.013C353.951 68.4466 359.318 62.7895 357.022 57.6043C354.895 52.7978 347.789 53.1311 343.593 54.0098C332.19 56.3998 321.254 59.8806 310.391 63.9106C313.756 65.8286 318.908 64.3469 322.251 62.8804C326.391 61.0639 330.843 59.1579 335.305 58.1959C339.196 57.3566 344.307 57.6429 343.183 62.8531C342.271 67.0748 338.117 71.1404 335.376 74.2969C329.337 81.2517 321.765 86.6354 314.328 92.0146C306.332 97.7975 298.629 104.08 290.532 109.695C275.896 119.846 260.16 128.668 245.039 138.143C237.181 143.066 228.277 147.028 219.756 150.677C210.382 154.691 201.394 158.988 191.669 162.159C186.268 163.92 180.915 165.369 175.608 167.373C172.281 168.628 166.488 171.143 164.29 167.416C159.826 159.844 175.98 149.887 180.407 145.258C183.461 148.206 168.402 159.192 169.58 163.485C170.506 166.858 174.088 162.502 175.818 161.583C178.613 160.097 181.924 159.35 184.733 157.654C190.496 154.177 197.327 150.166 198.643 142.977C197.728 142.017 197.739 141.131 198.677 140.318C199.095 139.824 199.427 139.281 199.671 138.69C200.081 137.56 200.246 136.145 200.465 134.948C201.114 131.407 199.485 128.092 201.007 124.627C192.127 131.316 183.591 138.872 175.161 146.113C167.6 152.608 159.71 161.112 156.931 170.804C156.575 172.046 155.983 173.455 156.048 174.765C156.175 177.338 156.433 176.783 158.518 177.61C160.604 178.438 163.64 178.366 165.883 178.454C167.161 178.504 172.87 177.158 171.735 179.947C171.081 181.554 167.123 181.493 165.706 181.642C162.15 182.015 160.221 181.632 161.906 185.464C162.661 187.182 164.191 188.345 165.392 189.675C168.732 193.373 170.547 199.045 173.174 203.39C176.169 208.34 179.46 213.047 182.956 217.657C184.399 219.559 186.328 223.134 188.328 224.492C190.196 225.759 187.998 225.654 191.101 225.139C192.453 224.916 193.679 224.041 194.973 223.728C202.707 221.855 210.657 219.744 218.656 217.432C228.887 214.474 239.624 211.953 249.386 207.694C258.13 203.877 266.81 199.335 275.646 195.47C278.226 194.342 280.803 193.594 282.809 191.518C285.23 189.013 287.234 185.733 289.467 183.04C293.264 178.459 296.764 173.799 300.851 169.458C303.894 166.228 309.286 160.223 313.578 158.934C321.734 156.485 317.368 168.834 316.314 171.955C318.231 172.387 319.239 169.943 321.49 170.646C324.184 171.488 324.463 175.05 324.799 177.282C324.889 177.876 324.079 178.988 324.325 179.518C324.409 179.699 326.167 180.732 326.506 181.211C327.737 182.951 327.495 185.067 327.028 186.943C324.615 196.662 316.036 203.759 309.726 210.928C312.549 210.397 314.642 208.798 317.306 208.006C319.807 207.262 322.321 207.301 324.842 207.088C327.481 206.864 330.017 205.883 332.717 205.833C335.55 205.78 338.263 206.582 341.073 206.901Z" fill="black"/>
<path fill-rule="evenodd" clip-rule="evenodd" d="M42.6641 119.48C41.1082 120.491 40.6696 121.483 40.6159 123.816C40.5944 124.772 40.6608 128.341 42.0056 128.206C43.2676 128.08 42.6641 120.707 42.6641 119.48ZM34.6267 125.293C35.3517 117.817 38.1027 110.217 44.5744 105.56C46.1749 104.408 47.9855 104.449 49.7396 103.722C50.7938 103.285 52.4593 101.256 53.6561 101.496C58.0618 102.382 52.9719 108.201 52.2265 109.732C49.9167 114.475 50.0727 118.642 50.1416 123.758C50.1942 127.646 51.0069 134.202 49.0349 137.721C46.9328 141.468 42.3736 139.035 39.8286 136.817C36.6167 134.017 34.1909 129.558 34.6267 125.293Z" fill="black"/>
<path fill-rule="evenodd" clip-rule="evenodd" d="M111.966 147.382C111.966 151.553 115.372 148.729 115.25 145.762C115.072 141.394 111.808 144.084 111.966 147.382ZM130.072 124.323C126.344 127.655 123.469 129.525 122.751 134.649C122.207 138.53 122.748 142.375 122.771 146.284C122.81 152.837 117.486 159.727 111.757 152.215C107.579 146.736 109.078 138.12 112.485 132.613C114.273 129.724 116.826 126.866 119.775 125.065C121.993 123.71 128.232 121.044 130.072 124.323Z" fill="black"/>
<path fill-rule="evenodd" clip-rule="evenodd" d="M78.0168 225.322C77.5845 226.338 76.5701 230.488 78.6398 229.549C80.4672 228.72 79.2833 225.969 78.0168 225.322ZM67.08 212.51C66.7604 210.95 66.8906 201.168 69.6011 201.901C71.7301 202.476 72.0819 207.483 72.9492 209.226C76.179 215.716 83.592 219.757 86.1483 226.455C89.0017 233.935 80.3749 234.167 75.7973 231.138C70.3771 227.551 67.2409 218.769 67.08 212.51Z" fill="black"/>
<path fill-rule="evenodd" clip-rule="evenodd" d="M60.4352 172.401C61.6115 170.822 61.7305 169.979 61.0599 168.582C60.2027 169.509 60.355 170.833 60.4352 172.401ZM61.2864 179.464C55.1541 180.146 54.8471 168.912 55.8974 165.055C56.7336 161.983 58.5317 158.682 60.3825 156.179C60.7564 155.674 64.302 151.135 64.997 151.124C67.664 151.082 66.9311 154.078 66.6434 155.193C65.7373 158.706 65.3783 161.643 65.6221 165.539C65.8837 169.707 67.8691 179.602 61.2864 179.464Z" fill="black"/>
<path fill-rule="evenodd" clip-rule="evenodd" d="M339.725 82.1731C330.956 89.4832 322.631 97.3972 313.097 103.791C308.431 106.921 303.554 109.689 298.898 112.869C296.527 114.489 294.107 115.939 291.477 117.13C289.153 118.182 287.634 118.318 289.562 115.822C290.851 114.154 293.739 112.992 295.495 111.806C298.197 109.981 300.748 107.955 303.59 106.335C308.6 103.478 313.579 101.172 318.197 97.6677C322.296 94.5589 326.525 91.5229 330.437 88.2187C332.114 86.8018 337.677 80.2964 339.725 82.1731Z" fill="black"/>
<path fill-rule="evenodd" clip-rule="evenodd" d="M339.902 108.569C343.845 111.922 333.979 121.109 331.729 123.191C329.356 125.386 326.743 127.345 324.163 129.29C323.254 129.975 318.298 134.56 317.041 134.19C314.559 133.459 317.817 130.485 318.664 129.709C321.405 127.198 324.204 124.76 326.883 122.181C329.299 119.857 331.916 117.704 334.253 115.305C336.146 113.361 337.737 110.067 339.902 108.569Z" fill="black"/>
<path fill-rule="evenodd" clip-rule="evenodd" d="M47.7478 243.738C46.7182 241.366 44.8743 243.999 45.8091 245.184C46.6932 246.305 47.6161 244.193 47.7478 243.738ZM41.7107 239.055C42.2626 235.568 43.5383 233.629 46.8293 236.606C49.0908 238.652 53.639 244.468 53.2074 247.639C52.6409 251.798 48.0329 250.617 45.6441 248.443C43.1956 246.214 42.1147 242.147 41.7107 239.055Z" fill="black"/>
<path fill-rule="evenodd" clip-rule="evenodd" d="M48.9225 307.689C44.8909 307.384 41.4514 304.308 39.7393 300.702C38.2988 297.669 36.9354 292.782 41.9962 294.376C45.2945 295.415 58.0095 308.178 48.9225 307.689Z" fill="black"/>
<path fill-rule="evenodd" clip-rule="evenodd" d="M97.7812 287.921C94.6659 288.626 91.5838 286.586 89.668 284.286C88.476 282.854 85.7014 277.832 87.0993 275.764C89.0478 272.881 91.9897 278.676 93.0044 279.824C94.5962 281.62 99.8008 285.056 97.7812 287.921Z" fill="black"/>
<path fill-rule="evenodd" clip-rule="evenodd" d="M100.587 209.5C98.1453 208.374 95.8779 207.017 94.8959 204.326C94.2712 202.612 93.7467 197.474 96.5202 197.497C99.7284 197.526 107.075 208.985 100.587 209.5Z" fill="black"/>
<path fill-rule="evenodd" clip-rule="evenodd" d="M83.4652 156.035C86.7353 155.977 87.5094 157.769 87.9642 160.345C88.2729 162.093 89.7709 168.027 88.2151 169.243C85.9925 170.98 82.4567 167 81.7419 165.437C80.2687 162.221 82.3056 159.057 83.4652 156.035Z" fill="black"/>
<path fill-rule="evenodd" clip-rule="evenodd" d="M139.654 333.966C141.246 334.686 144.868 336.283 143.484 338.761C142.037 341.352 137.882 338.834 136.33 337.702C135.68 337.227 131.551 334.124 131.724 333.084C132.088 330.872 137.779 333.758 139.654 333.966Z" fill="black"/>
<path fill-rule="evenodd" clip-rule="evenodd" d="M34.7553 172.132C35.8433 174.841 37.068 184.145 31.3387 179.121C29.5903 177.587 29.3264 175.672 29.9288 173.567C30.7999 170.516 32.0675 171.121 34.7553 172.132Z" fill="black"/>
<path fill-rule="evenodd" clip-rule="evenodd" d="M338.373 137.484C337.104 134.908 340.237 133.246 341.91 131.585C343.003 130.5 347.599 124.617 349.105 124.95C352.204 125.634 339.897 136.335 338.373 137.484Z" fill="black"/>
<path fill-rule="evenodd" clip-rule="evenodd" d="M83.424 324.117C86.4135 323.64 87.1109 326.941 89.037 328.38C89.8629 328.997 92.6983 329.54 92.1279 330.85C90.6294 334.291 83.2775 326.43 83.424 324.117Z" fill="black"/>
<path fill-rule="evenodd" clip-rule="evenodd" d="M108.668 246.158C110.723 245.303 116.653 249.896 114.951 251.88C112.405 254.849 108.813 247.782 108.668 246.158Z" fill="black"/>
<path fill-rule="evenodd" clip-rule="evenodd" d="M151.98 312.605C150.482 312.753 144.161 310.778 146.503 308.134C148.147 306.277 152.517 310.924 151.98 312.605Z" fill="black"/>
<path fill-rule="evenodd" clip-rule="evenodd" d="M76.2871 299.917C74.8001 300.508 69.437 299.292 71.1233 296.977C72.7295 294.772 76.2893 298.087 76.2871 299.917Z" fill="black"/>
<path fill-rule="evenodd" clip-rule="evenodd" d="M120.193 309.905C121.932 309.726 123.188 310.768 123.486 312.533C121.312 312.841 120.641 312.327 120.193 309.905Z" fill="black"/>
<path fill-rule="evenodd" clip-rule="evenodd" d="M346.311 53.7337C347.045 53.7369 347.778 53.7405 348.506 53.7436C347.771 53.74 347.041 53.7369 346.311 53.7337Z" fill="black"/>
<path fill-rule="evenodd" clip-rule="evenodd" d="M334.785 205.679C333.687 205.68 332.589 205.682 331.492 205.683C332.59 205.681 333.688 205.68 334.785 205.679Z" fill="black"/>
<path fill-rule="evenodd" clip-rule="evenodd" d="M185.031 27.8242C184.981 28.9166 184.93 30.009 184.879 31.0977C184.928 30.0043 184.98 28.9138 185.031 27.8242Z" fill="black"/>
<path fill-rule="evenodd" clip-rule="evenodd" d="M525.122 213.319C525.472 214.533 524.959 214.734 523.582 213.922C524.095 213.721 524.608 213.52 525.122 213.319Z" fill="black"/>
<path fill-rule="evenodd" clip-rule="evenodd" d="M493.945 308.516C494.496 308.519 495.047 308.523 495.592 308.526C495.039 308.523 494.492 308.519 493.945 308.516Z" fill="black"/>
<path fill-rule="evenodd" clip-rule="evenodd" d="M389.668 220.698C388.748 221.395 387.832 221.493 386.924 220.661C387.839 220.674 388.753 220.686 389.668 220.698Z" fill="black"/>
<path fill-rule="evenodd" clip-rule="evenodd" d="M369.122 127.664C369.099 128.575 369.076 129.485 369.052 130.392C369.075 129.48 369.099 128.572 369.122 127.664Z" fill="black"/>
<path fill-rule="evenodd" clip-rule="evenodd" d="M416.561 43.482C415.646 43.4814 414.73 43.4803 413.816 43.4793C414.732 43.1388 415.647 43.2507 416.561 43.482Z" fill="black"/>
<path fill-rule="evenodd" clip-rule="evenodd" d="M148.184 32.3814C147.269 32.4349 146.354 32.4883 145.439 32.5418C146.354 32.4883 147.269 32.4349 148.184 32.3814Z" fill="black"/>
<path fill-rule="evenodd" clip-rule="evenodd" d="M170.686 32.5543C169.954 32.4927 169.221 32.4305 168.49 32.3688C169.221 32.4305 169.953 32.4927 170.686 32.5543Z" fill="black"/>
<path fill-rule="evenodd" clip-rule="evenodd" d="M182.76 33.419C182.028 33.6901 181.297 33.8505 180.564 33.4228C181.297 33.4217 182.028 33.4201 182.76 33.419Z" fill="black"/>
<path fill-rule="evenodd" clip-rule="evenodd" d="M117.449 34.9128C116.534 35.0978 115.619 35.2827 114.705 35.4661C115.62 35.2827 116.535 35.0978 117.449 34.9128Z" fill="black"/>
<path fill-rule="evenodd" clip-rule="evenodd" d="M369.673 256.965C369.648 257.512 369.623 258.058 369.598 258.602C369.624 258.054 369.648 257.51 369.673 256.965Z" fill="black"/>
<path fill-rule="evenodd" clip-rule="evenodd" d="M67.2158 212.773C67.2268 213.138 67.2372 213.502 67.2471 213.865C67.2356 213.499 67.2262 213.137 67.2158 212.773Z" fill="black"/>
<path fill-rule="evenodd" clip-rule="evenodd" d="M528.521 210.816L525.777 210.83C526.69 210.153 527.605 210.239 528.521 210.816Z" fill="black"/>
<path fill-rule="evenodd" clip-rule="evenodd" d="M340.822 206.952C340.09 206.832 339.358 206.712 338.627 206.592C339.358 206.712 340.09 206.832 340.822 206.952Z" fill="black"/>
<path fill-rule="evenodd" clip-rule="evenodd" d="M139.951 333.884C139.036 333.707 138.122 333.529 137.207 333.352L139.951 333.884Z" fill="black"/>
<path fill-rule="evenodd" clip-rule="evenodd" d="M324.657 177.311C324.64 176.765 324.623 176.219 324.607 175.674C324.623 176.221 324.64 176.766 324.657 177.311Z" fill="black"/>
<path fill-rule="evenodd" clip-rule="evenodd" d="M150.928 32.5622C150.379 32.4951 149.83 32.428 149.281 32.3609C149.83 32.428 150.379 32.4951 150.928 32.5622Z" fill="black"/>
<path fill-rule="evenodd" clip-rule="evenodd" d="M240.936 19.0702C240.387 18.9049 239.837 18.7396 239.289 18.5743C239.838 18.7396 240.387 18.9049 240.936 19.0702Z" fill="black"/>
<path fill-rule="evenodd" clip-rule="evenodd" d="M306.246 387.051C306.613 387.073 306.981 387.096 307.344 387.118C306.975 387.095 306.61 387.073 306.246 387.051Z" fill="black"/>
<path fill-rule="evenodd" clip-rule="evenodd" d="M54.334 94.0895C54.885 94.104 55.4359 94.119 55.9805 94.134C55.4267 94.119 54.8804 94.104 54.334 94.0895Z" fill="black"/>
<path fill-rule="evenodd" clip-rule="evenodd" d="M422.598 44.0146C421.683 43.9508 420.768 43.887 419.854 43.8226C420.769 43.887 421.683 43.9508 422.598 44.0146Z" fill="black"/>
<path fill-rule="evenodd" clip-rule="evenodd" d="M133.365 41.4603C132.082 41.4623 130.8 41.4644 129.523 41.4665C130.81 41.4644 132.087 41.4623 133.365 41.4603Z" fill="black"/>
<path fill-rule="evenodd" clip-rule="evenodd" d="M392.66 153.852C392.677 154.762 392.695 155.673 392.713 156.579C392.696 155.668 392.68 154.76 392.66 153.852Z" fill="black"/>
<path fill-rule="evenodd" clip-rule="evenodd" d="M325.455 349.184C324.721 349.173 323.988 349.161 323.26 349.149C323.995 349.159 324.725 349.172 325.455 349.184Z" fill="black"/>
<path fill-rule="evenodd" clip-rule="evenodd" d="M403.389 60.1188C404.486 59.9976 405.583 59.8765 406.682 59.7554C405.628 60.6818 404.49 60.0653 403.389 60.1188Z" fill="black"/>
<path fill-rule="evenodd" clip-rule="evenodd" d="M319.418 349.47C318.867 349.449 318.317 349.429 317.771 349.409C318.324 349.43 318.871 349.45 319.418 349.47Z" fill="black"/>
<path fill-rule="evenodd" clip-rule="evenodd" d="M300.442 358.987C300.469 359.898 300.497 360.808 300.525 361.715C300.498 360.802 300.47 359.895 300.442 358.987Z" fill="black"/>
<path fill-rule="evenodd" clip-rule="evenodd" d="M384.18 93.619C384.912 93.5513 385.644 93.4837 386.375 93.4166C385.707 93.9283 384.923 93.6288 384.18 93.619Z" fill="black"/>
<path fill-rule="evenodd" clip-rule="evenodd" d="M144.342 238.761C145.074 238.895 145.806 239.028 146.537 239.161C145.805 239.028 145.074 238.895 144.342 238.761Z" fill="black"/>
<path fill-rule="evenodd" clip-rule="evenodd" d="M258.498 95.2048C259.411 94.4311 260.326 94.5152 261.242 95.196C260.327 95.1982 259.413 95.2015 258.498 95.2048Z" fill="black"/>
<path fill-rule="evenodd" clip-rule="evenodd" d="M224.156 122.754C224.183 122.39 224.208 122.026 224.236 121.663C224.211 122.027 224.184 122.391 224.156 122.754Z" fill="black"/>
<path fill-rule="evenodd" clip-rule="evenodd" d="M383.894 112.388C383.901 113.117 383.908 113.845 383.916 114.57C383.909 113.84 383.902 113.114 383.894 112.388Z" fill="black"/>
<path fill-rule="evenodd" clip-rule="evenodd" d="M141.754 226.43C142.958 226.836 145.38 228.062 146.783 227.899C147.906 227.768 148.832 226.411 149.916 226.413C152.833 226.416 152.292 229.769 150.882 231.568C147.071 236.435 138.554 231.157 141.754 226.43Z" fill="black"/>
<path fill-rule="evenodd" clip-rule="evenodd" d="M153.659 208.954C157.637 209.975 155.656 218.673 152.312 219.271C148.374 219.976 147.688 212.903 148.466 210.347C150.493 211.544 149.238 215.813 151.792 214.634C153.416 213.882 153.169 210.409 153.659 208.954Z" fill="black"/>
</svg>
