<svg width="562" height="422" viewBox="0 0 562 422" fill="none" xmlns="http://www.w3.org/2000/svg">
<path fill-rule="evenodd" clip-rule="evenodd" d="M484.635 376.488C487.449 377.937 490.079 377.936 492.846 379.064C495.593 380.184 496.31 384.826 498.659 385.381C487.769 386.528 477.044 388.958 466.023 387.75C466.977 383.856 465.263 379.871 467.559 376.218C473.697 370.404 477.687 372.908 484.635 376.488ZM438.651 108.886C438.793 111.623 438.996 112.711 440.936 114.477C442.457 115.861 443.313 113.798 443.457 116.5C443.54 118.059 441.922 118.842 441.296 120.102C438.174 126.379 440.329 134.486 441.863 140.74C444.974 153.419 452.572 167.205 447.218 180.092C446.679 181.392 446.245 184.209 445.202 185.204C443.827 184.476 442.824 184.795 442.19 186.157C441.81 186.585 441.431 187.012 441.051 187.439C438.645 189.667 436.084 190.495 432.89 189.311C426.452 186.924 425.387 179.437 425.353 173.543C425.315 167.046 426.697 160.243 428.175 153.914C428.887 150.866 429.982 147.329 427.943 144.454C426.016 141.738 423.637 143.269 421.74 142.057C419.721 140.767 422.629 131.285 420.639 128.77C417.166 124.38 415.956 135.12 415.9 137.314C415.84 139.716 415.97 142.52 417.101 144.698C417.99 146.409 420.882 147.911 421.378 149.638C421.842 151.253 419.807 155.446 419.492 157.179C419.008 159.848 418.84 162.575 418.701 165.281C418.232 174.421 419.664 184.04 425.948 191.133C428.703 194.243 433.373 197.775 437.742 197.209C441.598 196.709 445.473 194.624 449.07 193.208C451.488 202.51 455.122 211.52 458.993 220.305C462.357 227.941 465.52 235.763 469.054 243.306C476.503 259.205 488.594 272.749 498.041 287.45C507.161 301.642 512.276 317.929 513.502 334.684C513.792 338.646 512.636 344.068 513.558 347.772C514.423 351.246 515.181 352.754 514.615 356.541C513.986 360.75 512.768 364.632 513.291 368.915C513.756 372.714 515.564 378.376 513.588 381.896C511.213 379.362 508.844 378.17 507.404 374.791C505.941 371.363 506.517 368.545 503.202 367.038C500.37 365.751 498.339 366.031 495.84 363.924C492.804 361.364 490.736 358.235 489.24 354.57C486.688 348.316 486.318 341.536 488.476 335.113C490.207 329.963 495.261 320.323 502.347 323.774C501.294 321.609 500.594 319.257 498.586 317.85C496.837 316.626 494.222 316.227 492.27 314.834C490.086 313.277 487.615 311.615 485.178 310.477C484.232 310.035 483.337 309.813 482.36 309.511C481.187 309.149 478.964 309.409 478.819 309.387C474.634 308.753 469.966 306.736 467.411 303.696C465.487 301.408 463.787 299.273 462.318 296.654C460.411 293.256 459.678 293.462 456.02 292.655C450.704 291.483 447.331 290.683 443.078 286.734C438.362 282.355 434.911 276.898 431.46 271.524C429.438 268.376 427.661 268.184 424.366 266.926C422.45 266.196 419.797 262.924 418.053 262.682C417.549 262.611 415.138 263.71 414.322 263.842C412.865 264.078 411.599 264.036 410.139 263.882C406.788 263.53 403.825 262.641 401.573 260.016C394.634 251.932 392.518 232.874 402.018 225.996C403.828 224.686 406.35 224.083 407.418 221.906C408.643 219.409 408.085 214.704 407.987 212.071C407.875 209.066 407.734 205.796 407.286 202.833C407.08 201.472 406.926 200.899 406.371 199.536C405.27 196.833 404.947 197.226 402.68 196.576C399.446 195.65 397.983 196.014 396 192.94C394.419 190.488 393.679 187.4 393.535 184.501C393.401 181.796 394.619 179.296 393.602 176.847C392.112 173.262 389.351 170.549 388.139 166.626C387.119 163.321 384.483 155.947 387.081 152.898C388.245 151.532 390.313 151.332 391.467 149.504C393.478 146.321 394.29 144.58 397.275 142.071C399.477 140.22 401.591 137.462 404.245 136.33C406.856 135.217 409.319 137.009 411.438 136.517C413.748 135.981 413.141 130.618 413.782 128.202C414.646 124.945 416.5 121.55 418.745 119.009C419.495 118.16 420.429 117.997 421.013 116.868C421.804 115.34 421.49 113.162 422.106 111.491C422.842 109.494 424.629 106.057 426.626 104.962C432.461 101.764 434.213 110.005 438.651 108.886ZM424.998 345.367C425.821 347.587 425.366 351.156 426.313 353.068C427.068 354.59 430.098 355.556 431.584 357.372C434.765 361.261 435.977 367.507 434.822 372.308C430.929 371.346 428.326 370.731 424.368 371.238C423.968 362.536 424.342 354.066 424.998 345.367ZM376.884 351.925C379.533 354.883 380.847 358.368 380.464 362.321C380.328 363.728 379.898 365.7 379.484 367.052C379.029 368.536 376.768 371.313 377.646 372.108C375.175 371.961 372.272 372.248 370.491 370.648C368.893 369.213 367.775 365.512 367.126 363.551C368.374 361.058 369.622 358.565 370.87 356.072C371.682 357.363 374.067 360.732 376.037 359.654C377.521 358.842 376.323 353.566 376.884 351.925ZM469.846 328.876C472.877 331.696 473.913 336.78 473.759 340.726C473.809 346.166 471.928 357.053 464.865 357.418C459.189 357.711 453.135 349.573 452.497 344.542C451.797 339.027 453.619 325.839 460.84 324.705C463.498 324.288 467.93 327.093 469.846 328.876ZM419.111 335.909C419.232 339.474 419.292 342.905 419.009 346.458C418.774 349.429 419.559 352.938 418.895 355.782C414.696 351.079 409.164 345.957 409.332 339.044C409.49 332.508 414.898 333.064 419.111 335.909ZM376.79 257.33L380.305 261.188C380.406 266.607 380.299 271.966 381.947 277.191C383.681 282.69 386.587 287.989 389.464 292.961C395.057 302.624 396.39 311.738 397.064 322.789C386.546 318.072 380.811 301.951 377.34 291.867C375.503 286.529 373.597 281.186 371.864 275.814C370.155 270.516 367.134 263.594 369.123 258.014C372.944 260.826 374.596 262.276 376.79 257.33ZM442.331 295.368C447.466 299.458 447.855 305.715 449.698 311.433C448.635 312.283 447.468 313.032 446.507 314.001C445.915 314.6 444.517 317.051 444.061 317.302C442.242 318.31 440.652 317.017 438.875 315.392C435.375 312.193 433.191 305.402 433.355 300.706C433.547 295.222 437.42 291.458 442.331 295.368ZM514.187 271.339C520.862 275.168 519.121 285.761 518.288 291.736C517.766 295.481 518.924 299.291 518.843 302.854C518.753 306.875 516.669 306.042 515.336 308.538C514.179 305.51 512.056 301.867 511.573 298.693L510.806 296.685C511.456 296.424 511.801 295.97 511.841 295.324C512.114 293.786 512.11 292.217 512.195 290.649C512.549 284.169 513.038 277.73 514.187 271.339ZM412.482 278.493C411.743 281.313 411.202 286.62 407.051 284.985C403.776 283.693 402.985 278.482 402.977 275.576C402.972 273.192 403.364 268.81 406.696 268.667C410.786 268.492 412.246 275.738 412.482 278.493ZM380.885 199.97C378.124 204.397 376.208 210.938 377.512 216.18C378.881 221.686 383.141 223.018 386.929 218.967C390.056 223.896 383.646 232.673 377.916 227.987C376.677 226.974 375.845 225.036 374.314 224.405C373.058 223.888 371.945 224.591 370.663 224.299C366.719 223.402 365.23 219.523 363.681 216.268C364.106 213.615 364.557 210.985 365.13 208.357C365.435 206.961 365.753 205.566 366.062 204.17C366.587 201.798 366.424 202.094 368.141 200.918C372.672 197.819 375.788 197.666 380.885 199.97ZM383.224 202.36L386.538 209.738C384.733 209.302 382.766 214.727 381.586 215.784C381.035 211.27 382.356 206.75 383.224 202.36ZM381.388 177.158C384.384 178.422 384.98 183.899 385.086 186.549C384.262 189.338 383.493 192.906 380.011 190.942C377.687 189.63 376.691 185.312 376.612 182.953C376.512 179.995 377.622 175.569 381.388 177.158Z" fill="#60ABF0"/>
<path fill-rule="evenodd" clip-rule="evenodd" d="M358.941 113.085C357.707 113.64 360.063 117.792 360.429 118.553C361.386 120.541 362.552 124.649 364.817 123.518C362.858 120.041 360.9 116.562 358.941 113.085ZM69.1417 353.946C67.4909 353.213 65.2829 359.519 64.9888 360.799C64.1683 364.368 64.8548 366.766 67.7082 369.073C66.5271 363.973 67.942 358.893 69.1417 353.946ZM450.228 83.9394C448.175 81.2711 445.209 76.317 441.061 78.9397C439.422 79.976 438.162 83.2976 437.151 84.9202C435.565 87.4676 434.029 89.9199 432.822 92.6623C434.873 91.8183 436.082 89.9831 437.915 88.9797C439.168 88.2945 440.311 88.2286 441.518 87.7291C444.187 86.6258 447.841 85.5438 450.228 83.9394ZM115.488 346.838C116.599 351.191 117.626 355.531 118.486 359.94C119.067 362.924 121.02 367.139 120.001 370.058C122.642 369.703 125.282 369.348 127.922 368.992C125.964 364.529 124.933 359.767 124.351 354.946C123.995 351.995 124.452 351.154 122.231 349.512C120.512 348.24 117.484 347.629 115.488 346.838ZM100.884 180.224C105.96 185.312 110.4 191.111 115.795 195.851C118.599 198.315 121.473 200.709 124.349 203.085C126.789 205.099 130.669 209.54 133.844 210.156C134.236 208.534 135.164 205.875 134.915 204.21C135.842 203.251 135.554 202.55 134.053 202.108C133.134 201.4 132.226 200.682 131.326 199.95C127.797 197.001 124.458 193.797 121.114 190.643C117.789 187.507 114.714 184.227 111.828 180.685C110.308 178.819 109.419 176.949 106.926 176.4C103.964 175.749 102.978 178.061 100.884 180.224ZM202.346 369.128C202.202 371.893 208.993 373.587 211.056 373.753C216.633 374.201 220.255 371.752 222.174 366.923C226.17 356.873 232.567 348.018 235.242 337.449C236.036 334.313 236.723 332.886 233.895 331.288C232.734 330.634 229.712 329.172 228.45 330.006C227.249 330.8 226.265 334.373 225.492 335.671C224.266 337.734 222.871 339.696 221.54 341.691C215.311 351.027 209.034 360.119 202.346 369.128ZM121.755 230.715L147.827 245.64C148.914 241.882 149.414 237.964 150.433 234.177C151.159 231.485 153.025 227.683 152.907 225.319C152.731 221.791 150.002 217.107 148.812 213.744C147.329 209.553 145.846 205.361 144.363 201.17C142.355 203.092 140.043 204.435 140.018 206.94C140.004 208.372 140.958 209.266 140.405 210.888C140.017 212.026 138.367 213.537 137.57 214.382C135.243 216.855 135.316 216.979 132.869 214.666C129.165 220.016 125.46 225.365 121.755 230.715ZM150.438 300.695C150.811 297.099 151.29 293.651 152.098 290.123C152.595 287.955 154.693 283.504 154.003 281.462C153.496 279.962 150.481 278.657 149.307 277.84C145.911 275.478 142.595 272.993 139.233 270.582C136.284 268.468 133.292 266.405 130.399 264.215C127.72 262.188 125.697 259.666 122.455 258.796C119.618 258.035 116.018 258.532 113.08 258.434C109.136 258.303 105.132 258.259 101.193 258.452C87.972 259.1 73.1614 258.174 60.4423 261.866C54.431 263.611 50.5557 264.638 47.1952 270.339C43.3089 276.932 39.9885 283.783 37.1615 290.905C36.7488 291.945 35.8158 293.445 35.8505 294.581C35.9195 296.751 36.695 296.251 38.7734 297.488C41.0192 298.825 43.2206 300.412 45.366 301.918C49.0448 304.499 53.6121 307.194 57.4286 309.208C62.0207 311.63 66.6468 313.802 71.3178 316.241C74.2777 317.787 77.3412 319.051 80.2445 320.749C83.3965 322.594 86.9254 323.119 90.3232 324.559C100.844 329.019 111.027 333.141 121.351 338.229C131.429 343.195 141.622 347.392 151.933 351.773C165.259 357.434 178.453 362.671 192.351 366.586C193.369 366.873 195.508 367.884 196.513 367.838C198.662 367.739 199.149 366.167 200.44 364.395C202.976 360.914 205.42 357.366 207.846 353.807C213.109 346.088 218.255 338.282 223.921 330.849C207.865 326.364 192.978 318.088 178.863 309.595C178.262 311.285 177.784 315.031 175.858 315.596C173.476 316.297 171.745 312.992 170.678 311.473C169.667 313.992 167.938 322.488 164.705 322.302C160.237 322.045 161.025 315.004 160.469 312.211C158.006 315.488 155.151 319.257 151.804 314.217C149.484 310.723 149.742 304.59 150.438 300.695ZM336.468 260.543C334.398 259.895 332.341 259.319 330.316 258.594C329.784 257.463 328.899 257.12 327.664 257.565C326.652 257.656 325.667 257.53 324.711 257.188C320.481 256.464 315.796 255.525 311.754 254.304C308.155 253.216 304.761 252.256 301.104 251.439C298.932 250.954 289.26 248.214 287.83 249.827C287.39 250.323 288.147 256.337 288.04 257.409C287.851 259.316 287.757 262.454 286.551 264.04C286.089 264.649 284.327 265.324 283.69 265.798C281.622 267.338 279.71 269.252 277.653 270.849C273.16 274.336 268.784 277.953 264.2 281.325C260.96 283.709 257.251 284.888 253.653 286.62C256.213 287.079 261.223 284.611 263.808 283.846C267.155 282.855 270.44 281.753 273.863 280.846C280.883 278.985 288.075 276.884 295.209 274.903C299.59 273.686 304.219 272.418 308.466 270.807C310.35 270.092 311.829 268.431 313.074 270.122C314.067 271.472 312.865 273.249 312.102 274.249C307.648 280.085 295.553 281.505 289.08 283.926C281.774 286.657 274.565 289.534 267.042 291.453C258.256 293.694 248.72 295.409 240.533 299.346C233.741 302.611 226.046 303.876 218.825 305.793C212.043 307.592 204 307.953 197.591 311.008C200.359 313.197 204.456 314.339 207.683 315.811C211.633 317.613 215.625 319.256 219.532 321.165C221.195 321.978 222.935 323.186 224.618 323.861C226.754 324.719 226.48 324.267 228.687 324.092C232.121 323.822 236.754 323.204 239.544 325.707C242.908 328.727 240.776 332.035 241.27 335.729C241.609 338.261 241.782 337.855 244.591 338.242C247.176 338.598 249.759 339.013 252.309 339.566C255.458 340.249 258.681 341.396 261.747 342.384C266.503 343.916 267.02 345.719 271.977 343.741C286.095 338.108 300.696 333.478 314.904 328.147C321.448 325.692 328.02 320.956 334.18 317.398C342.083 312.833 349.229 307.895 354.58 300.295C357.019 296.831 359.562 290.979 359.05 286.678C358.592 282.833 355.75 278.558 353.918 275.25C351.578 271.028 349.518 269.39 345.939 266.585C343.45 264.635 339.606 260.517 336.468 260.543ZM179.244 293.226C179.463 295.349 178.224 304.1 179.451 305.446C181.551 307.749 186.7 305.062 188.692 304.376C195.164 302.149 202.686 302.636 209.276 300.872C215.67 299.161 221.923 296.944 228.352 295.201C231.801 294.265 235.074 292.799 238.466 291.685C242.243 290.445 246.458 289.765 249.96 287.9C249.527 286.821 234.374 289.416 232.651 289.556C226.67 290.042 221.038 289.119 215.143 288.034C202.139 285.639 189.886 279.961 177.05 276.277C177.652 282.204 194.311 283.384 192.326 290.262C191.772 292.179 184.32 295.312 181.855 294.11C176.848 291.665 182.973 288.225 185.469 287.367C181.67 285.186 178.034 282.82 174.566 280.133C170.853 277.255 169.255 273.219 167.265 269.054C163.106 260.346 153.262 255.28 145.615 249.859C137.347 243.997 128.544 239.014 120.28 233.165C118.806 232.121 118.117 232.6 117.599 230.694C117.045 228.653 119.081 226.059 120.07 224.502C122.668 220.409 125.694 216.534 129.126 213.108C124.7 210.092 119.919 207.602 115.768 204.188C111.561 200.727 108.079 196.503 104.367 192.541C98.4376 205.459 90.1273 217.44 83.6012 230.108C81.0233 235.112 79.6606 242.679 83.5809 247.528C87.7064 252.631 95.3993 250.645 101.223 250.915C107.369 251.201 112.976 251.898 119.038 253.643C121.781 254.433 124.278 254.2 126.914 255.468C130.005 256.955 133.046 258.865 135.987 260.628C141.771 264.094 147.175 268.433 152.637 272.388C154.877 274.01 167.025 283.627 157.416 282.142C157.416 291.141 155.842 300.357 155.015 309.312C157.294 306.588 158.919 303.819 160.298 300.546C161.118 298.598 161.128 293.629 163.861 294.807C167.971 296.578 164.77 309.597 164.77 313.119C165.788 311.148 166.502 309.026 167.235 306.938C167.79 305.356 168.485 300.871 169.644 299.81C173.524 296.259 174.068 305.943 174.068 307.964C175.325 304.394 175.556 300.584 175.682 296.812C175.731 295.324 175.364 293.008 175.74 291.569C176.364 289.169 176.29 289.326 178.8 288.312C178.948 289.949 179.096 291.588 179.244 293.226ZM299.111 369.167C299.418 372.212 300.595 374.416 298.596 377.155C302.461 376.878 306.266 376.538 310.137 376.636C313.245 376.715 317.894 377.427 320.794 376.094C321.975 375.551 322.377 376.485 322.985 375.448C323.561 374.462 322.206 371.191 322.043 370.379C321.262 366.484 320.881 362.489 320.171 358.57C319.683 355.877 318.251 350.579 320.052 348.034C322.7 344.289 323.867 349.565 324.556 351.907C326.829 359.625 326.698 366.954 326.698 374.884C330.121 374.884 334.618 373.387 337.919 372.484C342.473 371.238 347.336 369.958 351.748 368.332C355.909 366.798 359.573 364.56 362.204 360.958C364.173 358.263 368.536 351.615 367.452 348.636C366.123 344.983 359.786 342.471 356.402 342.069C352.012 341.548 347.512 342.431 343.019 342.802C338.21 343.199 333.544 344.271 328.785 344.787C324.164 345.288 317.962 346.831 313.472 345.674C313.355 347.523 314.9 350.009 315.438 351.891C316.143 354.359 316.772 356.85 317.345 359.351C317.958 362.03 321.752 371.658 318.301 373.582C314.251 375.842 312.317 366.167 311.813 363.808C310.61 358.185 309.576 352.567 310.835 346.913C305.665 345.98 299.429 347.366 294.097 347.734C296.083 354.74 297.365 362.077 299.111 369.167ZM76.4099 372.213C78.2078 373.014 80.6787 372.584 82.633 372.738C85.6873 372.978 88.7728 373.531 91.8473 373.432C96.5387 373.283 101.457 372.689 106.152 372.152C103.474 367.316 101.849 362.737 101.514 357.194C101.394 355.203 100.339 342.856 104.008 343.384C105.779 343.639 105.403 354.182 105.746 356.124C106.246 358.942 106.89 361.827 107.674 364.585C108.244 366.586 110.18 369.582 109.684 371.746C112.051 371.362 114.418 370.978 116.786 370.594C114.945 366.919 113.601 363.626 112.911 359.528C112.578 357.55 112.791 355.088 112.145 353.209C111.737 352.025 110.809 350.911 110.685 349.919C110.541 348.773 111.795 345.958 111.331 344.94C110.876 343.94 107.704 343.014 106.593 342.463C103.53 340.943 101.734 340.559 98.3015 341.432C91.6799 343.117 81.2472 344.313 76.3089 348.857C71.4166 353.359 69.6362 368.544 76.4099 372.213ZM365.597 152.756C367.43 152.549 369.245 152.421 371.087 152.326C368.395 148.533 365.95 144.569 363.718 140.489C362.624 138.49 361.591 136.459 360.602 134.406C359.467 132.051 359.498 130.513 357.032 130.045C353.616 129.397 349.048 130.691 345.535 130.544C342.82 130.43 336.725 127.872 334.539 128.799C336.532 132.891 334.932 139.257 335.01 143.661C335.088 148.041 334.545 152.274 333.775 156.593C338.433 156.593 344.263 154.983 348.964 154.264C354.438 153.426 360.02 153.383 365.597 152.756ZM291.655 377.595C293.449 377.365 295.155 377.293 296.966 377.293C292.886 370.67 289.805 363.264 289.77 355.372C289.766 354.34 291.006 348.408 290.596 347.915C289.795 346.955 286.479 347.713 285.57 347.804C281.854 348.176 277.723 348.148 274.224 349.488C271.81 350.413 271.783 349.854 270.823 352.699C270.255 354.381 269.847 356.303 269.836 358.072C269.813 361.648 270.952 365.827 272.424 369.045C273.826 372.11 276.04 375.396 279.086 377.042C282.595 378.939 287.54 377.81 291.655 377.595ZM328.757 131.55C328.051 128.911 328.356 129.507 326.01 129.179C325.516 129.11 320.142 129.222 319.833 129.537C319.478 129.901 319.613 135.273 319.567 135.888C319.407 137.995 319.172 140.097 318.943 142.198C318.012 150.726 316.247 158.981 314.923 167.439C318.194 165.407 322.921 168.177 325.715 165.978C327.923 164.24 327.592 158.678 327.757 156.224C328.308 148.01 328.496 139.776 328.757 131.55ZM446.861 121.591C446.567 122.064 446.273 122.537 445.979 123.01C447.121 123.743 453.807 116.286 455.293 114.952C457.274 113.176 460.407 110.803 461.3 108.206C462.338 105.188 461.317 100.423 461.066 97.3016C460.886 95.068 461.268 91.9788 459.449 90.4183C457.775 88.9825 453.651 89.0209 451.669 89.3281C445.72 90.2501 442.142 95.1482 439.139 99.8155C442.188 99.4402 452.938 94.5267 454.186 97.184C456 101.045 444.71 104.496 443.594 107.884C445.905 108.701 451.003 105.532 449.569 110.805C449.324 111.543 448.897 112.154 448.289 112.638C447.233 113.012 446.984 113.717 447.539 114.754C447.066 116.819 447.163 119.432 446.861 121.591ZM515.336 308.538C515.368 309.79 515.483 310.986 516.505 311.871C518.771 304.684 519.479 297.494 520.418 290.021C521.358 282.546 522.358 274.885 522.507 267.416C522.674 259.046 521.884 249.941 520.531 241.671C519.474 235.206 518.655 227.251 514.805 221.748C516.992 236.008 516.312 249.527 514.837 263.837C514.055 271.435 512.95 278.974 512.443 286.605C512.309 288.621 512.266 290.661 512.092 292.672C511.988 293.857 510.816 296.103 510.806 296.685C510.748 299.915 514.202 305.571 515.336 308.538ZM399.008 297.432C400.827 301.62 402.894 305.747 403.985 310.201C405.135 314.905 404.64 319.285 404.824 324.051C405.13 331.959 404.497 339.82 404.607 347.739C404.702 354.488 404.443 361.069 404.511 367.746C404.554 371.971 404.323 376.179 404.337 380.402C404.337 380.389 404.505 384.191 404.214 384.384C402.912 385.25 401.489 384.02 401.09 382.836L397.23 387.209C399.253 386.7 401.741 385.637 403.822 385.543C404.618 385.25 405.411 385.241 406.201 385.518C406.985 385.993 407.567 386.655 407.945 387.504C413.395 388.666 416.666 383.809 417.645 379.467C419.769 370.045 419.004 360.743 418.85 351.231C418.516 330.566 421.795 310.025 421.485 289.358C421.425 285.359 421.273 281.407 421.873 277.415C422.987 270 424.633 276.788 424.897 280.287C425.69 290.803 427.072 301.655 426.312 312.235C425.628 321.769 425.691 331.391 425.217 340.954C424.713 351.118 423.9 361.066 424.368 371.238C427.094 370.889 435.863 370.369 436.776 374.203C437.572 377.547 434.368 376.31 432.703 376.168C430.004 375.939 427.367 376.573 424.417 376.044C424.634 380.542 425.254 386.574 421.239 389.611C419.264 391.105 415.994 392.453 413.687 393.334C411.426 394.198 407.596 396.111 405.24 396.006C403.573 395.932 402.931 395.034 401.103 395.177C398.389 395.391 396.04 397.208 393.164 395.707C387.708 392.86 390.39 384.58 393.835 381.261C394.723 380.405 395.721 379.47 396.912 379.053C397.479 378.854 399.849 379.094 400.122 378.796C401.131 377.7 399.872 371.288 399.737 370.071C399.03 363.687 398.259 357.167 397.969 350.755C397.696 344.726 397.393 338.685 397.185 332.654C397.14 331.341 397.722 328.641 397.172 327.493C396.259 325.585 392.249 324.371 390.51 323.482C392.06 338.682 394.337 355.019 388.727 369.497C387.613 372.371 386.363 376.475 383.538 378.074C380.876 379.582 374.606 379.369 371.417 379.548C367.986 379.74 364.629 378.939 362.738 375.714C361.252 373.176 362.143 370.132 365.196 369.026C367.024 368.364 367.38 368.789 368.982 369.577C369.329 370.142 369.573 370.749 369.714 371.398H370.945C372.614 372.143 379.282 372.977 381.115 371.788C383.24 370.411 383.703 366.689 384.609 364.477C386.291 360.367 386.737 357.033 387.348 352.64C388.304 345.765 387.336 337.793 387.354 330.63C387.359 328.613 387.368 326.595 387.37 324.578C387.374 321.531 387.639 321.55 385.903 319.357C383.286 316.051 380.303 312.673 377.501 309.504C379.019 318.762 378.398 328.51 377.795 337.733C377.457 342.915 376.757 348.193 376.436 353.306C376.339 354.842 377.442 359.079 375.659 359.758C373.851 360.447 371.6 357.233 370.87 356.072C366.883 364.037 362.125 371.719 353.9 375.84C349.67 377.959 345.267 378.914 340.651 379.745C336.375 380.515 332.423 381.92 328.208 382.582C319.483 383.953 311.446 384.147 302.666 383.848C294.382 383.565 286.451 385.097 278.194 383.169C274.971 382.416 271.715 381.034 269.512 378.565C268.31 377.217 267.778 375.095 266.566 373.853C266.292 372.245 265.348 371.749 263.731 372.365C262.716 372.41 261.704 372.377 260.696 372.264C252.415 371.829 243.211 372.314 235.186 369.945C232.14 369.046 228.739 367.566 230.259 363.749C231.587 360.413 235.252 361.426 238.258 361.718C246.988 362.564 255.581 364.109 264.437 364.886C264.152 360.254 264.398 355.528 266.212 351.194C260.068 350.422 253.699 349.258 247.853 347.294C246.048 346.687 244.251 346.057 242.461 345.408C239.509 344.34 240.123 344.063 238.413 345.928C236.265 348.271 234.95 353.16 233.393 355.991C231.642 359.177 229.962 362.326 228.486 365.652C227.089 368.799 226.047 373.015 223.919 375.727C219.237 381.693 208.425 382.21 202.062 379.867C198.945 378.718 197.82 378.538 195.931 375.741C193.861 372.677 193.347 372.498 189.534 372.082C182.649 371.331 176.151 369.601 169.701 367.212C162.887 364.688 155.89 362.72 149.096 359.995C142.735 357.444 136.588 354.878 130.007 352.887C129.226 357.856 132.462 363.46 132.462 368.584C136.291 368.2 139.862 367.864 143.657 367.254C145.011 367.037 153.538 365.121 154.37 366.251C157.838 370.964 142.058 373.18 139.592 373.803C131.688 375.8 123.628 377.655 115.675 379.199C107.556 380.774 99.6423 382.343 91.4011 382.626C77.4559 383.104 58.2212 382.298 58.8869 363.954C59.1481 356.767 62.1058 348.966 67.7653 344.279C71.2866 341.362 75.6777 339.759 79.9827 338.439C81.5732 337.951 89.9522 336.811 90.2069 336.184C87.8458 334.49 83.8103 334.048 81.009 332.742C78.3385 331.497 75.5202 331.034 72.7865 329.779C67.324 327.271 62.0481 324.206 56.9973 321.106C52.9804 318.64 48.9191 315.917 45.2211 312.986C42.2826 310.657 39.4666 308.418 37.1176 305.756C35.8882 304.363 33.7121 303.129 32.7275 301.93C29.2699 297.717 32.9163 289.334 34.3888 284.429C36.5397 277.26 39.4101 269.632 43.6432 263.422C47.536 257.71 51.8762 253.863 58.8589 252.525C65.3038 251.29 71.7843 250.899 78.3758 250.552C77.2682 246.334 75.709 243.357 76.1047 238.73C76.4779 234.366 78.6787 230.03 80.4059 226.056C83.6171 218.668 86.6466 211.437 91.0383 204.635C93.4521 200.897 96.1633 197.349 98.7982 193.767C99.223 193.189 101.864 190.547 101.763 189.803C101.663 189.064 99.0106 186.812 98.6045 186.296C95.8774 182.83 93.9921 179.098 97.1945 175.388C98.8641 173.454 103.773 169.548 106.136 172.005C108.69 166.837 113.159 163.313 116.638 158.916C120.975 153.434 125.117 147.867 129.177 142.125C133.22 136.407 136.522 130.264 141.881 125.656C147.852 120.521 153.474 120.965 160.809 123.161C161.227 120.328 161.81 120.705 164.546 119.759C166.617 119.043 168.631 118.194 170.667 117.386C172.832 116.526 175.023 116.038 177.236 115.362C180.183 114.462 180.626 114.756 181.105 110.923C181.685 106.292 179.705 101.396 178.429 97.0335C177.799 94.8811 177.361 92.2019 175.943 90.754C174.661 89.4446 172.387 88.8484 170.984 87.4005C158.898 74.9268 158.707 48.2936 171.582 36.7006C174.084 34.4472 176.147 31.4158 179.262 29.8942C182.682 28.2233 187.192 26.8721 190.959 26.0847C198.723 24.4626 207.43 24.9775 213.567 30.4415C216.594 33.1362 218.439 37.4194 219.471 41.2454C220.457 44.9 220.246 51.0772 216.509 45.4291C214.153 41.8668 212.106 38.2337 208.118 36.4715C204.554 34.8973 200.201 34.0472 196.318 34.3813C187.167 35.1681 179.751 37.8584 173.417 44.6395C166.413 52.1372 166.057 64.1076 167.566 73.6416C168.897 70.8216 169.798 66.3566 173.528 65.8181C176.636 65.3692 181.537 69.343 179.868 72.7641C172.298 70.8321 170.084 82.2931 176.63 82.9833C178.612 83.1921 181.122 79.66 182.947 80.4826C186.359 82.02 181.786 87.3181 180.884 89.0627C180.405 89.3578 179.926 89.6528 179.447 89.9485C179.919 91.0463 180.395 92.1425 180.877 93.2366C181.46 94.6317 182.015 96.0301 182.528 97.4533C183.775 100.917 185.069 104.488 185.821 108.096C186.585 111.764 186.982 116.048 185.176 119.494C183.19 123.282 181.321 122.816 179.795 119.213C175.803 121.732 171.789 124.418 167.096 125.412C172.017 133.679 178.388 140.785 187.967 143.385C196.086 145.589 206.306 145.508 214.053 141.863C222.091 138.08 226.515 129.237 225.558 120.44C225.248 117.591 223.591 107.695 227.531 114.854C229.692 118.78 229.851 125.148 229.358 129.453C227.002 150.047 206.151 157.751 188.172 152.793C178.949 150.25 172.303 143.442 167.355 135.428C166.2 133.559 165.144 131.63 164.113 129.691C163.701 128.916 163.338 127.835 162.788 127.155C160.633 124.491 162.75 125.976 160.462 125.642C156.921 125.127 151.349 127.842 148.72 129.993C141.585 135.829 137.634 145.165 132.158 152.52C126.329 160.35 118.925 167.319 111.498 173.567C119.899 182.182 128.299 190.796 136.7 199.411C138.436 197.488 141.735 193.092 142.196 190.52C142.467 189.013 141.252 184.052 144.988 186.26C147.509 187.751 148.466 194.132 149.253 196.743C150.468 200.775 152.514 204.572 153.836 208.562C156.29 215.966 159.312 223.304 161.825 230.761C162.847 233.793 165.761 237.556 162.961 240.123C158.706 244.023 157.441 236.344 156.314 233.41C154.745 235.595 154.949 239.136 154.14 241.683C153.646 243.239 152.142 245.662 152.192 247.195C152.277 249.816 154.654 250.596 156.796 252.061C160.781 254.787 164.87 257.447 168.52 260.622C170.043 261.946 171.444 263.285 172.556 264.989C173.526 266.476 173.818 269.829 174.89 270.864C176.293 272.217 181.479 271.274 184.217 271.569C188.789 272.061 193.423 273.689 197.862 274.859C205.717 276.929 213.795 279.908 222.022 281.014C230.1 282.1 237.681 281.561 245.733 280.114C250.132 279.324 254.855 278.38 258.869 276.263C263.492 273.824 267.591 269.923 271.909 266.976C273.841 265.658 275.818 264.411 277.795 263.161C280.436 261.49 279.745 261.852 279.917 259.198C280.116 256.126 281.397 250.26 279.348 247.525C278.492 246.384 275.866 245.549 274.629 244.719C272.832 243.511 271.22 242.107 269.293 241.135C267.19 240.074 267.128 240.915 266.152 238.312C265.265 235.948 264.68 233.472 263.866 231.083C260.142 220.158 259.18 209.062 257.637 197.655C256.919 192.356 255.16 185.146 257.153 179.984C259.923 172.805 262.241 182.845 262.826 185.418C265.471 180.883 266.99 175.839 269.742 171.361C271.346 168.75 272.131 167.416 273.035 164.556C273.401 163.397 273.547 162.435 274.321 161.473C275.958 159.438 276.2 160.598 277.902 160.548C283.257 160.391 288.52 160.529 293.88 160.777C296.842 160.914 299.805 160.987 302.788 160.976C304.241 160.97 305.712 160.899 307.164 160.983C307.947 160.975 308.726 161.033 309.5 161.158C311.1 161.906 311.71 161.262 311.332 159.226C312.724 156.31 312.632 151.657 313.124 148.475C313.621 145.273 314.08 142.065 314.495 138.85C314.717 137.132 316.577 130.649 315.59 129.237C314.611 127.838 309.512 128.152 308.003 127.9C297.973 126.231 288.643 122.093 279.261 118.703C274.642 117.034 270.258 114.781 265.828 112.733C263.522 111.667 261.342 109.472 258.912 108.788C255.844 107.926 251.772 109.305 248.714 109.824C242.889 110.814 237.27 111.68 231.359 112.002C229.271 112.116 225.298 112.702 223.414 111.266C219.629 108.38 223.939 106.692 226.412 106.328C237.354 104.717 248.263 103.791 259.288 103.118C259.805 103.087 261.699 102.702 262.329 102.901C263.764 103.355 263.185 103.881 264.046 104.349C265.64 105.216 267.459 105.855 269.481 106.393C275.255 107.928 281.07 110.504 286.863 112.528C297.287 116.17 309.742 121.977 320.167 120.956C322.74 120.704 324.856 120.382 327.546 120.643C330.696 120.95 332.535 122.567 334.955 123.038C338.198 123.667 342.836 123.194 346.249 123.315C349.503 123.43 352.76 123.582 356.016 123.582C353.157 117.825 351.416 112.421 349.809 106.238C348.932 102.867 347.613 99.8045 348.185 96.2537C348.455 94.5778 349.124 93.003 349.853 91.4892C350.954 89.2039 351.267 89.682 351.658 87.1511C352.195 83.6679 351.424 79.9952 351.847 76.5016C352.281 72.9163 354.987 69.7205 355.288 66.2928C355.449 64.4691 354.43 62.9806 354.735 61.0134C355.008 59.254 356.048 57.4094 356.983 55.928C359.16 52.4762 361.81 50.5189 365.489 49.1128C368.445 47.9825 372.219 46.9457 375.207 48.776C378.255 50.6431 378.035 54.401 379.495 57.1429C382.636 63.0388 389.881 68.3078 395.657 71.3189C400.963 74.085 406.679 75.8323 412.368 77.6363C415.831 78.7341 419.391 79.5172 422.794 80.7716C425.243 81.675 429.238 83.8657 431.732 82.5349C433.906 81.3749 436.442 77.8352 438.593 76.1917C441.111 74.2691 444.468 72.3926 447.637 74.0674C450.807 75.7417 450.547 81.9134 453.012 83.0739C453.871 83.4784 456.422 82.2937 457.593 82.4805C459.484 82.7816 460.787 83.9536 461.92 85.3966C466.155 90.7886 467.467 99.3413 467.652 105.988C467.745 109.308 467.664 113.438 465.639 116.256C463.277 119.545 458.806 119.626 455.774 121.94C453.348 123.79 451.63 126.816 449.168 128.788C447.652 130.003 447.067 129.07 446.439 130.964C446.03 132.196 446.856 134.599 447.1 135.791C448.608 143.144 451.431 149.926 454.111 156.931C455.373 160.232 456.444 163.533 457.02 167.031C457.398 169.326 456.962 171.333 457.145 173.541C457.274 175.113 457.942 176.471 457.795 178.083C457.484 181.497 455.632 184.513 454.454 187.516C453.112 190.939 454.956 196.867 456.308 200.408C459.548 208.889 464.105 217.458 468.154 225.608C472.131 233.613 475.089 242.138 479.722 249.829C484.222 257.297 489.517 264.61 494.637 271.674C497.485 275.603 500.506 279.341 503.088 283.462C503.652 284.363 507.503 291.836 508.502 291.578C507.277 278.536 508.516 264.972 509.064 251.939C509.749 235.624 507.675 220.846 503.089 205.273C502.017 201.632 501.062 197.906 500.308 194.186C499.78 191.581 498.289 189.44 501.948 190.579C508.007 192.464 513.339 203.915 516.42 208.9C523.318 220.063 529.08 234.951 529.853 248.045C530.612 260.897 529.958 273.195 528.353 285.858C527.561 292.105 526.283 299.069 524.328 305.043C523.322 308.116 522.115 311.3 520.776 314.244C520.21 315.487 518.969 316.892 518.755 318.257C518.416 320.424 520.001 323.347 520.398 325.487C521.694 332.487 521.992 339.743 521.551 346.848C521.314 350.658 520.788 354.066 519.546 357.65C517.964 362.215 518.699 365.703 519.358 370.409C520.063 375.446 520.738 386.894 515.507 389.756C515.138 389.718 514.767 389.679 514.397 389.642C513.463 388.563 512.633 388.627 511.908 389.834C510.555 390.276 509.234 391.414 507.809 391.903C504.502 393.04 500.934 393.109 497.486 393.609C490.736 394.587 484.008 396.313 477.376 396.522C469.523 396.769 461.332 396.461 453.653 395.083C452.066 394.798 450.211 394.045 448.624 393.9C446.47 393.704 444.958 395.138 442.734 394.801C439.287 394.278 437.11 390.626 436.884 387.634C436.166 378.098 441.45 373.725 450.086 372.032C444.506 364.034 438.082 357.473 436.597 347.201C435.135 337.095 438.305 325.399 444.062 317.303C449.587 309.53 459.016 304.334 468.74 306.306C473.253 307.221 494.543 313.514 490.428 320.653C489.515 317.388 483.902 318.02 481.19 317.548C476.691 316.766 472.193 315.586 467.628 315.829C458.651 316.307 449.974 321.624 445.626 329.672C440.614 338.951 442.901 348.211 448.935 356.133C454.452 363.377 460.14 370.987 467.559 376.218C466.124 378.501 466.643 379.217 463.794 378.809C461.838 378.528 460.008 377.001 458.031 376.621C453.932 375.833 447.48 379.195 444.947 382.558C443.451 384.545 443.506 385.527 446.266 386.751C448.302 387.654 451.508 387.187 453.695 387.383C459.136 387.869 464.681 388.032 470.139 388.012C479.587 387.978 488.374 386.46 497.724 385.478C501.869 385.042 506.203 385.544 510.257 384.017C515.75 381.949 514.404 375.876 513.692 370.956C512.987 366.083 513.705 362.303 514.47 357.477C514.801 355.38 515.42 352.96 514.982 350.85C514.461 348.344 513.528 347.234 513.647 344.439C514.071 334.489 512.824 324.011 510.19 314.409C504.469 293.552 490.501 277.091 478.851 259.364C475.56 254.358 472.101 249.613 469.482 244.191C467 239.054 465.291 233.621 462.827 228.469C457.396 217.116 452.244 205.42 449.07 193.207C445.473 194.624 441.598 196.709 437.742 197.209C433.373 197.775 428.703 194.243 425.948 191.133C419.665 184.04 418.232 174.421 418.701 165.281C418.84 162.575 419.008 159.848 419.492 157.179C419.807 155.446 421.842 151.253 421.379 149.638C420.882 147.911 417.99 146.409 417.102 144.698C415.97 142.52 415.84 139.716 415.9 137.314C415.956 135.12 417.166 124.38 420.639 128.77C422.629 131.285 419.721 140.766 421.74 142.057C423.557 143.218 426.06 141.8 427.943 144.454C429.978 147.323 428.888 150.859 428.175 153.914C426.7 160.232 425.315 167.054 425.353 173.543C425.387 179.451 426.441 186.921 432.89 189.311C436.148 190.518 438.621 189.688 441.051 187.439C441.608 186.797 442.176 186.166 442.755 185.545C443.287 184.63 444.102 184.516 445.202 185.204C446.016 184.557 447.222 180.084 447.63 179.084C452.624 166.831 444.75 152.762 441.863 140.74C440.097 133.386 438.558 126.01 442.132 118.913C442.71 117.764 444.304 116.765 443.348 115.117C443.096 114.683 440.69 114.48 440.12 113.976C438.264 112.336 438.651 109.278 438.651 107.088C434.359 108.414 433.122 105.07 433.68 100.972C430.478 101.48 428.254 102.461 427.069 98.7517C426.018 95.4625 427.605 92.1085 428.658 89.0435C413.844 87.4538 397.844 85.4169 386.037 75.1823C383.126 72.6586 380.705 69.482 378.688 66.1912C378.324 65.5961 376.607 61.4069 376.038 61.1882C374.347 60.5381 372.928 63.8504 371.425 64.6708C370.089 65.3994 368.19 65.8011 366.706 66.245C365.31 66.6632 360.386 66.7467 359.513 67.4726C357.33 69.2881 357.502 79.7837 357.485 82.2195C357.426 90.6089 359.296 98.9693 362.755 106.608C366.013 113.801 370.998 123.694 377.515 128.402C379.161 129.592 380.643 130.209 382.73 130.111C384.221 130.041 385.699 128.996 387.251 129.54C391.179 130.915 389.774 133.649 386.754 134.941C378.123 138.637 370.849 130.513 365.858 124.837C364.396 131.571 371.173 139.54 374.759 145.035C377.044 148.537 379.303 152.042 381.477 155.615C383.056 158.21 386.158 163.003 380.647 160.998C377.989 174.967 370.693 187.184 366.967 200.759C363.141 214.693 359.807 230.605 359.807 245.116C362.72 243.087 364.188 233.836 368.106 240.916C368.53 241.682 368.397 242.95 368.956 243.619C369.728 244.545 370.658 244.288 371.842 244.948C373.719 245.993 374.93 248.078 373.252 249.886C375.413 249.383 377.676 249.639 378.142 252.198C378.404 253.634 376.303 260.288 374.735 260.832C369.957 262.488 364.658 252.937 363.364 249.899C360.379 252.898 356.94 255.205 354.188 250.354C352.138 246.738 353.328 241.268 353.617 237.332C354.2 229.403 354.96 221.669 356.103 213.816C358.246 199.092 363.684 185.996 370.364 172.742C372.203 169.094 374.241 165.36 375.883 161.627C378.361 155.995 374.484 157.324 370.695 158.142C363.272 159.744 355.499 160.988 347.998 161.555C344.083 161.852 339.069 162.028 335.306 163.161C332.661 163.958 333.115 163.408 332.052 166.244C331.577 167.513 331.041 168.864 330.203 169.95C325.929 175.496 314.858 174.568 308.744 174.154C309.114 171.816 309.48 169.476 309.864 167.14C305.158 168.247 299.567 169.018 294.72 168.961C292.11 168.932 289.335 168.533 286.732 168.316C284.813 168.156 281.174 166.794 279.368 167.324C277.273 167.939 274.106 175.52 272.908 177.965C270.66 182.555 266.642 187.656 265.223 192.49C263.965 196.775 266.532 204.169 267.338 208.434C268.504 214.601 269.566 220.778 271.518 226.757C272.934 231.092 274.566 237.068 278.913 239.23C283.245 241.385 286.357 242.597 291.046 242.159C299.301 241.386 308.084 242.655 316.234 244.261C324.627 245.916 332.312 246.661 340.281 249.61C358.357 256.298 369.868 276.903 363.052 295.778C359.133 306.635 352.675 314.704 343.202 321.42C338.375 324.843 332.673 327.619 327.381 330.257C324.951 331.468 322.563 332.937 320.086 334.013C318.277 334.799 315.167 336.609 313.201 336.807C315.383 337.847 317.314 336.873 319.584 336.551C322.796 336.093 326.077 335.995 329.301 335.596C334.319 334.974 339.263 334.505 344.283 333.881C348.568 333.349 353.402 333.16 357.661 333.773C359.718 334.069 362.814 334.654 364.646 335.646C366.086 336.427 367.407 338.225 368.957 339.115C370.661 332.109 369.864 323.472 369.943 316.272C370.009 310.395 370.271 304.648 370.823 298.798C371.442 292.255 367.444 284.815 365.968 278.407C364.586 272.409 360.906 264.808 362.26 258.548C363.969 250.657 368.44 264.833 369.055 266.86C370.98 273.201 373.214 279.392 375.347 285.659C377.884 293.113 380.44 300.337 384.136 307.322C387.211 313.135 390.745 319.954 397.064 322.79C396.543 314.241 395.964 306.326 392.414 298.444C389.048 290.97 383.915 284.323 381.671 276.315C380.556 272.335 380.393 268.265 380.337 264.154C380.3 261.389 380.427 257.671 383.389 260.653C385.739 263.017 386.195 270.56 387.223 273.743C387.719 275.275 388.405 276.682 388.952 278.172C389.199 278.843 390.858 282.113 390.858 282.551C392.568 287.719 396.35 292.676 399.008 297.432Z" fill="black"/>
<path fill-rule="evenodd" clip-rule="evenodd" d="M217.588 109.031C217.751 111.033 218.91 116.221 217.425 117.805C215.456 119.907 214.523 117.204 213.672 115.072C211.893 110.618 211.009 101.993 214.525 98.2811C218.195 94.4051 225.447 94.3007 229.364 90.4406C230.937 88.89 230.786 89.2136 230.649 86.7893C230.571 85.4205 229.687 83.6018 229.26 82.3715C228.148 79.1746 226.929 76.0162 225.767 72.838C223.736 73.765 220.812 76.6245 218.811 74.2277C216.962 72.0116 220.039 68.3806 222.182 67.7328C221.063 65.2838 215.792 65.7366 214.787 62.1391C213.915 59.0126 216.422 60.2549 216.97 59.0236C217.616 57.5746 216.294 55.6157 216.974 54.2805C219.334 49.6445 221.949 58.1686 223.124 59.6901C225.311 62.5199 229.121 63.1381 229.457 67.4185C229.663 70.0538 229.465 71.2791 230.55 73.8672C231.548 76.2497 232.735 78.5345 233.572 80.9862C234.833 84.6804 236.777 91.4033 234.313 94.9804C232.235 97.9976 227.19 100.298 223.909 101.588C222.266 102.234 219.988 102.627 218.658 103.885C216.923 105.525 217.464 106.534 217.588 109.031Z" fill="black"/>
<path fill-rule="evenodd" clip-rule="evenodd" d="M388.053 220.739C387.679 220.148 387.304 219.558 386.93 218.968C384.333 221.744 381.458 222.885 378.834 219.358C376.131 215.727 377.146 210.282 378.197 206.317C378.738 204.276 381.473 196.23 383.224 202.36C383.611 203.712 382.318 206.725 382.085 208.049C381.625 210.647 381.262 213.139 381.586 215.784C384.63 213.057 386.121 206.142 389.21 213.322C390.33 215.926 390.453 220.214 393.435 216.259C395.028 214.147 395.13 210.248 395.875 207.759C400.959 208.976 400.032 216.503 398.335 220.17C395.633 226.01 391.956 224.129 388.053 220.739Z" fill="black"/>
<path fill-rule="evenodd" clip-rule="evenodd" d="M405.853 89.7478C407.661 92.7672 404.241 98.2889 403.621 101.389C406.65 101.038 414.146 93.7227 416.256 94.9288C420.648 97.4389 411.37 106.193 409.588 107.476C395.341 117.728 397.909 88.0724 405.853 89.7478Z" fill="black"/>
<path fill-rule="evenodd" clip-rule="evenodd" d="M387.987 123.372C393.31 121.888 400.488 131.453 397.035 136.189C394.558 139.587 391.498 137.644 390.722 134.653C390.327 133.127 390.677 131.289 390.16 129.588C389.523 127.494 388.67 125.453 387.987 123.372Z" fill="black"/>
<path fill-rule="evenodd" clip-rule="evenodd" d="M224.277 82.1461C228.325 85.5523 220.053 93.8566 215.907 87.354C214.767 85.5655 214.559 83.933 216.25 83.2725C217.104 82.9395 219.118 84.0302 220.323 83.8374C221.644 83.6258 223.079 82.6956 224.277 82.1461Z" fill="black"/>
<path fill-rule="evenodd" clip-rule="evenodd" d="M210.368 68.5255C208.797 66.5639 204.383 54.4973 209.853 57.1848C212.6 58.5344 214.87 68.8497 210.368 68.5255Z" fill="black"/>
<path fill-rule="evenodd" clip-rule="evenodd" d="M390.976 328.051C390.821 326.529 390.665 325.005 390.51 323.482C392.53 324.514 396.582 325.532 397.285 327.84C398.606 332.177 392.473 328.708 390.976 328.051Z" fill="black"/>
<path fill-rule="evenodd" clip-rule="evenodd" d="M449.606 144.38C448.403 142.753 444.662 129.181 447.907 129.492C448.476 134.415 448.593 139.528 449.606 144.38Z" fill="black"/>
<path fill-rule="evenodd" clip-rule="evenodd" d="M399.008 297.432C396.35 292.676 392.568 287.72 390.858 282.551C394.867 285.802 398 292.443 399.008 297.432Z" fill="black"/>
<path fill-rule="evenodd" clip-rule="evenodd" d="M508.017 286.408C508.178 288.131 508.34 289.855 508.502 291.578C506.094 292.2 507.869 286.976 508.017 286.408Z" fill="black"/>
<path fill-rule="evenodd" clip-rule="evenodd" d="M390.863 282.559C389.723 281.317 389.235 279.789 388.952 278.172C389.589 279.634 390.226 281.097 390.863 282.559Z" fill="black"/>
<path fill-rule="evenodd" clip-rule="evenodd" d="M404.648 360.586C404.691 359.052 404.733 357.518 404.775 355.989C404.733 357.523 404.691 359.054 404.648 360.586Z" fill="black"/>
<path fill-rule="evenodd" clip-rule="evenodd" d="M224.568 111.75C225.587 111.877 226.608 112.004 227.628 112.131C226.823 112.508 224.926 113.01 224.568 111.75Z" fill="black"/>
<path fill-rule="evenodd" clip-rule="evenodd" d="M427.967 376.681C429.028 376.521 430.093 376.155 431.136 376.743C430.078 376.723 429.022 376.702 427.967 376.681Z" fill="black"/>
<path fill-rule="evenodd" clip-rule="evenodd" d="M397.643 342.036C397.657 343.172 397.671 344.307 397.684 345.439C397.669 344.302 397.656 343.169 397.643 342.036Z" fill="black"/>
<path fill-rule="evenodd" clip-rule="evenodd" d="M419.571 324.362C419.504 325.573 419.437 326.784 419.371 327.993C419.438 326.781 419.504 325.572 419.571 324.362Z" fill="black"/>
<path fill-rule="evenodd" clip-rule="evenodd" d="M405.134 329.102C405.076 328.048 405.018 326.995 404.961 325.943C405.019 326.997 405.077 328.05 405.134 329.102Z" fill="black"/>
<path fill-rule="evenodd" clip-rule="evenodd" d="M436.669 338.4C436.612 339.339 436.555 340.278 436.498 341.214C436.555 340.275 436.612 339.337 436.669 338.4Z" fill="black"/>
<path fill-rule="evenodd" clip-rule="evenodd" d="M246.127 362.114C245.095 362.635 244.063 362.687 243.034 362.108C244.066 362.11 245.096 362.112 246.127 362.114Z" fill="black"/>
<path fill-rule="evenodd" clip-rule="evenodd" d="M351.792 78.4693C351.806 79.3974 351.821 80.3254 351.835 81.2497C351.82 80.3205 351.805 79.3952 351.792 78.4693Z" fill="black"/>
<path fill-rule="evenodd" clip-rule="evenodd" d="M249.274 103.791C248.217 103.871 247.159 103.951 246.103 104.031C247.16 103.951 248.217 103.871 249.274 103.791Z" fill="black"/>
<path fill-rule="evenodd" clip-rule="evenodd" d="M467.66 107.363C467.654 106.447 467.649 105.531 467.645 104.616C468.131 105.531 468.14 106.445 467.66 107.363Z" fill="black"/>
<path fill-rule="evenodd" clip-rule="evenodd" d="M217.588 109.031C217.539 108.058 217.491 107.085 217.443 106.114C217.492 107.088 217.54 108.059 217.588 109.031Z" fill="black"/>
<path fill-rule="evenodd" clip-rule="evenodd" d="M477.376 396.522C478.09 396.527 478.805 396.532 479.512 396.537C478.795 396.532 478.086 396.527 477.376 396.522Z" fill="black"/>
<path fill-rule="evenodd" clip-rule="evenodd" d="M196.333 25.4397C195.394 25.52 194.454 25.6002 193.515 25.6799C194.454 25.6002 195.394 25.52 196.333 25.4397Z" fill="black"/>
<path fill-rule="evenodd" clip-rule="evenodd" d="M288.952 384.415C289.557 384.415 290.162 384.414 290.761 384.415C290.153 384.415 289.553 384.415 288.952 384.415Z" fill="black"/>
<path fill-rule="evenodd" clip-rule="evenodd" d="M382.73 130.111C381.812 130.019 380.894 129.927 379.976 129.835C380.894 129.927 381.812 130.019 382.73 130.111Z" fill="black"/>
<path fill-rule="evenodd" clip-rule="evenodd" d="M424.466 382.811C424.523 382.053 424.579 381.295 424.635 380.541C424.579 381.3 424.523 382.055 424.466 382.811Z" fill="black"/>
<path fill-rule="evenodd" clip-rule="evenodd" d="M325.075 120.409C324.171 120.401 323.267 120.394 322.364 120.386C323.272 119.859 324.174 120.01 325.075 120.409Z" fill="black"/>
<path fill-rule="evenodd" clip-rule="evenodd" d="M204.463 25.693C203.552 25.6639 202.589 26.1392 201.749 25.416C202.654 25.5084 203.558 25.6007 204.463 25.693Z" fill="black"/>
<path fill-rule="evenodd" clip-rule="evenodd" d="M179.855 115.122C178.982 115.202 178.108 115.282 177.236 115.362C178.109 115.282 178.982 115.202 179.855 115.122Z" fill="black"/>
<path fill-rule="evenodd" clip-rule="evenodd" d="M234.87 361.329C233.95 361.425 233.03 361.521 232.111 361.617C233.031 361.521 233.951 361.425 234.87 361.329Z" fill="black"/>
<path fill-rule="evenodd" clip-rule="evenodd" d="M257.768 103.236C256.872 103.256 255.974 103.275 255.078 103.294C255.968 102.937 256.858 102.601 257.768 103.236Z" fill="black"/>
<path fill-rule="evenodd" clip-rule="evenodd" d="M404.615 348.906C404.61 348.128 404.605 347.349 404.6 346.572C404.605 347.351 404.61 348.129 404.615 348.906Z" fill="black"/>
<path fill-rule="evenodd" clip-rule="evenodd" d="M508.347 282.881C508.25 283.822 508.153 284.763 508.056 285.704C508.153 284.764 508.25 283.822 508.347 282.881Z" fill="black"/>
<path fill-rule="evenodd" clip-rule="evenodd" d="M391.949 343.544C391.882 342.743 391.816 341.942 391.749 341.143C391.816 341.944 391.883 342.744 391.949 343.544Z" fill="black"/>
<path fill-rule="evenodd" clip-rule="evenodd" d="M90.2069 336.184C90.0428 336.983 89.4611 337.14 88.4616 336.655L90.2069 336.184Z" fill="black"/>
<path fill-rule="evenodd" clip-rule="evenodd" d="M425.436 336.539C425.383 335.843 425.33 335.147 425.277 334.452C425.331 335.149 425.383 335.844 425.436 336.539Z" fill="black"/>
<path fill-rule="evenodd" clip-rule="evenodd" d="M237.483 104.913C236.728 105.016 235.973 105.118 235.218 105.221C235.974 105.118 236.728 105.016 237.483 104.913Z" fill="black"/>
<path fill-rule="evenodd" clip-rule="evenodd" d="M397.189 330.605C397.188 331.289 397.186 331.973 397.185 332.654C397.186 331.969 397.188 331.287 397.189 330.605Z" fill="black"/>
<path fill-rule="evenodd" clip-rule="evenodd" d="M351.656 85.2146C351.657 85.8613 351.657 86.5075 351.658 87.151C351.657 86.5037 351.657 85.8591 351.656 85.2146Z" fill="black"/>
<path fill-rule="evenodd" clip-rule="evenodd" d="M76.3288 236.688C76.254 237.369 76.1792 238.051 76.105 238.73C76.1798 238.048 76.254 237.368 76.3288 236.688Z" fill="black"/>
<path fill-rule="evenodd" clip-rule="evenodd" d="M528.527 283.532C528.487 282.89 528.447 282.248 528.407 281.61C528.447 282.253 528.487 282.892 528.527 283.532Z" fill="black"/>
<path fill-rule="evenodd" clip-rule="evenodd" d="M138.657 368.235C137.877 368.223 137.097 368.211 136.317 368.198C137.106 367.657 137.884 367.773 138.657 368.235Z" fill="black"/>
<path fill-rule="evenodd" clip-rule="evenodd" d="M229.476 68.3822C229.463 67.7388 229.451 67.0954 229.438 66.4541C229.839 67.091 229.968 67.7306 229.476 68.3822Z" fill="black"/>
<path fill-rule="evenodd" clip-rule="evenodd" d="M167.206 60.2214C167.26 59.5867 167.315 58.9521 167.369 58.3213C167.314 58.957 167.26 59.5889 167.206 60.2214Z" fill="black"/>
<path fill-rule="evenodd" clip-rule="evenodd" d="M424.977 282.385C424.95 281.686 424.923 280.986 424.897 280.288C424.924 280.988 424.95 281.687 424.977 282.385Z" fill="black"/>
<path fill-rule="evenodd" clip-rule="evenodd" d="M419.957 318.521C419.937 319.181 419.918 319.841 419.898 320.497C419.916 319.836 419.937 319.179 419.957 318.521Z" fill="black"/>
<path fill-rule="evenodd" clip-rule="evenodd" d="M330.191 382.142C330.68 382.141 331.168 382.14 331.651 382.141C331.161 382.142 330.676 382.142 330.191 382.142Z" fill="black"/>
<path fill-rule="evenodd" clip-rule="evenodd" d="M92.387 382.477C92.8749 382.49 93.3622 382.503 93.8441 382.517C93.3545 382.504 92.8705 382.49 92.387 382.477Z" fill="black"/>
<path fill-rule="evenodd" clip-rule="evenodd" d="M387.37 324.578C382.614 320.898 378.467 315.395 377.501 309.504C379.547 311.818 381.266 314.4 383.312 316.712C384.126 317.63 385.123 318.421 385.903 319.357C387.684 321.49 387.37 321.585 387.37 324.578Z" fill="black"/>
<path fill-rule="evenodd" clip-rule="evenodd" d="M370.66 299.704C368.377 294.439 366.395 288.052 366.793 282.243C368.368 287.517 372.022 294.142 370.66 299.704Z" fill="black"/>
<path fill-rule="evenodd" clip-rule="evenodd" d="M378.32 330.665C378.281 332.194 378.242 333.722 378.205 335.247C378.245 333.717 378.282 332.191 378.32 330.665Z" fill="black"/>
<path fill-rule="evenodd" clip-rule="evenodd" d="M76.4101 372.213C77.9704 372.306 79.5313 372.399 81.0916 372.492C79.5241 372.513 77.9358 372.893 76.4101 372.213Z" fill="black"/>
<path fill-rule="evenodd" clip-rule="evenodd" d="M378.311 325.615C378.317 326.919 378.322 328.223 378.328 329.523C378.322 328.218 378.317 326.917 378.311 325.615Z" fill="black"/>
<path fill-rule="evenodd" clip-rule="evenodd" d="M314.2 174.483C313.321 174.438 312.443 174.391 311.571 174.346C312.452 174.391 313.326 174.438 314.2 174.483Z" fill="black"/>
<path fill-rule="evenodd" clip-rule="evenodd" d="M328.49 142.062C328.487 141.004 328.483 139.947 328.48 138.891C328.483 139.949 328.487 141.006 328.49 142.062Z" fill="black"/>
<path fill-rule="evenodd" clip-rule="evenodd" d="M309.625 168.596C309.585 167.852 309.189 167.478 308.437 167.473C309.946 166.656 310.343 167.031 309.625 168.596Z" fill="black"/>
<path fill-rule="evenodd" clip-rule="evenodd" d="M354.382 227.442C354.441 226.501 354.5 225.559 354.559 224.62C354.5 225.562 354.441 226.502 354.382 227.442Z" fill="black"/>
<path fill-rule="evenodd" clip-rule="evenodd" d="M98.564 372.878C99.6166 372.805 100.669 372.732 101.722 372.658C100.669 372.732 99.6166 372.805 98.564 372.878Z" fill="black"/>
<path fill-rule="evenodd" clip-rule="evenodd" d="M319.652 245.089L322.784 245.067C321.74 245.075 320.696 245.082 319.652 245.089Z" fill="black"/>
<path fill-rule="evenodd" clip-rule="evenodd" d="M349.55 130.388C348.821 130.394 348.093 130.4 347.371 130.406C348.102 130.4 348.826 130.394 349.55 130.388Z" fill="black"/>
<path fill-rule="evenodd" clip-rule="evenodd" d="M501.392 385.083C502.305 385.078 503.218 385.074 504.131 385.071C503.221 385.646 502.307 385.631 501.392 385.083Z" fill="black"/>
<path fill-rule="evenodd" clip-rule="evenodd" d="M118.024 258.537C117.405 258.555 116.786 258.573 116.173 258.59C116.794 258.573 117.409 258.555 118.024 258.537Z" fill="black"/>
<path fill-rule="evenodd" clip-rule="evenodd" d="M446.861 121.591C447.447 122.157 446.677 123.458 445.979 123.01C446.273 122.537 446.567 122.064 446.861 121.591Z" fill="black"/>
<path fill-rule="evenodd" clip-rule="evenodd" d="M160.635 315.83C160.661 315.029 160.687 314.228 160.713 313.429C160.687 314.231 160.661 315.031 160.635 315.83Z" fill="black"/>
<path fill-rule="evenodd" clip-rule="evenodd" d="M369.944 316.273C369.986 315.437 370.028 314.602 370.07 313.768C370.027 314.604 369.985 315.438 369.944 316.273Z" fill="black"/>
<path fill-rule="evenodd" clip-rule="evenodd" d="M516.014 229.225C516.048 230.061 516.084 230.897 516.118 231.731C516.083 230.894 516.048 230.059 516.014 229.225Z" fill="black"/>
<path fill-rule="evenodd" clip-rule="evenodd" d="M233.951 323.937C234.887 324.017 235.821 324.097 236.756 324.176C235.821 324.097 234.886 324.017 233.951 323.937Z" fill="black"/>
<path fill-rule="evenodd" clip-rule="evenodd" d="M362.193 259.793C362.238 258.962 362.284 258.131 362.33 257.302C362.284 258.133 362.238 258.963 362.193 259.793Z" fill="black"/>
<path fill-rule="evenodd" clip-rule="evenodd" d="M199.716 275.596C200.648 275.683 201.58 275.768 202.512 275.854C201.58 275.768 200.648 275.682 199.716 275.596Z" fill="black"/>
<path fill-rule="evenodd" clip-rule="evenodd" d="M282.181 348.241C281.58 348.242 280.98 348.242 280.387 348.242C280.989 348.241 281.585 348.241 282.181 348.241Z" fill="black"/>
<path fill-rule="evenodd" clip-rule="evenodd" d="M335.118 145.187C335.082 145.963 335.046 146.739 335.012 147.512C335.048 146.735 335.083 145.96 335.118 145.187Z" fill="black"/>
<path fill-rule="evenodd" clip-rule="evenodd" d="M348.414 333.506C349.336 332.85 350.234 333.283 351.134 333.568C350.227 333.548 349.32 333.527 348.414 333.506Z" fill="black"/>
<path fill-rule="evenodd" clip-rule="evenodd" d="M240.563 111.36C239.956 111.335 239.35 111.31 238.749 111.282C239.358 111.307 239.96 111.333 240.563 111.36Z" fill="black"/>
<path fill-rule="evenodd" clip-rule="evenodd" d="M387.628 347.784C387.573 347.01 387.518 346.238 387.464 345.468C387.518 346.242 387.573 347.013 387.628 347.784Z" fill="black"/>
<path fill-rule="evenodd" clip-rule="evenodd" d="M337.956 260.531C337.456 260.534 336.956 260.537 336.462 260.542C336.964 260.539 337.461 260.535 337.956 260.531Z" fill="black"/>
<path fill-rule="evenodd" clip-rule="evenodd" d="M359.048 288.606C359.048 287.962 359.049 287.317 359.049 286.676C359.049 287.321 359.048 287.964 359.048 288.606Z" fill="black"/>
<path fill-rule="evenodd" clip-rule="evenodd" d="M327.056 335.888C327.805 335.791 328.553 335.694 329.302 335.596C328.552 335.694 327.804 335.791 327.056 335.888Z" fill="black"/>
<path fill-rule="evenodd" clip-rule="evenodd" d="M294.679 242.091C295.491 242.087 296.302 242.081 297.113 242.076C296.304 242.553 295.493 242.463 294.679 242.091Z" fill="black"/>
<path fill-rule="evenodd" clip-rule="evenodd" d="M336.7 163.174C336.231 163.17 335.763 163.165 335.3 163.162C335.771 163.165 336.235 163.17 336.7 163.174Z" fill="black"/>
<path fill-rule="evenodd" clip-rule="evenodd" d="M198.175 282.768C197.692 282.761 197.209 282.755 196.731 282.747C197.217 282.755 197.696 282.761 198.175 282.768Z" fill="black"/>
<path fill-rule="evenodd" clip-rule="evenodd" d="M104.787 251.03C105.596 251.038 106.406 251.047 107.215 251.055C106.401 251.513 105.591 251.525 104.787 251.03Z" fill="black"/>
<path fill-rule="evenodd" clip-rule="evenodd" d="M516.092 252.371C516.04 252.989 515.989 253.607 515.94 254.222C515.992 253.603 516.042 252.987 516.092 252.371Z" fill="black"/>
<path fill-rule="evenodd" clip-rule="evenodd" d="M310.001 351.753C310.07 351.078 310.139 350.403 310.208 349.73C310.139 350.406 310.07 351.08 310.001 351.753Z" fill="black"/>
<path fill-rule="evenodd" clip-rule="evenodd" d="M179.105 271.299C179.923 271.311 180.741 271.323 181.56 271.334C180.733 271.904 179.92 271.545 179.105 271.299Z" fill="black"/>
<path fill-rule="evenodd" clip-rule="evenodd" d="M365.598 152.756C366.393 152.666 367.189 152.576 367.984 152.486C367.189 152.576 366.393 152.666 365.598 152.756Z" fill="black"/>
<path fill-rule="evenodd" clip-rule="evenodd" d="M299.111 369.167C299.183 369.877 299.255 370.586 299.326 371.293C299.254 370.583 299.182 369.876 299.111 369.167Z" fill="black"/>
<path fill-rule="evenodd" clip-rule="evenodd" d="M369.957 322.513C369.956 321.851 369.954 321.189 369.954 320.531C369.955 321.194 369.956 321.853 369.957 322.513Z" fill="black"/>
<path fill-rule="evenodd" clip-rule="evenodd" d="M81.4787 372.586C82.2487 372.687 83.0187 372.789 83.7882 372.89C83.0182 372.789 82.2482 372.687 81.4787 372.586Z" fill="black"/>
<path fill-rule="evenodd" clip-rule="evenodd" d="M95.9243 372.898C96.6844 372.276 97.4561 372.466 98.2305 372.865C97.4616 372.876 96.6927 372.887 95.9243 372.898Z" fill="black"/>
<path fill-rule="evenodd" clip-rule="evenodd" d="M234.826 281.729C235.579 281.637 236.332 281.545 237.084 281.452C236.331 281.545 235.579 281.637 234.826 281.729Z" fill="black"/>
<path fill-rule="evenodd" clip-rule="evenodd" d="M318.492 376.402C319.259 376.299 320.027 376.196 320.794 376.093C320.026 376.196 319.259 376.299 318.492 376.402Z" fill="black"/>
<path fill-rule="evenodd" clip-rule="evenodd" d="M291.655 377.595C292.438 377.494 293.22 377.394 294.003 377.293C293.22 377.394 292.438 377.494 291.655 377.595Z" fill="black"/>
<path fill-rule="evenodd" clip-rule="evenodd" d="M334.737 149.879C334.702 150.512 334.667 151.145 334.634 151.773C334.668 151.139 334.702 150.509 334.737 149.879Z" fill="black"/>
<path fill-rule="evenodd" clip-rule="evenodd" d="M150.438 300.695C150.508 300.023 150.577 299.351 150.647 298.682C150.577 299.355 150.508 300.025 150.438 300.695Z" fill="black"/>
<path fill-rule="evenodd" clip-rule="evenodd" d="M328.694 133.519C328.715 132.861 328.735 132.202 328.756 131.546C328.736 132.206 328.715 132.863 328.694 133.519Z" fill="black"/>
<path fill-rule="evenodd" clip-rule="evenodd" d="M179.244 293.225C179.313 293.898 179.382 294.571 179.451 295.24C179.382 294.567 179.312 293.896 179.244 293.225Z" fill="black"/>
<path fill-rule="evenodd" clip-rule="evenodd" d="M181.837 271.306C182.63 271.394 183.424 271.481 184.217 271.569C183.424 271.481 182.63 271.394 181.837 271.306Z" fill="black"/>
<path fill-rule="evenodd" clip-rule="evenodd" d="M308.172 369.348C308.625 370.676 308.458 373.766 307.175 374.702C304.513 376.644 304.239 373.097 303.71 371.18C302.244 365.864 299.884 359.927 299.282 354.461C299.098 352.785 298.998 349.645 301.213 349.079C303.351 348.534 304.434 351.926 305.172 353.667C307.217 358.501 308.404 364.108 308.172 369.348Z" fill="black"/>
<path fill-rule="evenodd" clip-rule="evenodd" d="M308.172 369.348C308.203 368.661 308.233 367.975 308.264 367.291C308.233 367.979 308.203 368.663 308.172 369.348Z" fill="black"/>
</svg>
