<svg width="548" height="384" viewBox="0 0 548 384" fill="none" xmlns="http://www.w3.org/2000/svg">
<path fill-rule="evenodd" clip-rule="evenodd" d="M187.305 177.058C188.985 192.908 190.665 208.76 192.346 224.611C201.494 219.734 210.642 214.856 219.79 209.979V246.09V255.582C219.79 256.421 219.257 259.306 219.79 260.034C220.243 260.65 223.595 260.668 224.388 260.772C229.56 261.449 234.745 262.051 239.937 262.587C253.622 263.999 268.268 266.021 282.005 264.399C293.945 262.988 305.521 259.021 316.431 254.403C320.261 252.782 324.037 251.047 327.743 249.193C328.529 248.8 331.382 247.872 331.809 247.072C332.158 246.419 331.339 244.122 331.23 243.435C330.769 240.539 330.308 237.642 329.847 234.746L323.409 194.302L335.571 205.649C336.524 206.538 338.333 209.062 339.652 209.456C340.619 209.745 343.012 208.851 343.968 208.679C350.854 207.439 357.741 206.199 364.628 204.96C366.232 204.671 369.848 204.682 371.201 203.776C371.929 203.288 371.963 202.296 372.22 201.355C373.9 195.207 375.58 189.059 377.26 182.911C377.562 181.803 379.25 178.312 378.821 177.197C378.667 176.797 377.922 176.524 377.466 176.263C367.073 170.332 356.678 164.4 346.284 158.469C340.59 155.219 334.896 151.97 329.202 148.721C326.817 147.359 323.887 144.907 321.185 144.146C319.507 143.673 317.066 144.027 315.33 143.981C311.802 143.887 308.274 143.792 304.746 143.698C304.194 143.684 302.26 143.316 301.795 143.62C301.408 143.873 301.568 144.226 301.441 144.829C301.131 146.301 301.129 147.889 300.976 149.384C300.853 150.584 301.097 152.784 300.518 153.87C300.148 154.564 300.617 154.288 300.117 154.623C299.522 155.022 297.621 154.894 296.912 154.971C293.455 155.346 289.998 155.721 286.541 156.096C282.431 156.542 278.275 157.379 274.145 156.993C267.885 156.41 261.135 156.438 254.988 155.206C253.391 154.886 252.815 154.045 251.583 152.895C249.178 150.652 246.797 148.382 244.365 146.161C243.174 145.073 243.684 145.258 242.455 145.671C240.916 146.187 239.354 147.435 237.961 148.228C232.621 151.267 227.282 154.306 221.942 157.345L189.345 175.896C188.665 176.284 187.985 176.67 187.305 177.058Z" fill="#60ABF0"/>
<path fill-rule="evenodd" clip-rule="evenodd" d="M499.095 179.028C492.375 202.863 478.86 228.853 451.632 236.45C445.013 238.297 438.573 239.692 431.697 238.989C431.043 238.921 430.495 239.007 429.873 239.018C428.758 239.038 429.721 239.413 428.47 239.052C427.495 238.771 426.582 238.067 425.566 237.756C422.864 236.93 419.984 236.77 417.238 236.103C410.491 234.463 403.538 232.439 397 230.177C393.922 229.112 391.093 227.629 388.198 226.203C385.254 224.753 382.135 223.853 379.158 222.524C376.806 221.473 372.776 220.103 371.122 218.132C369.359 216.029 371.799 211.553 372.496 209.319C374.867 201.713 377.692 194.22 379.474 186.463C385.629 193.127 394.171 197.254 403.013 199.916C407.811 201.36 412.747 202.405 417.738 203.058C422.269 203.651 427.157 204.369 431.699 203.527C435.128 202.891 439.432 201.419 441.88 198.974C442.754 198.101 443.803 196.5 443.313 195.233C442.691 193.623 440.88 194.381 439.9 193.179C439.046 192.133 439.18 189.686 438.908 188.412C438.427 186.157 437.766 183.964 436.958 181.793C435.392 177.579 433.44 173.355 432.972 168.871C432.565 164.98 433.514 161.301 435.591 157.924C436.573 156.328 439.038 151.987 441.444 152.167C444.086 152.365 440.523 162.769 440.407 164.891C439.945 173.304 441.153 182.269 445.774 189.643C447.543 192.467 450.101 195.754 453.878 196.104C457.88 196.474 461.107 193.533 463.012 190.557C467.659 183.296 465.316 173.334 462.962 165.724C460.075 156.388 452.54 149.952 447.776 141.567C454.889 142.236 458.698 146.457 462.349 151.814C466.368 157.711 469.497 164.791 471.04 171.653C471.819 175.119 471.281 178.601 471.286 182.101C471.288 183.264 471.287 187.555 473.317 187.386C475.486 187.205 476.23 182.366 476.549 180.89C477.28 177.504 478.071 174.118 478.706 170.715C479.83 164.694 480.329 158.528 481.675 152.55C481.902 151.539 482.355 148.735 483.975 149.492C485.223 150.075 485.023 154.412 485.069 155.42C485.181 157.904 485.338 160.388 485.36 162.875C485.392 166.56 484.605 170.375 484.991 174.038C485.243 176.432 486.618 179.076 488.322 175.848C490.012 172.647 490.357 168.655 491.299 165.212C492.29 161.598 493.312 157.93 495.413 154.72C495.995 153.829 496.622 152.416 497.917 152.835C498.858 153.139 499.553 155.223 499.844 155.959C501.157 159.283 500.934 162.979 500.851 166.46C500.75 170.724 500.26 174.894 499.095 179.028ZM368.062 185.213C367.703 185.105 366.178 184.97 365.799 184.939C365.356 184.903 365.859 184.139 364.786 184.357C364.993 184.836 365.361 185.156 365.89 185.317C364.276 185.827 363.086 184.568 361.983 184.405C360.928 184.25 360.883 184.405 359.841 185.447C358.712 184.161 358.924 184.963 357.995 184.964C357.658 184.964 357.643 185.441 357.094 185.384C356.614 185.333 356.563 184.654 356.28 184.574C354.74 184.138 353.155 186.329 351.409 184.428C350.986 186.406 346.137 183.929 344.271 184.277C342.316 184.64 343.159 185.295 341.579 184.176C340.073 183.109 340.493 183.817 338.741 184.69C338.782 184.67 337.753 185.32 337.849 185.33C336.636 185.198 336.705 184.026 335.169 184.089C333.544 184.155 332.85 185.345 331.363 183.88C331.039 184.977 330.973 184.504 330.21 184.781C329.791 184.874 329.424 184.771 329.109 184.472C329.014 184.774 328.805 184.959 328.481 185.027C327.651 185.097 326.092 185.205 325.338 184.831C324.207 184.27 325.116 184.055 324.332 183.425C323.98 185.163 323.209 184.793 321.583 184.956C320.343 185.08 320.07 184.724 318.886 184.552C317.719 184.381 316.212 184.804 315.073 184.985C314.604 185.059 313.975 185.365 313.496 185.258C313.065 185.161 312.881 184.848 312.623 184.767C312.311 184.668 312.377 184.413 311.837 184.289C311.465 184.204 310.798 184.531 310.426 184.587C307.773 184.989 305.225 184.993 302.694 184.018C303.941 186.065 299.781 184.96 299.039 184.113C298.112 185.47 296.991 184.512 295.122 184.618C293.323 184.72 290.617 185.234 289.887 183.141C289.744 183.566 288.723 184.801 288.317 184.99C287.137 185.536 286.997 184.728 285.9 184.399C284.408 183.951 284.719 184.801 283.794 184.974C282.231 185.266 281.387 184.238 280.006 183.692C279.948 184.542 279.918 185.064 279.132 185.593C278.435 183.225 275.951 185.787 276.377 182.621C275.432 183.196 274.102 183.638 273.833 184.801C275.413 184.395 274.001 185.361 273.935 185.393C273.726 185.495 273.02 184.569 272.856 184.438C272.811 184.875 272.767 185.312 272.722 185.749C272.093 185.454 271.502 184.928 270.99 184.664C270.53 184.426 271.19 183.931 270.412 183.897C270.001 183.879 269.574 184.709 269.143 184.779C268.485 184.887 268.801 184.005 268.526 184.035C268.106 184.08 267.422 184.653 267.105 184.642C266.064 184.606 266.768 184.154 265.975 183.946C264.555 183.575 264.647 184.442 263.627 184.755C261.293 185.471 261.527 182.177 259.153 184.373C258.585 184.899 258.22 185.711 257.441 185.665C255.83 185.571 256.396 183.786 256.723 182.912C257.062 183.069 250.836 186.057 250.885 185.94C250.924 185.223 251.903 184.67 251.028 184.034C250.313 185.468 249.56 185.494 247.91 185.761C247.107 185.891 246.95 186.064 246.091 185.752C245.544 185.554 245.177 184.74 244.634 184.694C244.707 184.701 243.709 185.41 243.557 185.474C242.656 185.853 242.086 185.423 241.211 185.579C240.465 185.712 240.171 186.305 239.429 186.143C238.438 185.927 239.02 184.821 237.657 185.13C237.19 185.235 236.911 186.074 236.176 186.247C235.032 186.518 233.629 186.013 232.42 186.276C231.46 186.486 230.747 186.574 229.907 186.618C229.229 186.653 229.508 186.161 228.26 186.743L227.73 185.496C227.106 186.021 226.48 186.546 225.856 187.071C225.737 186.6 225.662 186.124 225.63 185.641C224.698 186.513 223.524 186.662 222.271 186.74C220.914 186.825 219.903 187.102 218.583 187.334C218.165 187.407 217.091 187.523 216.747 187.387C216.798 187.407 216.105 187.138 216.314 187.189C216.224 187.018 216.141 186.844 216.063 186.667C215.947 186.175 215.568 186.153 214.928 186.602C214.597 186.555 213.955 186.149 213.624 186.249C212.773 186.506 212.889 187.124 212.04 187.033C211.49 186.974 211.209 186.214 210.636 186.162C209.758 186.084 208.998 187.001 208.208 187.201C210.611 186.592 205.091 187.065 206.807 187.106C205.682 187.079 204.513 187.027 203.473 187.498C202.899 187.131 203.597 186.393 203.016 186.09C202.489 185.814 202.449 186.541 202.387 186.558C202.719 186.47 202.554 187.089 202.221 187.199C201.185 187.542 200.357 186.67 200.303 185.805C199.423 187.042 199.176 186.545 197.882 186.621C196.606 186.696 195.505 187.322 194.228 187.31C191.703 187.288 189.989 186.468 189.146 184.361C191.837 184.667 194.546 183.051 197.177 183.431C198.042 183.557 198.582 184.163 199.339 184.056C200.273 183.923 200.925 182.972 202.121 182.869C204.761 182.643 207.364 182.863 210.022 182.485C213.197 182.033 216.511 181.766 219.716 181.986C222.193 182.156 224.199 181.271 226.711 181.101C229.959 180.88 233.234 180.84 236.487 180.681C239.83 180.517 243.427 180.019 246.761 180.178C247.802 180.228 248.697 180.323 249.73 180.265C250.167 180.241 250.58 179.964 251.039 180.005C251.636 180.059 251.892 180.63 252.511 180.61C253.564 180.576 254.688 179.766 255.939 179.744C257.996 179.708 260.043 179.712 262.105 179.603C263.921 179.507 265.865 179.111 267.672 179.132C268.947 179.147 269.262 180.162 270.005 180.266C271.34 180.454 278.097 176.862 278.681 180.086C282.199 177.837 286.916 179.742 290.832 179.319C295.862 178.776 300.984 179.26 306.048 179.067C311.201 178.87 316.503 179.052 321.636 179.506C323.762 179.694 325.816 179.871 327.948 179.756C328.898 179.706 329.997 179.479 330.947 179.684C331.177 179.733 332.94 180.883 332.721 180.916C333.684 180.108 333.033 179.99 334.727 179.949C336.032 179.917 337.267 180.18 338.565 180.252C340.896 180.381 343.243 180.079 345.569 180.145C347.51 180.201 349.409 180.469 351.36 180.482C353.464 180.496 355.948 180.551 357.47 182.136C357.31 181.638 357.15 181.141 356.988 180.643C359.337 180.815 361.657 181.598 364.031 181.232C363.431 181.769 362.821 182.209 362.591 182.997C363.872 182.845 364.738 182.01 366.086 182.003C367.218 181.997 367.454 182.528 368.649 181.842C368.796 182.682 368.943 183.522 369.09 184.361C370.746 183.997 369.66 182.844 369.78 181.805C371.126 182.182 372.265 181.749 371.735 183.557C371.326 184.951 369.463 185.638 368.062 185.213ZM365.736 200.742C365.159 202.256 360.166 201.391 358.986 201.231C357.46 201.024 355.715 200.697 354.311 200.535C354.142 200.325 353.94 200.147 353.705 200C353.528 200.23 353.305 200.393 353.034 200.489C352.39 200.621 352.387 201.243 351.54 201.105C351.501 202.026 352.185 201.503 352.709 201.837C351.388 202.664 351.992 201.712 351.251 201.727C351.067 201.484 350.811 201.388 350.483 201.441C350.066 201.542 349.681 201.709 349.329 201.942C348.998 202.267 348.716 202.284 348.48 201.993C348.254 201.78 347.979 201.65 347.654 201.6C346.352 201.798 345.988 202.337 344.523 202.249C342.428 202.123 340.163 202.639 338.102 202.367C336.824 202.199 334.69 200.324 334.11 202.152C333.226 200.796 331.819 199.874 330.974 198.49C334.913 198.277 338.851 198.024 342.793 197.891C346.245 197.774 350.021 198.137 353.247 197.985C356.268 197.843 359.468 197.531 362.553 197.273C365.824 197 366.906 197.671 365.736 200.742ZM262.972 200.965C264.403 201.335 265.765 200.496 267.152 200.761C267.61 200.849 268.56 201.629 268.769 201.644C269.15 201.673 270.273 200.907 270.755 200.804C273.802 200.157 277.493 200.226 280.538 200.624C282.153 200.834 282.4 200.144 283.809 199.809C285.274 199.46 287.355 199.729 288.897 199.632C292.525 199.406 296.151 199.567 299.754 199.319C303.454 199.065 307.134 198.927 310.835 198.749C313.356 198.628 319.414 197.284 321.503 199.033C323.226 200.474 321.007 202.978 319.283 203.549C317.995 203.975 317.377 203.076 316.42 203.162C315.331 203.26 315.711 204.463 314.738 203.347C314.136 204.456 310.348 203.983 309.263 204.057C306.897 204.216 304.896 204.66 303.286 202.598C303.395 203.193 303.505 203.788 303.614 204.382C301.479 203.316 299.187 203.657 297.334 204.029C296.416 204.213 293.599 205.484 292.605 204.936C291.921 204.559 293.127 203.914 291.972 203.592C291.367 203.423 290.323 204.362 289.584 204.314C287.539 204.183 288.119 202.898 286.11 204.533C285.429 203.983 285.203 203.049 285.293 202.247C283.833 203.41 283.956 205.349 281.346 204.994C280.374 204.862 280.195 203.935 279.688 203.764C278.608 203.4 278.486 204.055 277.55 204.573C277.197 204.768 276.766 205.083 276.351 205.122C275.496 205.202 275.361 204.835 275.244 204.848C274.676 204.906 273.96 205.176 273.285 204.983C272.68 204.81 272.503 203.812 271.437 204.045C270.416 204.269 270.408 204.917 270.593 205.886C269.586 205.789 268.978 205.265 268.225 204.698C267.465 206.354 265.865 204.982 264.98 206.38C263.827 205.094 263.087 205.448 261.657 204.191C261.727 204.716 261.797 205.24 261.867 205.764C260.751 205.563 260.254 204.828 259.302 205.801C258.378 204.192 255.576 206.484 254.136 204.93C253.495 206.898 249.25 206.427 247.457 206.461C245.868 206.492 244.692 206.37 243.14 206.715C241.767 207.02 239.866 207.335 238.576 207.196C237.733 207.105 236.811 206.96 235.761 207.067C234.247 207.221 232.939 207.953 231.371 207.607C229.009 207.085 227.561 204.187 230.192 202.914C231.992 202.042 235.235 202.365 237.216 202.204C240.499 201.938 244.179 201.379 247.467 201.633C250.031 201.831 252.368 201.259 254.985 201.018C256.955 200.836 260.183 200.509 261.468 202.333C261.961 201.8 261.91 200.691 262.972 200.965ZM227.03 225.933C226.677 224.293 241.688 223.389 243.178 223.282C246.306 223.057 249.442 222.896 252.578 222.822C255.155 222.76 257.561 223.22 260.139 222.85C262.546 222.505 265.452 221.798 267.548 223.39C267.856 221.212 276.891 222.273 278.61 222.28C286.093 222.305 293.254 222.321 300.492 221.888C304.629 221.641 309.021 221.308 313.158 221.501C315.025 221.588 316.527 222.053 318.383 221.65C319.593 221.387 320.898 220.84 322.055 221.613C323.41 222.519 323.989 225.594 323.056 226.877C322.376 227.813 321.774 227.709 320.688 227.547C319.019 227.299 317.778 226.938 316.076 227.572C316.352 227.469 314.936 227.764 315.053 227.756C313.125 227.891 310.48 229.149 308.819 227.698C309.484 227.807 310.452 226.697 309.613 226.606C308.982 226.537 308.583 227.168 308.09 227.38C306.408 228.103 305.547 227.877 304.542 226.36C302.516 227.998 302.298 227.545 301.409 225.527C300.724 226.02 300.577 227.186 300.038 227.568C299.958 227.625 300.289 228.333 299.9 228.304C299.539 228.277 299.421 227.724 299.143 227.68C298.966 227.652 298.873 227.167 298.704 227.138C298.519 227.106 298.33 227.415 298.122 227.406C297.565 227.382 295.973 228.489 296.544 226.935C295.7 227.938 295.337 227.298 295.033 226.386C294.059 227.078 293.085 227.77 292.111 228.461C291.658 227.285 290.879 227.605 289.898 228.016C290.193 227.199 290.008 226.426 289.267 226.994C288.838 227.323 288.549 228.367 288.11 228.811C286.332 227.128 285.685 227.59 283.228 227.808C282.291 227.892 281.125 228.053 280.288 227.524C279.551 227.059 279.134 225.352 277.875 226.731C278.155 226.424 277.716 228.78 277.638 229.155C277.083 228.805 276.611 228.374 276.222 227.864C275.497 229.205 273.595 228.002 272.036 228.276C269.581 228.708 267.049 229.434 264.881 227.727C264.727 228.278 262.951 228.98 262.949 229.001C263.054 228.026 263.713 228.369 262.367 228.183C262.12 228.149 261.839 228.566 261.605 228.611C260.803 228.766 259.865 228.619 259.057 228.598C255.694 228.507 252.615 229.203 249.293 229.456C248.174 229.541 246.846 229.708 245.795 229.313C244.712 228.907 244.742 228.445 243.646 228.707C243.993 228.624 242.961 229.636 243.017 229.598C242.87 229.698 242.256 229.204 242.037 229.242C241.973 229.457 241.91 229.673 241.846 229.889C241.582 229.859 241.318 229.828 241.054 229.798C240.332 229.888 239.68 229.206 239.002 229.182C239.127 229.187 237.171 229.867 237.26 229.908C235.895 229.272 236.286 229.456 234.554 229.844C232.917 230.21 231.287 230.125 229.607 230.353C224.72 231.016 227.632 228.728 227.03 225.933ZM222.714 248.758C221.796 247.541 224.24 247.12 225.021 247.013C226.306 246.836 228.009 247.187 228.865 246.997C230.168 246.707 231.426 246.016 232.893 245.829C234.745 245.592 236.611 245.554 238.47 245.405C239.089 245.356 239.856 245.157 240.459 245.19C241.356 245.241 241.729 245.684 242.453 245.687C243.687 245.693 245.21 244.965 246.474 244.832C248.094 244.66 249.73 244.58 251.357 244.504C254.786 244.345 258.179 244.411 261.606 244.407C263.169 244.405 267.332 242.89 268.111 244.589C269.195 243.301 271.975 243.477 273.524 243.44C276.253 243.374 278.954 243.128 281.681 243.01C284.016 242.908 286.625 243.375 288.918 243.048C290.182 242.868 290.6 242.49 292.034 242.66C293.098 242.787 294.721 242.261 295.635 242.493C295.588 242.481 296.776 243.169 296.405 243.191C296.813 243.166 296.789 243.433 297.239 243.314C297.83 243.158 297.559 242.464 298.784 242.217C300.694 241.833 303.242 242.278 305.227 242.179C307.153 242.083 309.075 242.042 311.003 242.05C311.89 242.054 312.988 241.856 313.851 242.018C314.274 242.097 315.173 242.613 315.531 242.561C316.547 242.413 317.065 241.753 318.438 241.794C319.995 241.84 321.396 241.82 322.944 241.709C324.442 241.603 324.683 241.403 325.426 242.568C326.162 243.723 326.365 245.228 325.01 246.014C325.891 245.96 326.973 247.061 325.936 247.671C325.295 248.048 324.01 247.197 323.242 247.259C322.297 247.335 321.554 247.802 320.525 247.831C319.443 247.861 318.345 248.116 317.278 248.135C316.167 248.156 315.326 247.692 314.272 247.889C313.345 248.064 313.247 248.774 312.13 248.15C311.575 247.839 311.481 246.691 310.724 246.68C309.709 246.665 310.114 247.89 309.531 248.457C309.374 246.706 307.927 249.604 307.351 247.478C306.821 248.184 304.858 249.172 303.906 248.604C303.039 248.088 303.327 246.918 302.966 246.075C302.365 247.59 300.751 249.161 300.897 246.404C300.114 247.305 297.996 247.162 298.527 248.74C297.889 248.728 297.737 247.877 297.2 247.812C296.736 247.757 296.368 248.09 296.297 248.084C296.551 248.104 295.537 248.42 295.522 248.423C296.208 248.292 293.542 248.07 293.996 248.074C293.377 248.069 292.62 248.543 291.896 248.541C291.237 248.54 290.582 248.297 289.931 248.228C288.245 248.048 288.596 248.394 287.537 248.889C287.145 249.072 287.046 249.383 286.489 249.344C286.078 249.315 285.924 248.814 285.878 248.81C285.3 248.755 285.727 248.574 284.829 248.658C284.726 248.823 284.624 248.988 284.521 249.154C284.197 249.541 283.776 249.638 283.26 249.445C281.932 249.711 277.528 250.865 277.959 248.729C277.284 249.037 276.61 249.345 275.935 249.653C275.645 247.931 271.978 250.215 271.159 250.33C270.109 250.477 270.012 250.101 269.018 249.9C268.839 249.864 268.48 250.416 268.06 250.337C266.97 250.132 266.776 250.03 266.589 248.924C265.812 250.282 265.166 249.675 263.757 249.898C263.445 249.948 263.246 250.521 262.798 250.422C262.475 250.351 262.466 249.8 262.244 249.729C262.044 249.664 262.074 249.23 261.779 249.168C261.441 249.097 260.287 249.98 259.957 250.116C259.21 250.424 257.985 250.932 257.257 250.78C256.356 250.592 256.757 249.968 255.484 250.038C253.477 250.148 252.639 251.744 251.39 249.229C250.827 250.237 250.898 250.51 249.993 250.843C249.324 251.088 247.63 250.832 246.749 250.801C242.987 250.671 239.289 251.869 235.558 251.555C233.918 251.418 232.536 251.111 230.881 251.362C229.142 251.625 227.441 252.013 225.677 252.169C224.781 252.248 222.906 252.489 222.466 251.418C222.079 250.474 223.524 249.831 222.714 248.758ZM230.092 287.428C225.213 290.477 221.172 294.642 216.691 298.168C212.2 301.704 208.635 305.634 204.596 309.55C200.861 313.169 197.43 316.593 192.914 319.327C190.057 321.059 187.508 323.189 184.573 324.821C182.375 326.043 179.045 327.651 180.117 323.912C181.217 320.081 183.246 316.208 185.008 312.63C187.513 307.544 190.038 302.505 192.749 297.515C193.767 295.64 194.337 293.774 195.953 292.28C197.711 290.655 198.942 288.533 200.867 286.997C208.964 280.538 221.168 285.528 230.092 287.428ZM245.398 289.617C243.185 290.701 240.708 290.97 238.362 291.687C236.363 292.298 234.505 293.384 232.355 293.464C234.312 292.091 235.993 290.226 238.199 289.184C240.681 288.011 242.934 288.865 245.398 289.617ZM342.546 298.651C334.405 296.085 326.825 292.303 318.895 289.259C317.527 288.734 306.821 285.44 307.039 283.872C314.541 282.588 322.266 280.384 329.786 282.787C336.627 284.973 342.192 290.215 347.487 294.603C348.869 295.747 357.414 300.961 356.65 302.622C356.12 303.773 352.003 303.458 351.03 303.223C349.774 302.917 349.051 302.205 348.066 301.422C346.419 300.115 344.596 299.297 342.546 298.651ZM327.517 255.772C328.753 254.709 329.494 253.096 330.675 252.115C332.192 250.854 334.641 251.468 336.3 252.123C341.279 254.088 345.534 257.393 350.481 259.443C355.964 261.716 360.711 264.753 365.656 267.883C370.176 270.744 375.064 273.112 379.678 275.843C384.38 278.625 389.643 280.434 394.409 283.118C399.26 285.85 404.092 288.593 408.753 291.603C417.065 296.971 425.72 302.483 431.869 310.115C435.03 314.037 437.988 318.487 440.308 322.892C442.416 326.896 444.703 332.455 441.971 336.621C439.347 340.621 434.875 343.772 431.089 346.757C429.656 347.887 428.292 349.26 426.434 349.75C424.174 350.346 421.537 350.181 419.212 350.357C406.785 351.299 395.207 350.41 382.959 348.333C371.15 346.331 359.292 345.21 347.392 343.818C340.679 343.033 333.967 342.119 327.345 340.811C324.514 340.253 321.634 339.608 318.864 338.847C316.445 338.182 314.411 336.717 311.923 336.137C301.368 333.674 289.29 332.733 278.839 328.59C288.087 325 297.915 322.831 307.393 319.847C317.369 316.706 327.112 314.071 337.627 313.179C343.037 312.72 347.88 311.429 353.084 310.078C358.044 308.79 363.222 308.395 368.317 307.818C370.583 307.562 377.048 307.946 377.799 305.179C378.917 301.059 372.564 300.584 369.856 300.953C366.014 301.476 362.846 302.372 359.906 299.428C356.904 296.42 353.987 293.342 350.93 290.373C345.263 284.867 339.421 278.5 331.41 276.03C321.636 273.017 310.302 275.877 300.55 277.591C290.25 279.4 279.966 281.133 269.859 283.764C265.673 284.853 260.276 287.253 255.932 286.868C251.65 286.487 246.801 285.832 242.664 284.679C240.792 284.157 239.253 283.19 237.578 282.288C235.4 281.115 233.014 280.364 230.702 279.452C226.028 277.609 221.471 275.911 216.428 275.186C212.182 274.576 207.672 274.215 203.556 275.605C199.519 276.97 195.941 279.749 193.124 282.717C190.064 285.941 187.535 289.555 185.027 293.158C183.823 294.887 182.354 296.396 181.106 298.087C180.059 299.506 179.448 301.084 178.34 302.463C175.861 305.55 174.178 309.499 172.675 313.091C171.006 317.079 169.151 321.823 169.55 326.162C169.7 327.802 169.858 329.974 170.537 331.495C171.4 333.429 172.632 333.38 174.407 334.11C177.457 335.363 178.312 338.827 182.253 338.152C185.95 337.519 189.156 334.673 191.853 332.404C195.369 329.448 198.733 326.33 202.097 323.224C205.549 320.037 208.951 316.502 211.697 312.752C212.778 311.276 213.62 309.608 214.898 308.264C216.525 306.552 218.351 306.346 220.561 305.664C239.879 299.701 259.291 293.948 279.212 290.011C283.985 289.067 288.797 287.85 293.485 286.594C298.458 285.263 301.033 286.67 305.137 289.205C313.711 294.502 323.845 298.232 333.393 301.688C336.399 302.776 341.184 302.845 343.535 304.991C329.605 306.975 316.33 310.792 302.895 314.593C296.271 316.467 289.57 318.092 282.921 319.884C276.269 321.677 269.871 324 263.31 326.021C256.781 328.033 249.881 328.853 243.289 330.708C236.56 332.603 229.858 333.905 222.951 335.056C215.976 336.22 209.05 337.561 202.051 338.602C198.847 339.079 195.643 339.573 192.474 340.229C189.373 340.871 186.377 342.407 183.261 342.763C169.344 344.354 155.701 347.899 141.838 349.902C131.487 351.398 113.48 353.485 106.768 343.783C100.018 334.025 108.299 322.644 115.687 315.667C120.279 311.331 125.439 307.515 130.852 304.12C136.645 300.487 142.219 296.564 148.014 292.936C161.127 284.726 175.347 278.03 189.436 271.433C196.198 268.266 202.732 264.87 209.31 261.395C212.575 259.67 214.382 262.454 216.962 264.345C218.992 265.833 222.72 269.501 225.56 267.805C225.669 268.416 225.779 269.027 225.888 269.638C226.72 269.283 227.552 268.929 228.384 268.575C228.943 269.944 228.877 270.795 230.439 271.514C231.397 271.956 233.443 272.487 234.357 271.709C234.543 272.25 234.73 272.79 234.916 273.331C235.715 273.274 235.869 271.138 236.02 270.638C237.389 272.506 239.283 274.068 241.69 274.596C241.701 274.474 241.298 272.939 241.316 272.93C242.077 272.494 243.038 274.359 243.441 274.759C244.78 276.082 245.578 275.877 247.056 274.808C247.164 274.917 247.664 276.137 247.737 276.115C248.057 276.021 248.665 274.939 248.731 274.841C248.639 276.263 251.577 276.55 252.615 276.244C252.382 275.827 252.15 275.411 251.917 274.994C255.532 274.543 256.951 278.132 260.421 277.949C262.986 277.814 260.928 277.291 262.38 276.264C263.648 275.367 263.874 277.329 263.998 277.266C264.24 277.03 264.428 276.758 264.561 276.451C265.03 278.13 268.767 279.638 268.381 276.875C269.851 277.425 270.894 278.336 272.521 278.529C274.498 278.763 276.61 278.371 278.583 278.218C282.833 277.888 286.84 277.077 290.671 275.258C292.943 274.179 295.36 273.201 297.496 271.899C299.282 270.81 302.673 267.504 305.052 268.928C304.443 267.248 307.311 268.805 307.402 266.641C307.863 266.966 308.324 267.29 308.785 267.615C309.061 267.049 308.984 266.157 309.354 265.664C309.862 264.986 310.11 265.385 310.544 265.004C311.028 264.578 311.452 263.436 312.033 263.11C312.632 262.776 313.336 263.175 313.981 262.883C314.962 262.437 319.183 258.088 318.469 261.814C320.284 261.238 318.884 260.711 319.111 259.581C319.566 257.317 320.674 258.947 321.778 259.144C323.586 259.468 323.549 258.072 324.558 257.057C325.478 256.13 327.208 255.715 326.612 254.106C327.293 254.449 327.438 255.12 327.517 255.772ZM218.55 207.408C217.126 208.89 216.059 208.256 214.476 208.039C214.307 207.508 214.017 207.435 213.608 207.818C213.139 208.07 212.635 208.236 212.094 208.315C210.796 208.614 209.448 208.487 208.177 208.94C208.214 208.542 208.661 207.836 208.374 207.432C207.039 208.295 206.211 208.845 204.571 208.861C203.242 208.874 200.909 207.926 199.806 209.059C199.771 208.618 199.737 208.177 199.704 207.735C199.163 207.987 198.693 208.324 198.293 208.746C198.217 208.092 198.175 207.597 197.712 207.068C196.835 208.756 195.873 208.795 194.167 208.151C194.406 208.241 192.46 207.175 192.534 207.471C191.919 205.048 201.633 205.248 202.653 205.152C205.199 204.912 207.746 204.773 210.296 204.553C212.715 204.345 214.521 203.993 216.195 205.879C215.449 203.155 222.507 203.29 218.55 207.408ZM107.177 165.17C107.444 169.287 108.425 173.664 106.711 177.627C105.334 180.813 102.586 184.41 99.6254 186.489C93.5639 190.745 88.426 185.537 87.5823 179.813C86.7029 173.843 88.4461 166.548 93.9485 162.866C97.2362 160.667 100.42 160.819 104.205 161.542C105.094 161.713 106.537 161.647 107.046 162.472C107.165 162.666 107.058 165.166 107.177 165.17ZM187.683 220.03C186.637 220.524 185.541 220.813 184.618 221.485C184.297 221.718 184.188 222.25 183.848 222.446C183.229 222.804 182.343 222.567 181.698 222.862C180.63 223.349 179.864 224.047 178.594 224.497C176.709 225.164 175.056 226.08 173.274 226.948C170.305 228.394 167.118 229.636 164.014 230.814C162.447 231.408 158.114 232.566 158.264 234.71C157.914 234.798 157.555 234.082 156.824 234.139C155.819 234.217 154.491 235.302 153.449 235.57C151.498 236.069 149.987 236.113 149.987 238.437C149.366 238.042 149.209 237.078 148.382 236.95C147.452 236.806 147.061 237.743 146.317 238.035C145.441 238.378 144.352 238.049 143.484 238.415C143.104 238.79 142.683 239.117 142.219 239.396C141.747 239.447 141.277 239.434 140.81 239.355C138.968 239.72 137.273 240.367 135.427 240.704C133.627 241.032 132.395 241.151 133.152 243.139C131.227 243.491 130.757 241.583 128.585 242.281C125.923 243.135 123.436 243.752 120.657 244.274C119.24 244.54 117.759 245.134 116.332 245.273C115.313 245.372 114.363 245.032 113.36 245.138C112.152 245.265 111.18 245.788 109.93 245.807C108.744 245.826 107.498 245.627 106.333 245.432C106.498 245.87 106.704 246.291 106.951 246.694C106.146 246.536 105.774 245.631 105.091 245.497C104.374 245.357 103.732 246.047 103.135 245.895C102.881 245.829 103.05 245.097 102.596 244.957C102.182 244.83 102.007 244.98 101.596 244.92C101.459 244.9 99.7402 244.813 99.4665 244.948C98.9878 245.186 99.4721 245.63 99.3769 245.696C97.7607 246.813 97.7411 246.21 97.0207 245.043C95.9626 243.329 94.6868 244.41 92.7639 244.11C90.621 243.776 88.9326 244.66 86.8232 244.534C84.5482 244.398 81.8746 242.808 79.8632 241.879C75.5196 239.874 71.2842 237.975 67.6365 234.938C60.5056 228.999 54.7044 221.696 51.284 213.336C47.6088 204.354 46.9124 194.986 47.2075 185.457C47.3849 179.726 47.8759 173.999 48.8427 168.335C49.5083 164.439 49.6477 157.516 54.3489 155.741C55.1573 164.864 52.6068 174.159 54.2151 183.222C54.6993 185.952 55.8805 189.589 58.1158 191.611C61.4254 194.604 62.1996 190.278 62.4991 187.888C63.0561 183.45 64.0912 179.036 64.824 174.619C65.5562 170.203 66.0735 165.739 67.0918 161.37C67.4629 159.777 70.4568 148.111 72.654 148.664C72.2095 157.15 71.0289 165.49 70.9824 174.008C70.9639 177.425 70.6365 181.033 71.1644 184.427C71.4359 186.173 73.1382 191.298 76.066 190.871C78.7755 190.476 75.7967 186.866 75.5437 185.474C74.8736 181.789 75.7279 177.204 76.3526 173.546C77.5349 166.625 80.1728 159.535 84.4844 153.751C88.3459 148.571 94.2916 143.641 101.454 144.554C104.515 144.945 106.902 145.655 108.44 148.266C109.647 150.315 114.399 152.643 111.645 155.208C109.138 157.544 105.082 155.674 102.295 155.118C98.8826 154.436 95.2254 155.256 92.3715 157.124C87.4749 160.329 84.6842 166.059 83.7734 171.433C82.5458 178.679 85.8273 197.645 97.9141 193.394C105.943 190.57 111.991 180.412 111.317 172.635C111.047 169.522 109.744 163.612 114.354 162.771C120.26 161.695 121.094 167.778 120.496 171.73C119.627 177.48 116.374 182.827 112.653 187.372C109.41 191.334 105.638 193.812 101.736 197.084C100.58 198.053 97.6337 200.231 98.1285 202.033C98.671 204.008 103.302 204.569 105.157 204.894C114.331 206.498 124.677 205.022 133.835 203.902C152.659 201.599 171.235 195.926 186.67 185.498C187.293 191.95 188.079 198.381 188.369 204.857C188.509 208.001 188.545 211.19 188.93 214.316C189.166 216.24 190.022 218.926 187.683 220.03ZM135.489 242.514C134.75 242.875 135.549 240.69 135.344 241.413C136.448 241.783 136.497 242.15 135.489 242.514ZM213.574 164.425C214.748 163.217 217.953 160.343 218.97 163.07C219.348 161.908 219.398 160.186 220.859 161.756C221.44 159.827 227.857 160.008 229.447 159.923C234.536 159.651 239.646 159.505 244.717 159.033C255.138 158.063 265.741 158.563 276.199 158.531C278.464 158.525 280.723 158.41 282.971 158.717C285.141 159.013 287.421 159.844 289.633 159.541C291.599 159.27 292.888 158.764 294.911 158.981C297.333 159.24 299.684 159.424 302.127 159.416C312.933 159.379 323.733 159.788 334.541 159.804C336.648 159.807 339.171 159.423 341.148 160.258C341.88 160.568 342.68 161.6 343.239 161.713C343.88 161.842 343.499 160.908 344.357 161.33C345.506 161.894 344.617 163.631 343.858 163.906C344.312 163.741 343.037 163.579 343.165 163.573C342.559 163.603 342.043 164.037 341.393 164.009C340.404 163.969 339.575 163.405 338.777 162.909C338.764 163.111 339.202 164.463 338.702 164.531C338.271 164.59 337.868 163.257 337.825 162.947C335.407 164.94 332.845 163.829 329.844 164.082C327.717 164.261 323.279 165.587 321.794 163.511C321.733 163.953 321.543 164.339 321.226 164.671C320.802 165.275 320.435 165.223 320.125 164.515C320.02 164.52 318.987 164.73 318.966 164.728C318.239 164.674 317.295 164.43 316.555 164.371C315.41 164.28 315.621 165.059 314.708 165.071C314.21 165.078 312.939 164.406 312.071 164.364C310.566 164.291 309.029 164.887 307.544 164.706C306.522 164.582 305.598 163.805 304.596 163.775C303.346 163.736 302.941 164.626 301.951 163.376C301.748 163.324 301.622 164.06 301.542 164.073C301.561 164.07 300.6 164.203 300.486 164.244C300.288 164.315 299.52 164.644 299.286 164.647C298.78 164.656 298.506 164.318 297.97 164.31C297.084 164.296 294.255 165.025 294.334 163.493C291.171 164.588 288.473 164.161 285.226 164.42C283.737 164.539 282.801 164.353 281.384 164.097C279.61 163.777 278.431 164.18 276.661 164.261C274.961 164.339 274.424 163.666 272.989 163.059C272.422 162.82 272.048 162.504 271.354 162.637C270.958 162.713 271.24 163.337 271.123 163.379C270.512 163.599 270.086 163.366 269.25 163.419C267.705 163.518 267.091 164.724 265.503 163.592C266.031 163.532 266.558 163.471 267.086 163.411C265.568 162.81 263.565 162.503 263.932 164.693C262.638 164.523 263.758 163.699 263.122 163.405C262.485 163.11 261.773 163.603 260.971 163.847C258.854 164.488 257.089 164.17 254.882 164.054C252.374 163.924 246.507 165.835 244.711 163.353C244.657 163.876 244.056 165.334 243.256 165.265C242.995 165.243 243.722 163.696 243.805 163.532C243.393 164.351 241.513 164.507 240.586 164.932C240.69 164.492 240.794 164.051 240.897 163.611C240.038 164.467 239.619 163.945 238.607 164.231C238.165 164.356 237.525 165.209 237.146 165.26C236.706 164.782 236.151 164.577 235.484 164.644C235.04 164.54 234.596 164.519 234.153 164.583C232.377 164.703 230.757 165.625 228.99 164.998C227.461 164.453 226.869 163.053 225.957 165.28C225.717 164.884 225.478 164.489 225.237 164.093C224.942 164.523 224.646 164.952 224.35 165.381C223.193 164.673 223.121 164.263 221.79 164.524C221.477 164.64 221.156 164.624 220.828 164.474C220.75 164.693 220.672 164.911 220.593 165.128C220.562 165.677 220.388 165.858 220.071 165.672C219.805 165.582 219.564 165.446 219.349 165.264C218.468 165.327 217.343 165.544 216.398 165.424C216.033 165.378 213.745 164.25 213.574 164.425ZM240.535 149.684C240.638 149.832 240.742 149.981 240.846 150.13C239.416 150.836 239.079 150.43 238.931 149.013C239.63 149.026 239.749 150.174 240.535 149.684ZM241.421 148.852C242.109 149.136 242.899 149.694 243.548 148.946C243.985 150.132 240.741 151.751 241.421 148.852ZM245.869 149.376C247.315 150.289 243.847 149.555 243.852 149.556C244.476 149.019 245.148 148.958 245.869 149.376ZM258.306 144.284C258.802 146.622 260.17 146.555 262.378 145.469C265.597 143.884 266.141 141.288 266.365 138.188C266.581 135.217 266.97 134.066 270.25 134.687C272.539 135.12 274.476 134.756 276.784 134.696C279.247 134.633 280.115 134.984 280.313 137.352C280.512 139.723 280.963 141.523 282.805 143.328C284.677 145.162 287.174 146.258 289.607 147.284C290.858 147.812 292.033 148.379 293.417 148.493C293.954 148.538 296.745 148.208 296.804 149.033C296.847 149.654 292.981 151.404 292.571 151.612C290.778 152.523 288.99 153.341 287.031 153.893C282.525 155.163 277.747 155.238 273.08 155.161C265.555 155.038 255.155 152.064 250.655 145.826C253.205 145.312 255.756 144.798 258.306 144.284ZM257.631 124.039C256.44 123.105 255.67 121.695 254.68 120.59C254.182 120.032 253.816 119.854 253.341 119.575C252.842 119.282 252.56 119.697 252.143 119.007C251.065 117.222 254.39 114.71 250.864 114.022C249.671 113.789 246.799 114.673 246.451 113.076C245.958 110.817 250.572 110.669 251.658 109.523C253.816 107.244 252.351 103.381 253.666 100.751C254.91 98.2608 258.123 97.8184 260.658 97.07C264.191 96.028 267.766 95.4237 271.354 94.5895C273.862 94.0066 278.029 91.6643 280.355 93.7338C276.766 94.4785 278.852 95.6473 281.245 96.3071C283.955 97.0549 286.827 97.3465 289.635 97.555C292.526 97.7691 295.472 97.81 298.328 97.2717C300.969 96.7737 303.919 94.6287 306.689 95.1781C305.152 97.6743 300.574 99.038 297.793 99.692C296.375 100.025 295.468 99.9208 295.658 101.572C295.842 103.172 297.332 104.777 297.668 106.444C298.112 108.65 297.724 110.677 296.884 112.752C296.057 114.793 295.864 115.059 296.586 117.01C297.712 120.047 295.292 123.404 293.056 125.609C284.011 134.527 266.701 131.149 257.631 124.039ZM280.615 70.7399C280.651 70.831 280.62 70.7965 280.615 70.7399V70.7399ZM283.432 93.2458C283.056 93.5076 280.897 94.0564 280.987 93.2678C281.108 92.211 283.054 92.5928 283.432 93.2458ZM288.354 71.8988C287.848 71.5458 286.428 71.6909 287.466 70.353C287.804 70.9415 288.08 71.4202 288.354 71.8988ZM254.288 63.4412C254.934 61.8728 255.65 60.4139 255.941 58.7445C256.12 57.716 255.763 56.5414 257.302 56.3801C255.341 55.581 255.321 52.427 255.205 50.7922C255.046 48.5404 254.285 45.5257 255.344 43.4301C256.431 41.2773 257.898 41.3129 258.34 43.8767C258.514 44.8806 257.851 45.2053 257.726 45.9043C257.48 47.2873 257.97 46.9841 258.925 45.9305C259.319 47.0014 259.47 48.6106 261.075 48.5425C260.968 48.253 260.353 47.6141 260.558 47.2543C260.874 46.7019 262.415 47.546 262.61 47.6738C264.017 48.5933 264.323 49.4328 263.319 50.5927C264.708 50.7325 263.542 51.8688 264.439 52.1652C265.807 52.6171 264.89 50.4759 264.741 50.0994C265.574 50.4031 265.854 50.7498 266.381 51.3645C266.691 51.7887 266.973 52.2291 267.227 52.6847C267.51 53.5163 268.093 53.7247 268.978 53.3099C270.75 53.8294 273.197 53.7482 274.785 54.6563C275.511 55.071 275.773 55.9785 276.379 56.3231C277.061 56.7111 277.975 56.5352 278.707 56.7787C278.439 57.3473 278.656 57.6553 279.357 57.7034C279.902 57.75 280.429 57.8647 280.939 58.047C281.321 57.7783 281.736 57.5662 282.184 57.4118C282.485 57.9077 282.91 58.0302 283.461 57.7804C285.095 58.0663 285.881 58.6439 286.919 59.5074C287.852 60.2825 287.093 60.3453 288.114 60.2767C288.525 60.2489 289.244 59.5986 290.183 59.7253C290.723 59.8237 291.244 59.9793 291.746 60.1919C292.288 60.6255 292.864 60.6799 293.473 60.3558C294.463 60.8077 294.56 61.6084 295.767 61.7178C297.101 61.8393 296.672 60.2851 297.588 62.4771C298.822 60.1531 299.275 63.8554 300.549 64.1544C301.868 64.4644 302.011 63.4647 303.141 64.5571C303.479 64.8844 303.46 65.4253 303.84 65.7725C304.463 66.3407 305.306 66.227 305.847 67.0021C305.546 66.5695 305.918 68.5348 305.912 68.4699C305.996 69.3371 305.172 70.3084 306.862 70.2346C306.843 70.3257 306.031 71.4312 305.872 71.306C305.834 71.1798 305.801 71.052 305.775 70.9227C305.594 70.9955 305.513 72.0486 305.547 72.2345C305.69 72.2554 305.749 72.1559 305.722 71.936C305.445 72.7482 305.864 73.264 305.33 74.0348C304.989 74.5276 304.054 74.8978 303.557 75.202C302.359 75.9362 301.186 76.6725 300.017 77.4538C297.292 79.2761 294.24 81.4734 290.807 81.8536C292.531 80.2721 302.45 74.2872 297.475 72.5691C296.552 72.2507 294.872 71.9491 293.907 71.882C292.707 71.7988 291.466 72.4408 290.143 72.0402C288.545 71.5574 289.147 70.1545 288.171 69.6512C286.099 68.5835 286.588 71.0945 285.936 71.7522C285.251 71.0803 285.398 70.7535 284.316 70.6928C283.218 70.631 282.956 71.5794 281.675 70.9887C279.909 70.1744 280.844 68.5526 278.339 68.5144C278.381 68.1583 278.744 67.1633 278.266 66.8858C277.622 67.6666 278.121 68.5395 277.523 69.291C277.223 69.668 276.574 69.9686 276.1 70.0906C274.989 70.3755 274.831 70.9211 275.012 69.359C274.189 70.7441 271.666 70.1744 270.165 70.0351C267.725 69.8083 265.131 69.3768 262.792 68.6458C260.628 67.9693 259.472 66.8073 257.688 65.75C257.013 65.3499 256.691 65.5028 255.724 65.2546C254.769 65.0095 253.839 64.5346 254.288 63.4412ZM259.437 38.9166C259.805 38.7093 260.07 41.8036 259.624 42.3817C258.806 41.1736 257.357 39.4015 259.437 38.9166ZM260.614 37.6824C261.798 36.6806 260.975 39.268 260.758 39.7021C260.319 39.4392 259.881 39.1764 259.442 38.9135C260.001 38.5925 260.141 38.0819 260.614 37.6824ZM305.31 33.5125C316.255 35.6584 327.1 39.6697 335.879 46.2709C343.875 52.2836 349.518 60.8145 352.682 69.889C355.967 79.308 354.863 89.7582 347.05 96.9669C342.933 100.764 337.498 103.055 332.317 105.29C329.835 106.361 327.279 107.254 324.787 108.3C322.997 109.051 320.813 110.254 318.77 110.045C319.812 109.021 321.324 109 322.585 108.374C324.108 107.617 325.353 106.163 326.666 105.125C327.97 104.095 330.862 100.85 332.865 101.635C332.587 99.9067 334.695 99.1039 335.645 97.9639C336.65 96.7579 336.722 95.3477 338.574 94.9529C336.585 93.4992 337.194 90.7573 337.626 88.7784C338.18 86.2476 338.436 83.9241 338.654 81.3487C339.047 76.7055 339.364 70.7907 336.618 66.7088C335.727 65.3834 334.593 64.1654 333.798 62.7887C332.839 61.1297 333.051 59.6693 333.051 57.8506C331.299 58.9503 330.93 56.708 330.19 55.6151C329.635 54.795 328.905 54.3368 328.726 53.3052C328.596 52.5543 329.468 52.4276 328.99 51.6405C328.404 52.0542 328.17 52.6952 327.873 53.29C327.332 53.0879 327.97 52.3841 327.66 52.1553C327.651 52.149 326.607 51.7253 326.659 51.7866C325.987 50.9912 325.771 49.671 325.442 48.7242C324.211 49.3066 324.441 49.238 323.069 48.265C322.827 48.0938 321.619 47.3072 321.505 47.0501C320.974 45.8478 321.905 46.56 321.644 45.8138C320.897 43.6704 316.702 44.0757 316.37 40.8641C314.324 42.0774 313.545 40.3583 312.335 39.1355C311.096 37.8829 309.017 37.4012 309.129 35.4144C308.485 35.6202 307.841 35.8255 307.198 36.0302C307.532 34.1969 304.617 34.3137 303.562 33.3836C304.148 33.3905 304.73 33.4334 305.31 33.5125ZM306.977 147.062C307.991 146.214 307.683 147.342 308.336 147.214C308.894 147.103 309.005 146.709 309.54 146.588C311.745 146.09 315.042 146.716 317.361 146.608C320.047 146.484 324.652 147.005 325.931 149.941C326.703 151.71 325.526 151.108 324.23 150.977C323.224 150.875 322.331 151.065 321.336 151.056C320.844 151.126 320.354 151.12 319.866 151.034C319.627 150.888 319.487 150.681 319.443 150.415C318.059 150.219 316.589 150.984 315.057 151.023C313.011 151.073 311.193 150.707 309.639 149.417C309.021 150.277 308.6 150.704 307.489 150.8C307.46 150.803 306.374 150.394 306.206 150.353C305.984 150.299 305.421 150.736 304.992 150.611C305.753 149.479 305.864 147.992 306.977 147.062ZM446.688 157.28C447.049 156.107 447.351 154.918 447.68 153.737C452.729 159.107 457.148 166.297 459.136 173.184C460.428 177.66 462.438 185.77 456.28 188.078C451.264 189.959 448.467 183.218 447.198 179.898C444.396 172.57 444.396 164.737 446.688 157.28ZM220.778 73.1273C220.843 73.1153 217.509 74.9266 218.608 73.4598C219.049 72.8702 220.722 72.4554 221.464 72.4554L220.778 73.1273ZM217.572 73.895C217.186 74.1982 216.796 74.4977 216.403 74.7931C216.026 74.2359 215.648 73.6787 215.271 73.1215C216.015 72.8283 219.174 72.6084 217.572 73.895ZM215.222 130.213C214.524 129.772 213.971 130.007 213.762 130.748C213.762 130.01 214.173 128.297 214.804 128.098C215.212 127.969 213.448 126.018 213.944 125.507C215.205 126.182 214.45 126.829 214.819 127.7C214.986 128.094 215.487 128.466 215.597 128.768C215.783 129.28 216.536 131.043 215.222 130.213ZM211.805 125.824C211.091 125.995 212.341 127.097 212.34 127.584C212.339 127.952 211.866 128.235 211.671 128.738C211.247 129.83 211.976 130.567 210.777 131.401C210.777 129.009 209.059 122.67 212.36 121.505C210.75 120.319 212.073 118.952 213.335 120.37C214.549 121.733 213.775 125.353 211.805 125.824ZM210.085 116.385C209.436 114.235 207.482 113.483 205.25 113.61C205.335 112.509 206.228 110.922 206.872 112.906C207.138 112.32 207.321 111.554 207.926 111.166C208.944 114.149 214.021 115.797 210.86 119.029C210.602 118.147 210.351 117.264 210.085 116.385ZM204.185 113.77C192.43 114.567 175.925 116.846 166.518 108.427C160.384 102.937 160.711 94.3884 165.669 88.2893C168.497 84.8091 172.359 82.3584 176.237 80.0239C177.733 79.1227 179.001 78.5278 180.644 78.0099C180.91 77.9832 181.161 78.0387 181.395 78.1764C181.487 77.8057 181.71 77.5313 182.066 77.3522C182.701 77.0348 183.605 76.9217 183.97 76.263C183.58 77.4999 183.38 78.7734 183.236 80.0532C182.92 79.7086 182.603 79.3641 182.287 79.0195C182.023 81.3503 179.424 79.9396 177.872 80.2307C178.894 81.5525 179.625 82.0326 179.713 83.7796C178.952 82.4662 177.36 81.6027 175.879 81.1796C176.683 83.401 177.251 84.7195 176.442 87.1556C175.465 86.634 175.399 85.3814 174.213 85.0814C173.9 86.534 173.845 88.1458 173.444 89.5555C170.407 88.2616 170.703 91.7465 171.923 93.4709C172.571 94.3884 172.889 95.4504 173.468 96.3312C174.887 98.4913 173.809 95.2608 175.386 95.4142C175.032 97.6927 174.909 97.9194 176.693 99.5878C178.435 101.215 179.338 103.472 181.201 105.001C181.741 104.357 180.892 103.683 180.818 103.066C182.552 103.338 183.363 104.962 185.03 103.524C185.757 104.847 186.543 106.304 188.284 106.576C187.133 104.533 190.493 105.918 191.355 106.208C192.009 106.428 193.179 106.603 193.432 106.688C194.851 107.167 193.878 106.307 194.739 107.878C196.004 107.521 196.482 106.54 197.995 107.369C199.226 108.043 199.228 109.197 199.509 110.379C199.803 109.606 200.099 108.833 200.423 108.07C200.753 108.2 202.139 109.624 201.988 109.631C205.23 109.482 205.115 111.363 204.185 113.77ZM187.68 75.2104C188.331 74.7836 189.126 75.3518 189.857 75.1989C190.869 74.9879 191.444 74.1778 192.574 74.0908C192.26 75.0303 191.669 74.9423 191.17 75.6801C191 75.9315 191.088 76.5347 190.937 76.6793C189.67 77.8921 189.232 76.9024 187.938 75.9844C188.051 77.0914 188.279 77.4412 187.162 77.7381C186.152 78.0073 184.484 77.016 183.975 76.2556C184.404 75.4523 186.9 75.7215 187.68 75.2104ZM195.746 73.4802C196.844 73.5782 195.521 76.6039 193.948 73.6688C194.541 73.5483 195.14 73.4855 195.746 73.4802ZM201.39 72.8953C203.121 72.5654 208.896 71.0279 209.538 73.5457C209.654 73.4829 210.083 72.0617 210.283 72.235C211.082 72.9299 211.172 73.851 211.111 74.8161C210.144 72.9351 210.488 74.5873 209.833 74.4584C209.662 74.4244 209.401 74.7229 208.967 74.5998C208.4 74.438 207.993 73.3095 207.634 72.9273C207.038 73.7232 206.298 74.748 205.103 74.6789C204.257 74.6302 202.894 72.5953 203.989 74.8229C203.346 74.6244 202.602 74.1751 201.885 74.2652C201.083 74.3663 200.666 75.1062 199.914 75.2256C198.247 75.4895 197.996 73.9908 196.914 73.177C198.406 73.0959 199.916 73.176 201.39 72.8953ZM211.864 72.8712C211.986 72.3549 213.501 72.1465 213.886 72.3104C214.828 72.7099 214.48 73.2373 214.307 74.1149C213.608 73.806 212.909 73.4975 212.211 73.1886C213.254 74.7574 211.364 74.9852 211.864 72.8712ZM505.097 164.769C504.973 161.009 504.856 157.185 503.836 153.524C503.122 150.962 501.368 146.369 498.05 145.924C493.048 145.254 490.277 154.492 488.875 157.663C488.595 153.93 488.84 149.955 487.331 146.412C486.122 143.572 483.069 140.883 480.44 144.072C478.1 146.91 477.65 151.1 477.034 154.514C476.236 158.939 475.757 163.398 475.174 167.85C472.889 163.724 472.49 159.001 470.683 154.713C468.979 150.667 466.297 146.802 463.714 143.203C461.604 140.263 459.038 137.499 455.733 135.702C452.856 134.138 447.825 132.446 445.083 135.044C442.795 137.211 443.154 140.112 443.273 142.847C443.326 144.065 443.53 144.9 442.384 145.514C441.821 145.815 440.94 145.659 440.321 145.821C439.323 146.081 438.558 146.522 437.715 147.108C431.798 151.216 429.071 158.62 428.227 165.222C427.158 173.586 430.648 180.756 433.651 188.408C434.13 189.628 435.649 192.215 435.44 193.577C435.209 195.069 433.205 195.107 431.853 195.138C427.769 195.233 423.499 194.948 419.436 194.593C409.76 193.747 400.092 189.395 391.429 185.509C389.848 184.8 387.612 184.394 386.322 183.278C385.109 182.229 384.789 180.547 383.743 179.343C381.173 176.389 379.536 173.868 375.752 172.083C371.9 170.266 367.968 168.587 364.209 166.596C359.561 164.134 355.266 161.015 350.811 158.258C342.532 153.136 334.31 147.52 325.532 143.164C321.454 141.14 316.896 140.812 312.662 139.154C308.538 137.541 303.477 137.538 299.173 138.557C297.077 139.054 295.651 140.232 293.723 141C291.464 141.901 289.621 140.907 287.633 139.832C284.595 138.189 281.584 135.513 285.91 133.742C287.377 133.141 289.215 132.913 290.497 131.968C291.864 130.961 292.961 129.103 294.072 127.841C296.542 125.037 298.017 121.809 301.632 120.065C305.63 118.136 310.368 117.612 314.631 116.351C319.249 114.986 323.771 113.363 328.303 111.769C336.469 108.897 344.959 105.796 350.827 99.4747C355.888 94.0208 358.093 86.9812 357.889 79.8312C357.471 65.2143 349.091 50.3801 337.067 41.2412C322.323 30.0348 303.566 26.298 284.942 26.4939C276.201 26.586 265.77 27.6548 258.477 32.6165C252.178 36.9021 251.13 44.3978 252.067 51.164C252.447 53.91 253.747 57.5338 251.674 59.9536C250.514 61.3073 248.431 61.6424 246.869 62.4865C244.905 63.5469 243.174 64.5634 240.95 65.1242C231.502 67.5079 221.551 66.6779 211.892 66.5459C195.801 66.326 179.307 70.3964 167.303 80.99C157.61 89.544 154.703 105.674 166.525 114.014C176.077 120.75 191.06 120.009 202.322 118.834C205.815 118.469 208.217 117.939 208.224 121.932C208.233 126.293 207.46 130.851 208.651 135.132C210.527 141.875 217.461 142.036 223.592 140.584C226.827 139.817 229.954 138.665 233.027 137.459C237.533 135.689 241.663 133.087 246.113 131.321C249.129 130.124 251.388 133.995 254.064 131.312C254.558 130.816 254.65 130.076 255.395 129.822C256.564 129.425 258.525 130.819 259.55 131.26C261.085 131.92 262.632 132.406 263.245 133.995C263.819 135.483 263.567 137.847 263.018 139.315C261.824 142.504 258.609 141.873 255.673 141.66C250.554 141.288 245.468 140.499 240.351 140.167C235.759 139.87 231.459 141.152 227.499 143.267C219.18 147.711 212.375 154.778 205.162 160.59C201.45 163.581 197.862 166.812 193.825 169.417C192.07 170.549 190.169 171.59 188.644 172.998C187.13 174.394 186.964 175.663 186.446 177.521C185.524 180.829 180.945 182.446 178.083 184.192C174.035 186.66 169.744 188.401 165.207 189.915C155.598 193.122 145.914 195.361 135.868 197.017C130.949 197.827 126.072 198.36 121.105 198.798C116.824 199.175 112.272 200.406 107.996 199.422C109.228 197.556 111.41 196.435 113.109 194.993C115.301 193.133 117.164 190.93 118.822 188.647C122.05 184.201 124.314 179.43 124.834 174.037C125.303 169.184 124.765 163.378 121.631 159.279C120.548 157.862 118.406 157.477 117.437 156.201C116.474 154.933 116.841 152.75 116.314 151.271C114.971 147.51 110.986 142.849 107.478 140.665C103.673 138.295 98.1072 137.424 93.7117 138.659C85.5687 140.947 80.5669 149.078 76.8408 155.649C74.8053 151.647 78.214 145.711 74.2377 142.434C70.8839 139.669 68.222 145.024 67.1002 147.315C61.8346 158.07 60.6389 169.476 58.4327 180.983C57.5336 180.155 57.9944 178.03 58.0789 177.042C58.2362 175.204 58.2216 173.4 58.2256 171.554C58.2362 166.89 59.1644 162.204 58.7389 157.544C58.4931 154.85 57.5739 149.17 53.3849 150.065C49.8324 150.824 47.6072 155.492 46.4909 158.345C44.8809 162.461 44.5092 166.536 44.6094 170.883C44.7202 175.688 43.7406 180.413 43.5032 185.21C43.0419 194.529 43.4976 203.767 46.3594 212.76C51.0455 227.487 61.8201 239.723 76.2004 247.112C84.1233 251.184 92.9128 253.759 101.95 254.313C106.847 254.613 111.574 254.069 116.43 253.596C121.221 253.129 126.038 252.913 130.821 252.365C141.473 251.145 151.852 247.994 161.534 243.754C166.63 241.523 171.423 238.783 176.436 236.403C178.447 235.449 179.806 234.255 181.523 232.927C183.225 231.612 183.696 231.509 185.631 231.509C185.064 230.089 186.721 229.652 187.458 228.754C187.416 229.19 187.375 229.625 187.334 230.06C187.896 228.921 188.419 228.932 188.903 230.093C189.382 228.793 189.736 227.456 190.314 226.189C192.524 227.233 192.338 229.717 195.292 227.904C197.726 226.411 199.963 224.651 202.444 223.188C208.095 219.856 212.967 215.52 218.633 212.225C218.633 215.434 218.876 218.67 218.417 221.862C217.98 224.897 216.767 227.735 215.803 230.64C214.023 236.002 213.9 241.731 211.929 247.038C211.114 249.236 208.989 251.074 208.38 253.214C207.759 255.396 209.193 257.145 206.789 258.579C205.094 259.589 202.975 260.016 201.098 260.627C198.235 261.559 195.516 262.875 192.729 263.991C179.655 269.225 166.903 274.555 154.79 281.593C143.295 288.271 131.625 295.168 121.065 303.1C111.9 309.983 102.636 318.883 100.405 330.112C98.2405 341.004 104.008 352.694 115.589 356.281C121.611 358.147 128.419 357.916 134.69 357.996C141.438 358.083 148.588 356.564 155.223 355.465C162.229 354.304 169.115 352.486 176.142 351.45C182.884 350.455 189.067 348.231 195.699 346.861C202.762 345.401 210.006 344.61 217.108 343.297C220.306 342.706 223.438 341.834 226.644 341.286C230.154 340.687 233.703 340.463 237.179 339.669C243.92 338.13 250.376 335.648 257.147 334.216C260.191 333.572 263.189 332.709 266.234 332.108C269.038 331.554 271.223 330.081 274.033 331.29C276.303 332.267 278.114 333.943 280.262 335.109C283.049 336.623 285.987 337.979 288.892 339.281C294.73 341.899 300.784 343.707 306.888 345.672C313.299 347.736 319.596 350.09 326.238 351.453C333.047 352.85 339.994 353.239 346.85 354.345C360.892 356.608 374.815 357.624 389.069 357.706C396.274 357.749 403.477 356.951 410.665 357.045C417.029 357.129 422.561 358.469 428.379 355.308C437.677 350.258 448.461 342.651 448.232 331.601C448.025 321.594 441.599 312.032 435.573 304.139C428.254 294.553 417.819 287.804 407.592 281.191C396.692 274.145 384.449 269.276 372.993 263.125C367.134 259.979 361.731 256.595 355.369 254.359C352.332 253.293 349.37 252.056 346.369 250.907C343.954 249.983 340.467 249.472 338.4 247.938C337.11 246.982 336.987 245.533 336.646 244.11C335.892 240.962 334.706 237.976 333.558 234.94C331.34 229.077 329.866 223.105 328.912 216.957C328.004 211.095 325.987 204.999 327.031 199.042C333.903 205.251 340.963 211.22 347.993 217.266C350.627 219.531 353.213 221.844 355.861 224.096C357.849 225.786 360.336 228.297 363.108 228.799C366.647 229.44 365.354 225.781 367.784 225.215C369.269 224.869 373.749 228.394 374.923 229.091C382.367 233.506 390.609 236.304 398.795 239.309C407.38 242.46 416.209 245.259 425.446 246.052C433.978 246.786 442.704 245.844 450.938 243.673C467.336 239.347 479.402 229.085 488.258 215.782C498.348 200.623 505.691 182.865 505.097 164.769Z" fill="black"/>
<path fill-rule="evenodd" clip-rule="evenodd" d="M254.479 131.723C254.476 131.727 254.45 131.777 254.45 131.777C254.482 131.757 254.491 131.739 254.479 131.723Z" fill="black"/>
<path fill-rule="evenodd" clip-rule="evenodd" d="M255.27 131.919C255.208 131.436 255.075 130.963 254.872 130.5C254.329 131.304 253.843 131.648 254.556 132.5C254.794 132.306 255.031 132.112 255.27 131.919Z" fill="black"/>
<path fill-rule="evenodd" clip-rule="evenodd" d="M293.082 246.839C293.689 246.236 292.628 246.008 292.224 246C292.264 246.648 291.921 248.2 292.869 248.5C292.641 247.914 292.713 247.36 293.082 246.839Z" fill="black"/>
<path fill-rule="evenodd" clip-rule="evenodd" d="M277.064 120.522C276.021 122.404 278.326 122.988 279.661 122.079C280.665 121.395 281.259 119.652 281.424 118.533C281.957 114.914 279.247 111.469 277.895 108.257C277.546 107.427 277.067 104.581 275.943 104.502C274.65 104.412 274.555 107.034 274.538 107.711C274.488 109.751 275.066 111.829 275.744 113.755C276.474 115.831 278.283 118.323 277.064 120.522Z" fill="black"/>
<path fill-rule="evenodd" clip-rule="evenodd" d="M282.028 112.97C286.039 116.307 289.247 110.749 288.967 107.461C288.898 106.647 288.309 103.644 286.656 104.737C285.825 105.286 286.533 107.07 286.137 107.853C284.219 111.652 282.371 105.76 281.079 105.297C279.507 104.734 279.349 106.664 279.352 107.695C279.355 109.742 280.398 111.614 282.028 112.97Z" fill="black"/>
<path fill-rule="evenodd" clip-rule="evenodd" d="M267.467 113.488C268.412 112.098 269.574 110.234 269.702 108.569C269.901 105.98 268.287 106.196 266.958 108.002C266.02 109.278 265.316 111.442 263.244 110.904C260.686 110.241 261.467 107.027 260.035 105.5C256.419 110.038 263.262 119.674 267.467 113.488Z" fill="black"/>
<path fill-rule="evenodd" clip-rule="evenodd" d="M272.887 127.376C274.383 127.678 278.282 127.567 276.931 125.427C275.227 122.732 269.561 126.704 272.887 127.376Z" fill="black"/>
<path fill-rule="evenodd" clip-rule="evenodd" d="M325.285 47C325.558 46.2382 325.182 46.0999 324.53 45.5C323.911 46.0331 324.703 46.5939 325.285 47Z" fill="black"/>
<path fill-rule="evenodd" clip-rule="evenodd" d="M353.182 184.975C354.169 185.121 354.487 184.634 354.134 183.511C352.578 183.417 352.261 183.905 353.182 184.975Z" fill="black"/>
<path fill-rule="evenodd" clip-rule="evenodd" d="M299.3 67.275C300.389 67.7399 299.972 68.6938 299.953 69.5C300.514 68.9308 301.646 67.8901 301.185 67.0724C300.475 65.8118 298.618 66.9841 299.3 67.275Z" fill="black"/>
<path fill-rule="evenodd" clip-rule="evenodd" d="M262.227 51.4074C262.061 51.1049 261.895 50.8025 261.729 50.5C261.053 51.0068 260.009 52.3469 261.084 53C261.524 52.5007 261.905 51.9698 262.227 51.4074Z" fill="black"/>
<path fill-rule="evenodd" clip-rule="evenodd" d="M275.286 60.3019C276.64 61.2941 275.99 58.2487 275.949 58C275.748 58.3572 274.602 59.8007 275.286 60.3019Z" fill="black"/>
<path fill-rule="evenodd" clip-rule="evenodd" d="M274.535 58.7554C274.432 58.5038 274.328 58.2522 274.224 58C273.675 58.4748 273.003 59.4445 273.91 60C274.158 59.6109 274.367 59.1962 274.535 58.7554Z" fill="black"/>
<path fill-rule="evenodd" clip-rule="evenodd" d="M283.136 69.2134C283.246 69.3087 283.357 69.4041 283.467 69.5C283.914 68.6582 283.406 68.0258 282.562 68C282.622 68.4727 282.813 68.8771 283.136 69.2134Z" fill="black"/>
<path fill-rule="evenodd" clip-rule="evenodd" d="M246.849 163.917C247.386 163.575 247.874 163.186 248.313 162.748C246.723 161.84 247.675 163.808 245.762 162.6C245.349 163.132 246.023 164.324 246.849 163.917Z" fill="black"/>
<path fill-rule="evenodd" clip-rule="evenodd" d="M313.656 246.5C314.261 245.633 314.37 245.658 313.544 245C312.856 246.071 312.927 245.796 313.656 246.5Z" fill="black"/>
<path fill-rule="evenodd" clip-rule="evenodd" d="M187.305 108.538C187.634 108.859 187.963 109.18 188.292 109.5C188.446 109.08 189.284 107.895 188.715 107.5C188.245 107.846 187.774 108.192 187.305 108.538Z" fill="black"/>
<path fill-rule="evenodd" clip-rule="evenodd" d="M199.01 111.711C198.485 111.629 197.228 111.271 196.938 111.727C197.706 112.316 199.441 111.778 199.01 111.711Z" fill="black"/>
</svg>
