<svg width="562" height="419" viewBox="0 0 562 419" fill="none" xmlns="http://www.w3.org/2000/svg">
<path fill-rule="evenodd" clip-rule="evenodd" d="M288.309 51.6976C286.611 56.1664 284.913 60.6357 283.214 65.1045C282.126 67.9682 281.038 70.8314 279.95 73.6951C279.563 74.7104 279.349 75.7519 278.602 76.4568C276.843 78.1164 273.685 79.1727 271.57 80.3402C270.153 81.1225 268.736 81.9049 267.32 82.6872C266.589 83.091 264.97 83.5978 264.458 84.2678C263.895 85.0059 264.161 86.3617 264.161 87.3824V96.1956V112.802C271.478 111.892 278.796 110.983 286.114 110.074C276.365 121.257 266.616 132.439 256.866 143.621C254.464 146.377 251.547 149.029 249.756 152.236C245.946 159.061 242.222 165.935 238.456 172.784C234.95 179.159 231.444 185.535 227.938 191.91L259.479 190.575C267.645 190.23 276.034 190.749 283.902 188.449C290.388 186.552 296.873 184.656 303.359 182.76C304.222 182.507 306.909 182.222 307.52 181.532C308.093 180.885 308.081 178.443 308.243 177.616C311.304 161.974 315.201 144.737 324.136 131.273C330.542 121.622 339.186 113.171 347.102 104.755C350.192 101.47 353.336 98.2241 356.316 94.8393C357.08 93.9724 358.182 92.9888 358.687 91.9358C359.013 91.2555 359.469 89.9592 359.266 89.3552C359.178 89.0934 357.142 88.1539 356.85 87.9673C354.786 86.6487 352.74 85.3022 350.689 83.9623C344.927 80.1967 339.171 76.4219 333.377 72.7065C328.859 69.8095 324.355 66.738 319.59 64.2485C314.651 61.668 309.211 59.8517 304.033 57.8129C298.801 55.7523 293.558 53.7151 288.309 51.6976Z" fill="#4D89C0"/>
<path fill-rule="evenodd" clip-rule="evenodd" d="M465.906 290.432C463.393 292.785 458.817 295.944 455.201 294.508C453.384 293.786 451.832 292.203 450.178 291.181C448.234 289.981 446.406 288.78 444.758 287.181C441.47 283.988 438.981 279.324 435.097 276.824C433.792 275.984 431.244 275.804 430.339 274.463C429.933 273.861 429.895 272.948 429.97 272.253C430.132 270.754 430.946 270.843 429.586 269.743H431.699C431.739 268.932 430.925 268.865 430.318 268.969C430.6 267.683 430.888 262.652 428.53 264.932C426.486 266.909 427.508 270.188 426.061 272.329C424.953 273.968 422.012 272.641 421.616 270.837C421.437 270.027 422.335 268.762 422.442 267.968C422.677 266.206 421.886 264.683 420.736 263.349C418.215 265.019 419.644 268.475 418.207 270.669C416.907 272.655 414.012 271.728 412.032 271.379C409.659 270.96 406.976 271.384 404.705 270.827C401.277 269.986 402.557 265.984 402.218 263.402C401.854 260.635 399.041 256.795 399.886 254.004C400.794 251.007 406.101 250.36 408.638 249.633C414.435 247.97 422.704 247.651 427.014 242.997C430.442 246.797 433.199 251.149 436.795 254.807C440.678 258.759 444.826 262.407 448.554 266.518C452.435 270.796 456.44 274.992 460.179 279.395C461.811 281.315 463.243 283.384 464.931 285.259C466.431 286.925 468.013 288.458 465.906 290.432ZM293.594 216.521C295.375 215.58 295.602 216.17 295.601 218.109C295.089 217.178 294.58 216.929 293.594 216.521ZM278.49 254.224V250.805C280.207 250.76 279.151 253.685 278.49 254.224ZM278.07 259.315C278.07 257.801 278.029 256.359 278.468 254.887C278.699 256.492 279.139 257.881 278.07 259.315ZM285.454 363.313C287.031 363.46 289.462 362.38 290.789 363.61C292.151 364.874 292.042 368.553 292.365 370.261C292.898 373.083 293.371 375.915 293.82 378.751C294.115 380.61 294.48 382.498 292.365 383.21C289.24 384.26 284.775 382.761 281.517 382.624C275.083 382.355 268.651 381.981 262.211 381.851C255.969 381.726 249.713 381.825 243.5 382.47C240.693 382.762 237.949 383.277 235.17 383.743C233.706 383.989 229.783 385.017 228.46 383.79C225.972 381.48 230.109 376.087 231.888 374.564C235.19 371.737 239.887 369.699 244.027 368.471C246.24 367.815 249.93 365.973 251.673 368.033C253.01 369.614 252.957 371.724 254.873 372.921C259.314 375.696 256.716 367.737 253.941 366.757C255.804 362.422 259.356 368.542 260.829 370.013C261.353 370.536 263.058 372.261 263.798 371.394C264.352 370.744 263.245 368.418 263.04 367.785C262.728 366.824 261.94 365.362 262.166 364.319C262.577 362.432 265.239 361.919 266.833 361.761C269.305 361.518 271.731 362.297 274.175 362.557C277.924 362.957 281.701 362.963 285.454 363.313ZM260.63 185.614C255.749 186 250.837 185.258 245.968 185.865C241.361 186.441 237.02 188.122 232.677 189.666C239.134 174.614 247.487 160.91 257.668 148.074C262.738 141.68 268.191 135.331 273.67 129.28C276.219 126.465 278.856 123.743 281.488 121.007C283.836 118.566 285.518 114.421 288.335 112.598C290.74 111.042 294.943 112.151 297.608 112.248C300.621 112.357 304.287 112.629 307.225 111.633C309.354 110.91 309.94 108.983 307.274 108.919C304.131 108.843 301.04 109.169 297.855 108.876C289.605 108.118 281.652 106.873 273.334 107.579C271.429 107.741 268.921 108.547 267.051 108.305C265.706 108.13 266.59 108.802 265.656 107.73C265.298 107.319 264.866 106.355 264.761 105.81C264.165 102.749 265.856 98.3741 266.261 95.2922C266.635 92.4399 266.303 89.3051 267.004 86.5275C267.641 83.9999 269.585 83.6627 271.979 83.3927C278.528 82.6534 285.212 82.2601 291.791 81.703C306.805 80.4319 322.295 78.5142 337.207 81.6556C342.592 82.7898 349.157 84.5438 353.967 87.3524C355.471 88.2303 356.989 89.2641 356.442 91.0831C355.874 92.9713 353.092 94.9659 351.714 96.2098C341.528 105.402 331.69 114.777 324.535 126.572C315.41 141.611 310.174 157.855 307.102 175.089C306.441 178.796 305.827 180.737 301.99 181.804C297.87 182.95 293.894 183.695 289.622 184.044C279.966 184.832 270.281 184.849 260.63 185.614ZM263.9 86.0142C263.16 91.489 262.159 96.9518 262.06 102.47C262.022 104.554 261.824 105.598 259.594 106.063C256.966 106.611 254.294 107.019 251.653 107.587C238.91 110.333 226.408 113.704 213.941 117.499C201.824 121.188 189.907 125.339 177.518 128.071C172.189 129.247 165.953 130.039 161.1 132.642C155.878 135.443 156.565 140.035 156.096 145.079C155.47 151.818 153.46 158.343 152.753 165.079C152.415 168.298 152.107 171.536 152.158 174.775C152.201 177.536 152.599 180.589 150.732 182.913C146.986 177.935 145.211 171.674 144.473 165.573C144.114 162.607 144.256 159.617 144.153 156.638C144.071 154.239 144.124 150.423 142.552 148.42C139.135 144.066 134.692 161.514 134.269 163.377C133.558 166.513 132.972 169.675 132.264 172.812C131.95 174.202 131.547 179.255 129.674 179.759C125.791 180.803 126.643 169.957 126.582 168.305C126.459 164.972 126.375 161.634 126.454 158.298C126.511 155.89 126.979 153.277 126.701 150.868C126.018 144.952 122.672 151.184 121.731 153.386C119.354 158.945 118.279 164.895 116.147 170.543C115.793 171.483 114.96 174.645 113.64 174.704C112.171 174.769 112.183 171.503 112.099 170.549C111.611 165.017 109.965 159.524 110.462 153.935C110.964 148.292 112.954 142.49 115.77 137.582C121.723 127.204 132.475 121.245 142.773 115.817C154.559 109.606 167.001 104.699 179.709 100.702C194.993 95.8945 210.686 92.0046 226.474 89.2363C234.506 87.8282 242.662 86.8211 250.776 86.0136C253.628 85.7299 256.481 85.5641 259.296 85.0245C260.358 84.8204 264.192 83.851 263.9 86.0142ZM272.11 68.2967C268.083 68.3283 263.97 66.3877 260.047 65.5857C255.376 64.6299 250.815 63.2469 246.153 62.249C237.023 60.2953 227.888 58.3902 218.767 56.3934C214.807 55.5265 210.828 54.7719 206.883 53.8406C202.663 52.8444 198.104 51.7336 193.785 52.8068C187.238 54.4337 184.472 61.5539 182.069 67.1106C180.371 71.0355 179.04 75.4104 176.392 78.8257C175.449 80.0434 174.109 81.4957 172.399 81.1013C169.223 80.3691 169.728 76.1911 170.132 73.8817C170.718 70.5303 171.549 67.2181 172.213 63.8819C172.481 62.5354 174.557 53.7228 170.851 55.0873C168.102 56.0993 166.648 62.7651 165.607 65.146C164.834 66.9153 164.014 68.6731 163.147 70.3988C161.989 72.7005 158.685 80.3915 155.027 79.3996C149.792 77.98 154.813 64.2998 155.705 61.4165C156.195 59.8337 161.516 47.8306 157.025 48.8115C155.112 49.23 153.249 52.7615 152.273 54.2253C150.544 56.8216 148.82 59.4366 147.192 62.0968C145.518 64.8328 144.663 67.947 143.002 70.6432C142.128 72.0622 140.345 73.9532 138.604 72.6394C135.89 70.593 137.499 63.4744 137.974 60.7825C138.858 55.778 141.055 50.6474 144.068 46.5561C148.597 40.4086 157.141 38.4222 164.327 37.2279C173.601 35.6861 183.005 36.1079 192.319 37.0201C202.793 38.0463 213.108 39.1451 223.432 41.2434C233.837 43.358 244.248 45.4557 254.493 48.2523C259.319 49.5699 264.215 50.738 268.973 52.2847C274.031 53.9285 278.967 55.9744 284.166 57.1588C282.337 61.6952 280.508 66.2317 278.679 70.7687C276.929 69.0474 274.54 68.277 272.11 68.2967ZM361.746 80.7974C363.35 79.9256 365.121 79.5142 365.707 77.5872C366.224 75.8845 365.34 73.9554 364.917 72.3208C363.735 67.7446 363.424 63.0041 364.47 58.3738C365.47 59.891 369.213 65.727 371.49 62.1939C372.863 60.0629 369.183 56.9973 368.109 55.4992C370.466 54.0534 373.832 50.1733 376.548 52.5133C378.303 54.0261 379.046 55.4828 381.411 56.2182C384.282 57.1113 386.985 56.9068 389.916 56.6602C391.969 56.4878 392.464 56.2155 393.265 57.7868C393.895 59.0219 394.22 60.5506 394.588 61.8769C395.313 64.4919 396.99 69.6442 395.004 72.0939C393.263 74.2396 386.509 72.3999 385.571 75.1698C385.06 76.6805 387.501 76.7345 388.434 77.4819C389.589 78.4072 390.545 79.8797 391.173 81.1951C391.638 82.1679 392.344 83.7751 391.553 84.7697C390.46 86.1456 388.433 85.102 387.552 84.1019C386.382 82.7735 386.002 80.9572 385.026 79.5104C383.234 76.8556 383.127 78.9675 382.639 80.8738C382.132 82.8542 380.934 82.7178 379.098 82.972C375.877 83.4189 372.622 84.049 369.486 84.9072C367.879 85.3469 366.322 85.9072 364.791 86.5619C363.805 86.9831 362.095 88.2592 361.025 88.2713C359.042 88.2936 357.667 84.9967 356.644 83.6213C358.343 82.678 360.038 81.726 361.746 80.7974ZM468.235 282.672C463.282 276.762 458.993 270.342 454.107 264.381C449.288 258.501 443.712 253.36 438.303 248.035C435.751 245.521 433.305 242.764 430.487 240.537C428.385 238.875 426.768 238.849 424.24 239.585C417.055 241.677 409.74 244.195 402.941 247.316C396.61 250.223 390.844 253.955 383.978 255.576C376.97 257.231 369.683 257.762 362.501 257.352C355.133 256.931 348.185 255.407 341.178 253.168C334.543 251.047 327.624 249.194 321.95 244.99C316 240.583 311.404 234.244 307.145 228.282C304.989 225.264 302.848 222.094 301.395 218.673C300.135 215.705 299.311 212.201 297.049 209.782C296.494 210.564 295.803 211.234 295.521 212.152C295.393 212.57 296.149 212.557 296.072 212.888C295.925 213.513 295.089 214.15 294.603 214.49C292.856 215.712 292.845 214.739 293.303 217.025C293.57 218.357 293.065 221.363 290.88 220.381C291.684 221.338 290.406 222.547 289.989 223.335C289.702 223.008 289.344 222.894 288.917 222.992C289.716 224.574 289.244 224.616 288.47 225.873C288.328 226.103 287.827 227.304 287.899 227.203C287.108 228.324 286.193 228.606 285.732 230.001C285.353 231.147 285.45 232.408 285.027 233.552C284.516 232.85 284.005 232.148 283.494 231.446C283.599 231.999 283.807 232.816 284.05 233.317C284.202 233.63 284.856 234.361 284.848 234.532C284.812 235.17 284.011 235.017 283.782 235.567C283.354 236.6 283.973 236.752 283.74 237.76C283.472 238.916 282.753 238.454 282.411 239.44C282.346 239.627 282.851 240.363 282.771 240.767C282.658 241.338 282.138 241.657 281.954 242.164C281.487 243.455 281.657 244.4 281.008 245.638C280.756 246.118 280.39 246.438 280.213 246.983C280.057 247.463 280.392 248.485 280.092 248.915C278.644 250.988 278.848 247.418 278.958 246.532C279.879 239.098 282.836 231.425 285.541 224.476C286.886 221.023 288.195 217.463 289.88 214.156C290.559 212.824 291.342 211.45 292.463 210.432C293.881 209.143 295.893 208.627 297.178 207.188C296.975 207.415 298.57 205.915 298.315 206.408C298.543 205.967 298.145 205.37 298.286 204.944C298.462 204.414 298.796 204.303 299.167 203.839C299.833 203.006 300.625 202.592 299.578 201.531C301.132 201.19 301.876 200.688 302.186 199.033C302.413 197.823 301.955 197.902 302.754 197.095C303.556 196.284 303.962 196.917 304.468 195.513C305.072 193.834 305.473 191.549 305.835 189.791C306.152 188.257 305.384 186 306.686 184.916C308.334 183.544 309.808 184.125 309.513 181.366C309.225 178.675 310.066 177.046 310.911 174.5C312.598 169.418 313.25 164.052 314.728 158.91C317.884 147.935 323.46 138.04 329.455 128.38C334.995 119.453 342.74 111.848 350.219 104.523C352.267 102.517 354.292 100.482 356.131 98.283C357.714 96.3893 358.438 93.8109 359.96 92.0133C360.885 90.9216 362.607 90.4546 363.898 89.8757C366.052 88.9101 368.618 87.6503 371.049 87.8456C370.083 91.0825 369.768 94.865 372.618 97.2922C376.077 100.237 379.211 97.1777 382.381 95.4989C388.159 92.4388 396.423 95.248 401.461 90.6614C402.661 89.5691 402.996 87.8238 404.243 86.8036C405.158 86.0556 406.461 85.8658 407.492 85.3082C410.623 83.6142 412.142 80.5131 410.923 77.0875C409.809 73.9559 408.078 72.8697 411.932 71.2826C415.06 69.995 416.249 68.055 414.833 64.601C413.483 61.3079 411.01 60.9287 408.67 58.7737C406.403 56.6863 409.007 54.2569 410.705 52.69C412.895 50.6687 413.314 48.847 410.775 46.7449C408.116 44.5441 404.321 44.621 401.222 45.7094C397.717 46.9397 395.408 48.985 393.925 52.2994C392.415 55.6738 388.671 54.7321 385.639 53.7915C382.74 52.8924 381.985 50.9524 380.081 48.8634C377.964 46.5398 373.649 48.5268 371.151 49.5884C365 52.2017 358.887 56.3263 358.643 63.632C358.498 67.9884 360.351 71.6912 361.315 75.7803C362.196 79.5197 356.153 79.2251 355.106 82.8422C343.943 76.9675 331.51 75.1698 319.031 74.7699C305.767 74.3444 292.313 74.0034 279.162 76.0831C282.215 70.7965 283.827 64.9992 286.483 59.5681C287.247 58.0044 287.576 58.1381 289.264 58.6106C292.504 59.5179 295.721 60.5332 298.955 61.4677C310.77 64.8819 322.353 68.9956 333.778 73.5009C334.888 73.939 337.367 75.1551 338.34 73.8326C339.463 72.3077 336.866 70.4277 335.814 69.6606C331.214 66.3059 325.513 64.2698 320.361 61.9162C309.098 56.772 296.625 54.33 284.872 50.5094C259.501 42.2598 233.252 35.9944 206.886 31.8562C200.451 30.8464 193.948 30.6985 187.486 29.9489C181.761 29.2849 176.027 29.3002 170.303 29.986C159.731 31.2534 147.475 33.9878 141.505 43.6073C136.115 52.2928 132.517 62.0581 133.892 72.3607C134.305 75.4551 135.623 79.1198 139.465 78.3221C142.129 77.7689 143.544 75.5184 144.781 73.3219C146.651 70.0038 148.497 66.6856 150.523 63.4564C151.274 68.2983 148.543 73.0595 148.973 77.9921C149.265 81.3391 151.125 86.6274 155.497 85.6797C161.488 84.3813 163.954 75.0765 166.835 70.6126C166.981 74.0508 165.768 77.4394 166.139 80.8852C166.506 84.2891 169.181 87.5025 172.939 87.036C176.483 86.5963 178.787 82.8215 180.292 79.9796C182.387 76.0247 183.892 71.7845 185.938 67.8035C187.855 64.0718 190.127 59.6292 194.705 58.9281C198.791 58.3018 203.474 59.7514 207.51 60.3493C218.706 62.0079 229.676 64.8317 240.749 67.1133C252.622 69.5591 264.775 71.0447 276.282 74.9914C272.236 80.4657 261.648 79.2829 255.62 79.8705C246.512 80.7587 237.287 81.427 228.23 82.7374C219.285 84.0315 210.528 86.329 201.652 87.9968C192.824 89.6559 184.011 91.3177 175.468 94.147C159.608 99.4003 143.483 106.049 129.508 115.215C123.006 119.48 117.231 124.355 113.214 131.087C109.172 137.862 107.23 145.522 106.489 153.314C106.028 158.167 106.811 162.366 107.757 167.088C108.442 170.508 108.663 176.232 111.421 178.736C116.685 183.515 121.055 164.131 122.027 161.79C122.727 165.627 121.583 187.24 130.029 185.482C133.798 184.698 134.653 179.555 135.278 176.458C136.419 170.81 137.44 165.05 139.391 159.611C140.643 166.939 141.164 174.574 143.861 181.573C145.653 186.221 150.764 194.469 154.328 186.511C157 180.543 156.083 173.694 156.404 167.357C156.759 160.336 158.787 153.563 159.505 146.61C159.783 143.917 159.531 140.881 162.254 139.412C164.591 138.15 168.009 137.739 170.561 137.035C178.12 134.949 185.729 133.031 193.252 130.818C200.779 128.603 208.201 126.015 215.627 123.49C222.73 121.074 229.981 119.701 237.17 117.633C241.257 116.457 245.295 115.226 249.439 114.244C251.368 113.788 253.32 113.432 255.244 112.959C256.67 112.609 258.549 111.287 260.016 111.31C261.525 111.335 262.093 112.605 263.823 112.705C265.686 112.812 267.581 112.403 269.434 112.262C273.948 111.917 278.746 111.361 283.25 111.983C280.543 115.174 276.887 117.381 273.683 120.025C269.988 123.074 266.412 126.366 263.256 129.967C256.905 137.212 250.902 144.871 245.325 152.72C239.825 160.463 235.396 168.936 231.545 177.593C229.626 181.907 227.764 186.316 226.438 190.85C225.894 192.712 225.449 194.582 224.466 196.276C223.564 197.83 222.294 199.169 223.36 201.045C224.093 200.589 224.753 200.021 225.416 199.473C224.649 204.842 222.995 210.036 222.144 215.389C221.305 220.662 221.339 226.086 221.394 231.412C221.508 242.565 222.342 253.466 224.618 264.407C226.92 275.469 229.877 286.448 233.606 297.12C237.195 307.395 240.797 318.171 245.807 327.855C251.158 338.199 257.524 349.075 265.27 357.831C260.21 359.891 253.771 359.505 248.414 360.335C242.813 361.203 237.969 362.84 233.196 365.92C228.368 369.038 225.747 373.051 225.079 378.735C224.605 382.78 223.196 388.381 228.535 389.444C232.375 390.208 236.668 388.953 240.516 388.642C247.247 388.1 253.988 387.761 260.733 387.469C267.461 387.177 274.191 386.92 280.921 386.713C284.087 386.615 287.254 386.566 290.419 386.453C291.837 386.403 292.697 386.381 293.969 386.789C294.974 387.111 294.901 387.78 296.02 386.953C297.826 385.618 297.454 381.409 297.404 379.558C297.327 376.702 297.055 373.813 296.494 371.011C296.162 369.346 292.125 358.613 295.264 358.161C291.617 354.177 290.16 348.489 288.522 343.496C286.469 337.24 284.668 331.002 283.253 324.568C280.232 310.825 278.897 296.931 278.897 282.869C292.902 291.45 307.72 296.098 324.215 296.617C340.615 297.132 358.633 295.793 374.206 290.37C381.417 287.858 387.877 284.56 394.06 280.116C396.276 278.523 398.65 274.916 401.559 274.978C405.031 275.052 408.918 276.358 412.365 276.917C418.958 277.985 427.562 278.588 433.144 282.641C436.175 284.843 438.348 287.925 441.054 290.462C443.112 292.392 445.834 293.44 447.877 295.371C450.081 297.453 449.205 300.174 452.86 300.342C455.984 300.486 459.409 299.237 462.103 297.77C467.478 294.844 473.203 288.599 468.235 282.672Z" fill="black"/>
<path fill-rule="evenodd" clip-rule="evenodd" d="M416.57 143.503C424.436 149.057 433.459 152.852 441.679 157.854C443.737 159.106 450.147 161.706 450.085 164.028C450.049 165.386 448.123 167.089 447.279 168.03C445.834 169.642 444.475 171.271 443.141 172.977C437.037 180.787 431.288 188.67 424.673 196.088C423.677 197.204 420.676 202.531 419.708 199.885C419.269 198.685 419.63 197.337 418.486 196.219C417.897 195.643 415.621 195.325 416.284 194.089C416.726 194.287 417.168 194.485 417.611 194.682C417.267 193.694 417.292 192.613 416.777 191.679C416.457 191.099 415.832 190.825 415.616 190.172C415.316 189.269 415.824 188.221 415.739 187.291C415.655 186.363 415.172 185.486 414.883 184.611C413.171 179.424 412.557 174.195 411.68 168.842C410.813 163.547 409.463 158.417 408.932 153.062C408.372 147.406 407.686 141.761 406.77 136.151C408.404 136.379 409.661 138.145 410.818 139.143C412.635 140.712 414.609 142.118 416.57 143.503ZM410.403 198.26C410.028 197.967 409.734 197.607 409.522 197.181C413.378 195.282 411.051 198.521 410.403 198.26ZM408.059 194.211C406.378 194.672 405.171 194.765 403.875 194.077C403.752 194.013 403.894 193.51 403.672 193.407C403.478 193.317 403.182 193.428 403.017 193.344C402.452 193.059 401.465 193.684 401.368 192.592C403.513 191.939 405.622 190.735 407.887 190.532C411.034 190.251 410.888 193.435 408.059 194.211ZM400.696 187.915C398.403 188.448 396.514 189.693 394.077 189.368C391.79 189.064 389.803 187.885 387.999 186.526C392.512 185.256 397.245 185.027 401.754 183.798C403.222 183.398 405.151 182.344 406.733 182.769C408.491 183.241 408.602 184.878 409.129 186.367C406.316 186.87 403.481 187.268 400.696 187.915ZM386.354 181.595C384.151 182.118 381.899 183.263 380.058 181.288C379.76 180.969 379.5 181.288 379.535 180.306C379.572 179.271 380.517 178.604 381.33 178.24C383.241 177.383 385.92 177.937 387.949 177.811C391.187 177.611 394.482 176.942 397.684 176.427C399.901 176.071 402.192 175.28 404.458 175.436C406.208 175.556 408.318 177.039 405.768 178.12C403.446 179.105 399.965 178.954 397.449 179.381C393.73 180.011 390.024 180.723 386.354 181.595ZM384.202 171.293C384.345 171.437 384.488 171.582 384.63 171.726C384.607 171.721 385.475 171.022 385.705 171.002C386.822 170.905 387.945 170.982 389.064 170.919C391.641 170.774 394.239 170.328 396.77 169.837C398.832 169.436 400.932 168.746 403.054 168.919C404.892 169.068 405.085 169.443 405.205 171.205C400.515 171.205 395.684 171.107 391.074 172.094C388.073 172.736 384.766 174.649 383.263 171.201C383.576 171.232 383.889 171.262 384.202 171.293ZM387.135 163.83C388.298 164.71 391.468 163.246 392.862 163.1C394.376 162.94 395.8 162.775 397.267 162.4C398.568 162.068 402.871 160.406 403.869 161.995C405.399 164.43 399.205 164.877 398.223 164.997C394.105 165.503 389.833 165.952 385.826 167.025C386.262 165.96 386.698 164.895 387.135 163.83ZM392.783 155.559C393.084 156.685 402.396 152.538 402.566 155.552C402.697 157.864 393.352 159.017 391.672 158.814C392.066 157.749 393.112 156.795 392.783 155.559ZM395.91 148.485C396.108 146.215 396.414 146.228 398.246 146.014C399.642 145.851 401.562 145.037 401.199 147.512C400.888 149.631 395.711 150.776 395.91 148.485ZM399.238 140.674C399.679 139.455 400.671 141.096 400.692 141.716C400.747 143.365 399.489 143.008 398.279 143.008C398.616 142.238 398.936 141.459 399.238 140.674ZM414.566 131.525C414.319 131.23 412.932 131.117 412.538 130.973C411.567 130.62 411.705 129.866 410.464 130.609C410.402 130.547 410.52 129.988 410.452 129.963C410.418 129.95 409.548 129.623 409.266 129.443C408.583 129.009 407.969 128.584 407.342 128.039C406.676 127.46 406.008 126.62 405.247 126.159C404.926 125.965 404.664 125.689 404.277 125.63C403.273 125.476 403.561 126.171 402.683 126.309C402.142 126.394 401.749 125.767 401.042 126.037C400.431 126.271 400.077 127.123 399.804 127.629C398.815 129.474 398.051 131.459 397.083 133.324C392.129 142.856 386.499 152.027 381.7 161.649C379.389 166.284 376.977 170.952 375.351 175.878C374.178 179.43 371.529 184.62 373.808 188.171C375.465 190.752 378.783 191.866 381.43 193.113C385.412 194.99 389.084 197.443 393.111 199.263C397.913 201.432 402.575 203.702 407.256 206.125C409.252 207.158 411.053 208.646 413.043 209.625C414.259 210.224 416.139 209.202 416.535 210.574C418.06 208.738 420.529 209.962 422.293 208.669C423.331 207.909 424.089 206.411 424.955 205.474C426.253 204.07 427.663 202.767 428.988 201.387C434.246 195.907 439.102 190.199 443.886 184.313C448.455 178.692 453.794 173.381 457.654 167.228C459.186 164.786 459.464 162.224 458.453 159.526C457.714 157.557 455.935 154.585 453.393 155.888C454.357 154.298 450.639 152.599 449.511 152.288C449.494 152.283 449.272 153.505 448.957 153.475C449.069 153.486 448.012 150.767 447.548 150.418C446.169 149.381 444.492 148.171 442.988 147.317C441.608 146.535 440.152 146.147 438.816 145.27C437.195 144.209 435.708 142.95 434.082 141.895C432.512 140.877 430.762 139.673 429.026 138.973C427.521 138.366 426.17 138.247 424.816 137.252C423.141 136.021 421.68 135.186 419.748 134.337C418.077 133.603 415.761 132.962 414.566 131.525Z" fill="black"/>
<path fill-rule="evenodd" clip-rule="evenodd" d="M186.442 278.962C186.749 278.245 187.055 277.527 187.363 276.811C187.742 278.061 187.849 278.683 186.442 278.962ZM186.851 282.276C186.185 282.395 186.447 280.319 186.447 279.957C187.597 280.604 186.645 281.38 186.851 282.276ZM185.813 276.287C186.38 275.954 186.948 275.621 187.515 275.288C186.725 276.743 187.035 275.834 187.361 276.806C186.765 276.976 186.185 276.778 185.813 276.287ZM182.449 287.664C180.322 295.336 173.566 301.387 166.429 304.521C162.328 306.322 158.297 306.772 153.868 306.572C152.16 306.494 150.15 305.943 148.507 306.045C147.241 306.124 147.298 306.179 146.25 307.244C145.786 306.395 146.122 305.799 145.192 305.305C144.031 304.688 143.549 305.406 142.973 306.26C142.22 305.484 141.911 305.078 140.935 304.617C140.966 304.632 140 304.596 140.04 304.608C139.865 304.554 138.815 303.883 138.487 303.761C137.138 303.258 135.578 303.051 134.333 302.329C133.244 301.699 132.347 299.93 131.102 301.289C131.101 299.018 128.022 298.075 126.579 296.886C124.325 295.026 122.532 292.273 121.408 289.61C120.21 286.771 119.81 284.048 119.249 281.122C118.857 279.077 116.29 276.121 117.832 274.058C118.199 274.923 118.026 275.809 118.636 276.593C119.185 275.542 119.487 274.366 119.735 273.215C119.857 272.652 120.562 270.998 120.482 270.507C120.319 269.502 119.068 269.447 119.762 268.215C121.201 269.772 122.362 267.038 121.275 265.949C120.738 266.551 120.541 267.234 120.294 267.979C118.879 265.14 122.795 266.055 121.938 263.492C123.367 263.218 124.189 262.86 124.732 261.457C125.336 259.895 124.892 259.554 126.264 258.522C126.736 258.167 128.07 257.657 128.315 257.073C128.787 255.946 127.585 255.611 128.638 254.555C128.994 255.175 130.38 256.403 131.139 255.234C131.291 255.001 130.653 254.836 131.117 254.299C131.805 253.505 132.574 252.726 133.737 252.893C132.816 250.604 138.701 250.423 140.208 249.883C141.718 249.342 143 248.987 144.601 248.861C146.201 248.736 146.281 248.27 147.635 247.313C147.75 248.683 148.081 248.381 149.061 248.623C149.296 248.221 149.538 248.176 149.785 248.488C150.031 248.72 150.331 248.829 150.686 248.816C151.224 248.844 151.834 248.774 152.398 248.786C153.721 248.811 155.086 248.702 156.384 248.729C156.719 248.674 157.032 248.558 157.325 248.382C157.447 248.611 157.57 248.841 157.692 249.07C158.379 249.156 158.433 250.013 159.278 249.076C159.529 250.267 160.248 249.647 161.007 249.97C161.7 250.265 161.81 250.737 162.45 251.066C162.87 251.404 163.321 251.449 163.802 251.201C164.261 251.539 164.726 251.866 165.198 252.185C166.068 252.673 167.093 252.972 168.01 253.358C168.62 253.607 169.225 253.868 169.826 254.137C169.845 254.858 170.17 255.113 170.802 254.901C171.374 255.376 171.534 255.358 172.089 256.167C173.344 258 174.459 259.425 176.045 261.064C182.938 268.189 185.056 278.262 182.449 287.664ZM184.565 257.366C181.453 253.223 177.047 248.478 173.089 245.862C171.082 244.535 168.266 242.154 165.812 241.452C165.23 241.286 164.628 241.275 164.056 241.1C163.614 240.965 163.374 240.515 162.87 240.433C162.518 240.377 162.479 241.161 162.104 241.089C161.322 240.937 160.826 240.165 160.273 239.682C159.086 241.716 158.442 238.296 156.698 240.595C154.624 237.361 149.75 238.068 146.438 238.232C145.455 238.28 144.994 238.627 144.123 238.885C143.312 239.124 143.232 239.062 142.347 239.056C140.142 239.039 138.185 239.314 136.147 240.277C132.723 241.893 129.581 244.412 126.329 246.361C122.695 248.538 119.419 251.309 116.638 254.494C106.587 266.009 103.9 282.816 111.914 296.165C124.644 317.367 157.481 319.633 176.088 305.247C190.463 294.132 195.934 272.497 184.565 257.366Z" fill="black"/>
<path fill-rule="evenodd" clip-rule="evenodd" d="M342.128 197.704C341.77 198.551 338.434 198.265 338.361 197.267C338.252 195.774 342.748 196.231 342.128 197.704ZM345.671 197.149C347.562 197.302 350.669 198.579 352.491 197.807C355.272 196.63 352.351 194.823 350.86 194.283C349.341 193.733 347.08 194.025 346.3 192.447C345.713 191.261 347.164 187.948 345.364 188.481C343.474 189.039 344.024 193.785 341.06 192.185C339.646 191.422 340.223 186.772 337.854 189.148C337.206 189.798 337.15 190.991 336.291 191.475C335.416 191.97 334.317 191.455 333.392 191.498C330.944 191.612 330.164 193.888 332.644 194.791C333.563 195.126 337.024 195.534 334.927 197.025C333.606 197.965 330.671 195.993 329.537 197.629C327.978 199.875 332.154 199.926 333.276 200.598C335.177 201.736 333.607 204.395 333.759 206.288C333.991 209.181 335.681 208.576 336.295 206.128C336.816 204.051 336.171 201.062 339.32 201.887C344.45 203.231 336.468 209.704 340.225 211.361C342.621 212.417 342.96 206.708 343.146 205.725C343.835 202.096 345.885 202.943 348.992 203.054C352.621 203.184 353.497 200.515 349.654 199.751C348.428 199.507 346.741 199.815 345.676 199.039C345.046 198.58 344.18 197.029 345.671 197.149Z" fill="black"/>
<path fill-rule="evenodd" clip-rule="evenodd" d="M211.689 315.699C208.752 314.654 203.839 314.88 203.112 318.65C202.808 320.228 203.4 321.898 204.497 323.045C205.769 324.374 207.794 324.497 207.686 322.182C207.61 320.58 206.076 319.188 208.773 318.865C210.452 318.664 212.934 319.912 213.018 321.755C213.206 325.909 205.973 326.235 203.307 325.516C198.016 324.091 199.454 318.582 203.087 316.068C204.026 315.419 206.719 314.418 206.842 313.069C207.005 311.279 204.779 311.645 203.688 311.881C195.668 313.616 193.92 326.972 202.3 329.489C206.106 330.632 211.465 329.452 213.758 326.026C215.909 322.814 215.938 317.211 211.689 315.699Z" fill="black"/>
<path fill-rule="evenodd" clip-rule="evenodd" d="M105.351 221.153C102.844 222.353 100.337 223.553 97.8306 224.753C97.0019 222.99 95.6018 218.174 93.4998 217.559C90.0971 216.564 92.2639 221.813 92.8511 223.013C93.3335 223.999 94.4526 225.527 94.1809 226.702C93.8165 228.285 91.5696 228.846 90.3935 229.663C87.483 231.685 87.5061 235.931 91.7211 234.132C94.1063 233.113 97.0595 230.289 98.8877 233.495C99.7318 234.975 101.732 243.242 103.821 237.835C105.113 234.488 98.8921 231.011 101.959 228.179C102.946 227.268 104.102 227.191 105.088 226.668C107.47 225.402 106.127 223.065 105.351 221.153Z" fill="black"/>
<path fill-rule="evenodd" clip-rule="evenodd" d="M472.894 101.379C471.4 100.835 469.551 99.7741 467.889 100.136C466.124 100.52 465.413 102.278 464.129 103.334C460.639 106.208 458.606 101.925 456.689 99.5782C454.878 97.3621 452.668 96.8241 450.113 98.1859C449.095 98.7287 444.806 101.216 445.554 102.81C446.091 103.956 448.211 102.927 448.933 102.676C450.502 102.134 451.96 101.658 453.564 102.45C456.575 103.934 457.356 108.003 460.998 108.638C464.764 109.294 464.887 105.732 467.575 104.391C469.377 103.492 470.632 105.083 472.37 104.766C474.026 104.464 474.792 102.068 472.894 101.379Z" fill="black"/>
<path fill-rule="evenodd" clip-rule="evenodd" d="M442.489 115.736C443.821 116.024 444.691 113.456 445.524 112.805C446.907 111.725 449.305 111.507 450.713 112.594C453.464 114.715 452.516 119.295 456.432 120.488C459.932 121.556 461.58 116.973 464.526 115.832C466.239 115.169 468.12 114.735 467.451 112.354C466.989 110.708 465.629 110.286 464.151 110.918C461.61 112.004 460.747 116.427 457.735 116.506C454.618 116.588 454.28 112.121 452.942 110.175C450.902 107.21 446.708 106.494 444.325 109.329C443.606 110.185 439.953 115.19 442.489 115.736Z" fill="black"/>
<path fill-rule="evenodd" clip-rule="evenodd" d="M380.88 65.1015C382.732 66.3618 386.425 66.3181 388.132 64.755C389.869 63.1647 387.55 62.9203 386.135 62.9688C385.047 63.0065 383.009 63.5428 383.63 61.6742C384.18 60.0162 387.206 60.8602 387.458 59.0402C385.181 58.6343 382.673 58.7805 380.989 60.5596C379.771 61.8455 379.145 63.9214 380.88 65.1015Z" fill="black"/>
</svg>
